<svg xmlns="http://www.w3.org/2000/svg" viewBox="0 0 66.1 48.78"><defs><style>.cls-1{fill:#118995;}.cls-2{fill:#ecf9fb;}.cls-3{fill:#fdc00f;}.cls-4{fill:#a2e2e8;}.cls-5{opacity:0.2;}</style></defs><title>Asset 5</title><g id="Layer_2" data-name="Layer 2"><g id="Layer_1-2" data-name="Layer 1"><polygon class="cls-1" points="36.66 2.74 29.44 2.74 0 2.74 0 48.78 29.44 48.78 36.66 48.78 66.1 48.78 66.1 2.74 36.66 2.74"/><path class="cls-2" d="M62.49,44.5A40.9,40.9,0,0,0,33,44.5V2.74a40.86,40.86,0,0,1,29.44,0Q62.49,23.62,62.49,44.5Z"/><path class="cls-3" d="M58.2,6.09l-.15,0a40.24,40.24,0,0,0-20.56,0,.6.6,0,0,1-.31-1.16,41.45,41.45,0,0,1,21.18,0,.6.6,0,0,1-.15,1.18Z"/><path class="cls-3" d="M58.2,10.87l-.15,0a40.27,40.27,0,0,0-20.56,0,.6.6,0,0,1-.31-1.16,41.48,41.48,0,0,1,21.17,0,.6.6,0,0,1-.15,1.18Z"/><path class="cls-3" d="M58.2,15.66l-.15,0a40.24,40.24,0,0,0-20.56,0,.6.6,0,0,1-.31-1.16,41.45,41.45,0,0,1,21.18,0,.6.6,0,0,1-.15,1.18Z"/><path class="cls-3" d="M58.2,20.44l-.15,0a40.27,40.27,0,0,0-20.56,0,.6.6,0,0,1-.31-1.16,41.48,41.48,0,0,1,21.17,0,.6.6,0,0,1-.15,1.18Z"/><path class="cls-3" d="M37.33,25.22A.6.6,0,0,1,37.18,24a41.44,41.44,0,0,1,21.18,0A.6.6,0,0,1,58,25.2a40.24,40.24,0,0,0-20.56,0Z"/><path class="cls-3" d="M37.33,30a.6.6,0,0,1-.15-1.18,41.46,41.46,0,0,1,21.17,0A.6.6,0,0,1,58,30a40.26,40.26,0,0,0-20.56,0Z"/><path class="cls-3" d="M58.2,34.79l-.15,0a40.27,40.27,0,0,0-20.56,0,.6.6,0,0,1-.31-1.16,41.43,41.43,0,0,1,21.17,0,.6.6,0,0,1-.15,1.18Z"/><path class="cls-3" d="M37.33,39.57a.6.6,0,0,1-.15-1.18,41.5,41.5,0,0,1,21.17,0A.6.6,0,0,1,58,39.55a40.27,40.27,0,0,0-20.56,0Z"/><path class="cls-2" d="M33,44.5a40.9,40.9,0,0,0-29.44,0V2.74A40.86,40.86,0,0,1,33,2.74Q33,23.62,33,44.5Z"/><path class="cls-3" d="M28.77,6.09l-.15,0a40.24,40.24,0,0,0-20.56,0,.6.6,0,1,1-.31-1.16,41.45,41.45,0,0,1,21.17,0,.6.6,0,0,1-.15,1.18Z"/><path class="cls-3" d="M7.9,10.87a.6.6,0,0,1-.15-1.18,41.47,41.47,0,0,1,21.17,0,.6.6,0,1,1-.31,1.16,40.26,40.26,0,0,0-20.56,0Z"/><path class="cls-3" d="M28.77,15.66l-.15,0a40.24,40.24,0,0,0-20.56,0,.6.6,0,1,1-.31-1.16,41.45,41.45,0,0,1,21.17,0,.6.6,0,0,1-.15,1.18Z"/><path class="cls-3" d="M7.9,20.44a.6.6,0,0,1-.15-1.18,41.47,41.47,0,0,1,21.17,0,.6.6,0,0,1-.31,1.16,40.26,40.26,0,0,0-20.56,0Z"/><path class="cls-3" d="M28.77,25.22l-.15,0a40.22,40.22,0,0,0-20.56,0A.6.6,0,1,1,7.74,24a41.43,41.43,0,0,1,21.17,0,.6.6,0,0,1-.15,1.18Z"/><path class="cls-3" d="M7.9,30a.6.6,0,0,1-.15-1.18,41.45,41.45,0,0,1,21.17,0A.6.6,0,0,1,28.61,30,40.25,40.25,0,0,0,8.05,30Z"/><path class="cls-3" d="M7.9,34.79a.6.6,0,0,1-.15-1.18,41.43,41.43,0,0,1,21.17,0,.6.6,0,1,1-.31,1.16,40.26,40.26,0,0,0-20.56,0Z"/><path class="cls-3" d="M7.9,39.57a.6.6,0,0,1-.15-1.18,41.46,41.46,0,0,1,21.17,0,.6.6,0,0,1-.31,1.16,40.29,40.29,0,0,0-20.56,0Z"/><path class="cls-4" d="M3.61,44.5H33A40.9,40.9,0,0,0,3.61,44.5Z"/><path class="cls-4" d="M33,44.5H62.49A40.9,40.9,0,0,0,33,44.5Z"/><path class="cls-5" d="M62.49,2.74q0,20.88,0,41.75H3.61l2,2H64.49V4.74Z"/><path class="cls-5" d="M33,44.5,33,42.7c0-1.14-.14-2.77-.18-4.73s-.13-4.24-.16-6.69,0-5.06-.06-7.67,0-5.22.06-7.67.12-4.73.16-6.69.14-3.59.18-4.73L33,2.74l.1,1.79c0,1.14.14,2.77.18,4.73s.13,4.24.16,6.69,0,5.06.06,7.67,0,5.22-.06,7.67S33.37,36,33.33,38s-.14,3.59-.18,4.73Z"/></g></g></svg>