<svg xmlns="http://www.w3.org/2000/svg" viewBox="0 0 54.05 63.75"><defs><style>.cls-1{fill:#fdc00f;}.cls-2{fill:#fff2cf;}.cls-3{fill:#16b6c6;}.cls-4{fill:#118995;}.cls-5{fill:#184f78;}.cls-6{fill:#d1dce4;}.cls-7{fill:#467293;}.cls-8{fill:#fc611f;}.cls-9{opacity:0.2;}.cls-10{fill:#fff;opacity:0.3;}</style></defs><title>Asset 3</title><g id="Layer_2" data-name="Layer 2"><g id="Layer_1-2" data-name="Layer 1"><rect class="cls-1" y="53.02" width="48.85" height="10.74"/><rect class="cls-2" x="5.03" y="53.02" width="10.13" height="10.74"/><rect class="cls-2" x="16.63" y="53.02" width="2.08" height="10.74"/><rect class="cls-3" x="5.2" y="42.28" width="48.85" height="10.74"/><rect class="cls-4" x="10.23" y="42.28" width="10.13" height="10.74"/><rect class="cls-4" x="21.82" y="42.28" width="2.08" height="10.74"/><rect class="cls-5" x="3.33" y="31.54" width="48.85" height="10.74"/><rect class="cls-6" x="8.37" y="31.54" width="10.13" height="10.74"/><rect class="cls-6" x="19.96" y="31.54" width="2.08" height="10.74"/><path class="cls-5" d="M35.63,6.66C32.8,9.15,28.08,9,28.08,9s-.15-4.17,2.68-6.66S38.31,0,38.31,0,38.45,4.17,35.63,6.66Z"/><path class="cls-7" d="M37.08,1.08s-.39.51-1.06,1.21-1.59,1.6-2.56,2.46-2,1.67-2.79,2.26-1.37.93-1.37.93.39-.51,1.06-1.21,1.59-1.6,2.56-2.46,2-1.67,2.79-2.25S37.08,1.08,37.08,1.08Z"/><path class="cls-8" d="M28.08,8.86c-11-2.83-16,4.41-14,12.29,1.59,6.2,7.14,11.81,14,10.08C34.91,33,40.45,27.34,42,21.14,44.07,13.27,39.05,6,28.08,8.86Z"/><polygon class="cls-9" points="0 53.02 48.85 53.02 48.85 55.38 0 53.02"/><polygon class="cls-9" points="5.2 42.28 54.05 42.28 54.05 44.65 5.2 42.28"/><path class="cls-10" d="M21.94,30.81c-.06-.62-.09-1.26-.09-1.9A21.84,21.84,0,0,1,35.69,8.6a15.32,15.32,0,0,0-7.61.26c-11-2.83-16,4.41-14,12.29C15.19,25.33,18.08,29.25,21.94,30.81Z"/></g></g></svg>