<svg xmlns="http://www.w3.org/2000/svg" viewBox="0 0 71.17 77.99"><defs><style>.cls-1{fill:#45c5d1;}.cls-2{fill:#fdc00f;}.cls-3{fill:#118995;}.cls-4{fill:#d0f0f4;}.cls-5{fill:#fff;opacity:0.3;}.cls-6{opacity:0.2;}</style></defs><title>Asset 7</title><g id="Layer_2" data-name="Layer 2"><g id="Layer_1-2" data-name="Layer 1"><path class="cls-1" d="M35.58,14.06A20.79,20.79,0,0,0,20.94,49.62c1.63,1.62,3.52,4.46,3.88,6.73l.72,4.53h20.1l.72-4.54c.36-2.27,2.25-5.11,3.88-6.73A20.79,20.79,0,0,0,35.58,14.06Z"/><path class="cls-2" d="M39.33,62.55a.83.83,0,0,1-.83-.83c0-.52.08-13,7.3-30.08a.83.83,0,1,1,1.53.65c-7.09,16.77-7.17,29.31-7.17,29.44a.83.83,0,0,1-.83.83Z"/><path class="cls-2" d="M31.86,62.55a.84.84,0,0,1-.83-.83c0-.12-.09-12.7-7.17-29.44a.83.83,0,1,1,1.53-.65c7.22,17.08,7.3,29.56,7.3,30.08A.83.83,0,0,1,31.86,62.55Z"/><path class="cls-2" d="M45.7,33.72a3.62,3.62,0,0,1-2.83-1.48,2.64,2.64,0,0,0-4.45,0,3.45,3.45,0,0,1-5.66,0,2.65,2.65,0,0,0-4.45,0,3.63,3.63,0,0,1-2.83,1.48.42.42,0,1,1,0-.83,2.83,2.83,0,0,0,2.23-1.21,3.46,3.46,0,0,1,5.66,0,2.65,2.65,0,0,0,4.45,0,3.45,3.45,0,0,1,5.66,0,2.83,2.83,0,0,0,2.22,1.21.42.42,0,1,1,0,.83Z"/><path class="cls-3" d="M41.48,76.12H29.7A4.17,4.17,0,0,1,25.54,72V60.89h20.1V72A4.17,4.17,0,0,1,41.48,76.12Z"/><path class="cls-4" d="M25.54,70V72a4.11,4.11,0,0,0,.17,1.12H45.47A4.15,4.15,0,0,0,45.64,72V70Z"/><rect class="cls-4" x="25.54" y="63.93" width="20.1" height="3.05"/><path class="cls-2" d="M35.59,78c2.06,0,3.74-.84,3.74-1.87H31.86C31.86,77.15,33.53,78,35.59,78Z"/><path class="cls-2" d="M35.59,7.45a1,1,0,0,1-1-1V1a1,1,0,0,1,2,0V6.45A1,1,0,0,1,35.59,7.45Z"/><path class="cls-2" d="M21,11.35a1,1,0,0,1-.87-.5L17.43,6.13a1,1,0,0,1,1.73-1l2.72,4.72a1,1,0,0,1-.87,1.5Z"/><path class="cls-2" d="M10.36,22a1,1,0,0,1-.5-.13L5.14,19.15a1,1,0,0,1,1-1.73l4.72,2.72a1,1,0,0,1-.5,1.87Z"/><path class="cls-2" d="M6.45,36.58H1a1,1,0,0,1,0-2H6.45a1,1,0,0,1,0,2Z"/><path class="cls-2" d="M5.63,53.87A1,1,0,0,1,5.13,52l4.72-2.72a1,1,0,0,1,1,1.73L6.13,53.74A1,1,0,0,1,5.63,53.87Z"/><path class="cls-2" d="M65.53,53.88a1,1,0,0,1-.5-.13L60.31,51a1,1,0,1,1,1-1.73L66,52a1,1,0,0,1-.5,1.87Z"/><path class="cls-2" d="M70.17,36.59H64.72a1,1,0,0,1,0-2h5.45a1,1,0,0,1,0,2Z"/><path class="cls-2" d="M60.82,22a1,1,0,0,1-.5-1.87L65,17.43a1,1,0,0,1,1,1.73l-4.72,2.72A1,1,0,0,1,60.82,22Z"/><path class="cls-2" d="M50.15,11.36a1,1,0,0,1-.87-1.5L52,5.14a1,1,0,1,1,1.73,1L51,10.86A1,1,0,0,1,50.15,11.36Z"/><ellipse class="cls-5" cx="26.92" cy="27.26" rx="10.6" ry="8.47" transform="translate(-11.39 27.02) rotate(-45)"/><ellipse class="cls-5" cx="36.73" cy="37.6" rx="3.97" ry="3.17" transform="translate(-15.83 36.98) rotate(-44.99)"/><path class="cls-6" d="M26.54,61.72h18.1a.93.93,0,0,0,1-.83H25.54S26,61.72,26.54,61.72Z"/><path class="cls-6" d="M32.27,77h6.65a1.2,1.2,0,0,0,.41-.83H31.86A1.2,1.2,0,0,0,32.27,77Z"/></g></g></svg>