<svg xmlns="http://www.w3.org/2000/svg" viewBox="0 0 57.77 45.88"><defs><style>.cls-1{fill:#d0f0f4;}.cls-2{fill:#118995;}.cls-3{fill:#16b6c6;}.cls-4,.cls-6{opacity:0.3;}.cls-5{fill:#fc611f;}.cls-6{fill:#fff;}</style></defs><title>Asset 4</title><g id="Layer_2" data-name="Layer 2"><g id="Layer_1-2" data-name="Layer 1"><rect class="cls-1" width="57.77" height="45.88"/><path class="cls-2" d="M54.77,3V42.88H3V3Zm3-3H0V45.88H57.77V0Z"/><rect class="cls-3" x="7.13" y="8.82" width="43.51" height="3"/><rect class="cls-3" x="10.86" y="16.88" width="36.05" height="1"/><rect class="cls-3" x="10.86" y="22.94" width="36.05" height="1"/><rect class="cls-3" x="10.86" y="28.99" width="36.05" height="1"/><rect class="cls-3" x="10.86" y="35.05" width="28.22" height="1"/><polygon class="cls-4" points="42.91 44.57 45.96 42.81 49.01 44.57 49.01 37.05 42.91 37.05 42.91 44.57"/><polygon class="cls-5" points="42.91 43.57 45.96 41.81 49.01 43.57 49.01 36.05 42.91 36.05 42.91 43.57"/><polygon class="cls-4" points="45.96 32.59 46.54 33.38 47.33 32.81 47.64 33.74 48.58 33.44 48.58 34.42 49.56 34.43 49.27 35.36 50.19 35.67 49.62 36.47 50.41 37.05 49.62 37.63 50.19 38.42 49.27 38.73 49.56 39.66 48.58 39.67 48.58 40.65 47.64 40.35 47.33 41.28 46.54 40.71 45.96 41.5 45.38 40.71 44.58 41.28 44.27 40.35 43.34 40.65 43.33 39.67 42.35 39.66 42.65 38.73 41.72 38.42 42.29 37.63 41.5 37.05 42.29 36.47 41.72 35.67 42.65 35.36 42.35 34.43 43.33 34.42 43.34 33.44 44.27 33.74 44.58 32.81 45.38 33.38 45.96 32.59"/><polygon class="cls-5" points="45.96 31.59 46.54 32.38 47.33 31.81 47.64 32.74 48.58 32.44 48.58 33.42 49.56 33.43 49.27 34.36 50.19 34.67 49.62 35.47 50.41 36.05 49.62 36.63 50.19 37.42 49.27 37.73 49.56 38.66 48.58 38.67 48.58 39.65 47.64 39.35 47.33 40.28 46.54 39.71 45.96 40.5 45.38 39.71 44.58 40.28 44.27 39.35 43.34 39.65 43.33 38.67 42.35 38.66 42.65 37.73 41.72 37.42 42.29 36.63 41.5 36.05 42.29 35.47 41.72 34.67 42.65 34.36 42.35 33.43 43.33 33.42 43.34 32.44 44.27 32.74 44.58 31.81 45.38 32.38 45.96 31.59"/><path class="cls-6" d="M57.77,0H0V45.88S10.86,7.41,57.77,0Z"/></g></g></svg>