<svg xmlns="http://www.w3.org/2000/svg" viewBox="0 0 57.34 79.11"><defs><style>.cls-1{fill:#b9eeff;}.cls-2{fill:#1078ff;}.cls-3{fill:#f4fcff;}</style></defs><title>Asset 3</title><g id="Layer_2" data-name="Layer 2"><g id="_102" data-name="102"><g id="_Group_" data-name="&lt;Group&gt;"><polygon class="cls-1" points="37.22 72.97 36.7 69.66 34.04 68.6 35.56 65.61 34.04 63.18 37.03 61.66 37.22 58.81 40.53 59.34 42.36 57.13 44.73 59.51 47.5 58.81 48.03 62.12 50.69 63.18 49.16 66.18 50.69 68.6 47.7 70.11 47.5 72.97 44.19 72.44 42.36 74.63 40 72.27 37.22 72.97"/><path class="cls-2" d="M42.36,75.28a.65.65,0,0,1-.46-.19L39.8,73l-2.42.61a.64.64,0,0,1-.52-.09.65.65,0,0,1-.28-.44l-.47-2.95L33.8,69.2a.65.65,0,0,1-.34-.9l1.36-2.66-1.33-2.12a.65.65,0,0,1,.26-.92l2.66-1.36.17-2.48a.65.65,0,0,1,.24-.46.65.65,0,0,1,.51-.13l2.94.48,1.59-1.93a.65.65,0,0,1,.47-.24.67.67,0,0,1,.49.19l2.11,2.12,2.41-.61a.65.65,0,0,1,.8.53l.47,2.95,2.31.93a.65.65,0,0,1,.34.9l-1.36,2.67,1.33,2.11a.65.65,0,0,1-.26.93l-2.66,1.35L48.15,73a.65.65,0,0,1-.75.6l-2.94-.48-1.6,1.91a.65.65,0,0,1-.47.23ZM40,71.62a.65.65,0,0,1,.46.19l1.86,1.86L43.69,72a.65.65,0,0,1,.6-.22l2.6.42L47,70.07a.65.65,0,0,1,.35-.54l2.35-1.19-1.14-1.82a.65.65,0,0,1,0-.64l1.2-2.36-2-.8a.65.65,0,0,1-.4-.5L47,59.61l-2.08.53a.65.65,0,0,1-.62-.17L42.4,58.09,41,59.76a.65.65,0,0,1-.61.23l-2.61-.42-.15,2.14a.65.65,0,0,1-.35.54L35,63.44l1.15,1.83a.65.65,0,0,1,0,.64l-1.2,2.35,2,.8a.65.65,0,0,1,.4.5l.42,2.61,2.08-.53Z"/><path class="cls-3" d="M36.7,69.66,37.22,73l2.77-.7,2.36,2.36,1.84-2.2L47.5,73l.2-2.86,3-1.51-1.52-2.42,1.52-3L48,62.12l-.53-3.31-2.77.7-2.37-2.38-1.83,2.22-3.31-.54L37,61.66l-3,1.52,1.52,2.43L34,68.6Zm-36,7.72V1.72A1.08,1.08,0,0,1,1.73.65H55.62a1.08,1.08,0,0,1,1.07,1.07V77.39a1.08,1.08,0,0,1-1.07,1.07H1.73A1.08,1.08,0,0,1,.65,77.39Z"/><path class="cls-2" d="M55.62,79.11H1.73A1.73,1.73,0,0,1,0,77.39V1.72A1.73,1.73,0,0,1,1.73,0H55.62a1.73,1.73,0,0,1,1.72,1.72V77.39A1.73,1.73,0,0,1,55.62,79.11ZM1.73,1.3a.43.43,0,0,0-.43.42V77.39a.43.43,0,0,0,.43.42H55.62a.44.44,0,0,0,.42-.42V1.72a.44.44,0,0,0-.42-.42Zm40.62,74a.65.65,0,0,1-.46-.19L39.8,73l-2.42.61a.64.64,0,0,1-.52-.09.65.65,0,0,1-.28-.44l-.47-2.95L33.8,69.2a.65.65,0,0,1-.34-.9l1.36-2.66-1.33-2.12a.65.65,0,0,1,.26-.92l2.66-1.36.17-2.48a.65.65,0,0,1,.24-.46.65.65,0,0,1,.51-.13l2.94.48,1.59-1.93a.65.65,0,0,1,.47-.24.67.67,0,0,1,.49.19l2.11,2.12,2.41-.61a.65.65,0,0,1,.8.53l.47,2.95,2.31.93a.65.65,0,0,1,.34.9l-1.36,2.67,1.33,2.11a.65.65,0,0,1-.26.93l-2.66,1.35L48.15,73a.65.65,0,0,1-.75.6l-2.94-.48-1.6,1.91a.65.65,0,0,1-.47.23ZM40,71.62a.65.65,0,0,1,.46.19l1.86,1.86L43.69,72a.65.65,0,0,1,.6-.22l2.6.42L47,70.07a.65.65,0,0,1,.35-.54l2.35-1.19-1.14-1.82a.65.65,0,0,1,0-.64l1.2-2.36-2-.8a.65.65,0,0,1-.4-.5L47,59.61l-2.08.53a.65.65,0,0,1-.62-.17L42.4,58.09,41,59.76a.65.65,0,0,1-.61.23l-2.61-.42-.15,2.14a.65.65,0,0,1-.35.54L35,63.44l1.15,1.83a.65.65,0,0,1,0,.64l-1.2,2.35,2,.8a.65.65,0,0,1,.4.5l.42,2.61,2.08-.53Z"/><path class="cls-2" d="M56.69,68.82a.65.65,0,0,1-.65-.65V54.86a.65.65,0,1,1,1.3,0V68.17A.65.65,0,0,1,56.69,68.82Z"/><path class="cls-2" d="M15.66,79.11H1.73A1.73,1.73,0,0,1,0,77.39V1.72A1.73,1.73,0,0,1,1.73,0H55.62a1.73,1.73,0,0,1,1.72,1.72V54.86a.65.65,0,1,1-1.3,0V1.72a.44.44,0,0,0-.42-.42H1.73a.43.43,0,0,0-.43.42V77.39a.43.43,0,0,0,.43.42H15.66a.65.65,0,0,1,0,1.3Z"/><path class="cls-2" d="M55.62,79.11h-40a.65.65,0,1,1,0-1.3h40a.44.44,0,0,0,.42-.42V68.17a.65.65,0,1,1,1.3,0v9.22A1.73,1.73,0,0,1,55.62,79.11Z"/><path class="cls-2" d="M45.75,11.82H40.88a.65.65,0,0,1,0-1.3h4.87a.65.65,0,1,1,0,1.3Z"/><path class="cls-2" d="M36.32,11.82H34a.65.65,0,0,1,0-1.3h2.31a.65.65,0,0,1,0,1.3Z"/><path class="cls-2" d="M28.59,11.82H12.36a.65.65,0,0,1,0-1.3H28.59a.65.65,0,0,1,0,1.3Z"/><path class="cls-2" d="M47.66,23.54H8.29a.65.65,0,0,1,0-1.3H47.66a.65.65,0,0,1,0,1.3Z"/><path class="cls-2" d="M51.08,33.32h-10a.65.65,0,0,1,0-1.3h10a.65.65,0,0,1,0,1.3Z"/><path class="cls-2" d="M36.37,33.32H8.29a.65.65,0,0,1,0-1.3H36.37a.65.65,0,0,1,0,1.3Z"/><path class="cls-2" d="M51.08,43.11H20.85a.65.65,0,0,1,0-1.3H51.08a.65.65,0,0,1,0,1.3Z"/><path class="cls-2" d="M15.52,43.11H8.29a.65.65,0,0,1,0-1.3h7.23a.65.65,0,0,1,0,1.3Z"/><path class="cls-2" d="M51.08,52.91H32.39a.65.65,0,0,1,0-1.3h18.7a.65.65,0,0,1,0,1.3Z"/><path class="cls-2" d="M27.31,52.91h-19a.65.65,0,0,1,0-1.3h19a.65.65,0,0,1,0,1.3Z"/><path class="cls-2" d="M20.52,65.29H5.42a.65.65,0,0,1,0-1.3H20.52a.65.65,0,0,1,0,1.3Z"/><path class="cls-2" d="M42.36,75.28a.65.65,0,0,1-.46-.19L39.8,73l-2.42.61a.64.64,0,0,1-.52-.09.65.65,0,0,1-.28-.44l-.47-2.95L33.8,69.2a.65.65,0,0,1-.34-.9l1.36-2.66-1.33-2.12a.65.65,0,0,1,.26-.92l2.66-1.36.17-2.48a.65.65,0,0,1,.24-.46.65.65,0,0,1,.51-.13l2.94.48,1.59-1.93a.65.65,0,0,1,.47-.24.67.67,0,0,1,.49.19l2.11,2.12,2.41-.61a.65.65,0,0,1,.8.53l.47,2.95,2.31.93a.65.65,0,0,1,.34.9l-1.36,2.67,1.33,2.11a.65.65,0,0,1-.26.93l-2.66,1.35L48.15,73a.65.65,0,0,1-.75.6l-2.94-.48-1.6,1.91a.65.65,0,0,1-.47.23ZM40,71.62a.65.65,0,0,1,.46.19l1.86,1.86L43.69,72a.65.65,0,0,1,.6-.22l2.6.42L47,70.07a.65.65,0,0,1,.35-.54l2.35-1.19-1.14-1.82a.65.65,0,0,1,0-.64l1.2-2.36-2-.8a.65.65,0,0,1-.4-.5L47,59.61l-2.08.53a.65.65,0,0,1-.62-.17L42.4,58.09,41,59.76a.65.65,0,0,1-.61.23l-2.61-.42-.15,2.14a.65.65,0,0,1-.35.54L35,63.44l1.15,1.83a.65.65,0,0,1,0,.64l-1.2,2.35,2,.8a.65.65,0,0,1,.4.5l.42,2.61,2.08-.53Z"/></g></g></g></svg>