<svg xmlns="http://www.w3.org/2000/svg" viewBox="0 0 79.11 55.22"><defs><style>.cls-1{fill:#50d5ff;}.cls-2{fill:#1078ff;}.cls-3{fill:#a9eaff;}.cls-4{fill:#5cd8ff;}</style></defs><title>Asset 2</title><g id="Layer_2" data-name="Layer 2"><g id="_102" data-name="102"><g id="_Group_" data-name="&lt;Group&gt;"><circle class="cls-1" cx="39.55" cy="18.76" r="3.36"/><path class="cls-2" d="M39.55,22.77a4,4,0,1,1,4-4A4,4,0,0,1,39.55,22.77Zm0-6.72a2.71,2.71,0,1,0,2.71,2.71A2.71,2.71,0,0,0,39.55,16.05Z"/><path class="cls-3" d="M63.47,48c-14.4,8.42-30,9.17-47,0V26.1L39.55,36.86,63.46,25.73V48Z"/><path class="cls-2" d="M40.46,55.22c-7.89,0-16.08-2.25-24.33-6.67a.65.65,0,0,1-.34-.57V26.1a.65.65,0,0,1,.92-.59L39.55,36.14l23.64-11a.65.65,0,0,1,.87.34.74.74,0,0,1,.06.27V48a.65.65,0,0,1-.32.56A46,46,0,0,1,40.46,55.22ZM17.09,47.58c7.94,4.2,15.8,6.34,23.37,6.34A44.55,44.55,0,0,0,62.82,47.6V26.75l-23,10.7a.64.64,0,0,1-.55,0L17.09,27.12Z"/><path class="cls-4" d="M42.91,18.76a3.36,3.36,0,1,0-3.36,3.36A3.36,3.36,0,0,0,42.91,18.76ZM71.56,22l-8.09,3.76L39.55,36.86,16.44,26.1.65,18.76,39.55.65,78.46,18.76Z"/><path class="cls-2" d="M39.55,37.51a.64.64,0,0,1-.27-.06L.38,19.35a.65.65,0,0,1,0-1.18L39.28.06a.64.64,0,0,1,.55,0L78.73,18.17a.65.65,0,0,1,0,1.18L39.83,37.45A.64.64,0,0,1,39.55,37.51ZM2.19,18.76,39.55,36.14,76.92,18.76,39.55,1.37Zm37.36,4a4,4,0,1,1,4-4A4,4,0,0,1,39.55,22.77Zm0-6.72a2.71,2.71,0,1,0,2.71,2.71A2.71,2.71,0,0,0,39.55,16.05Z"/><path class="cls-2" d="M40.45,55.18c-8,0-16.09-2.21-24.33-6.63a.65.65,0,0,1-.34-.57V26.1a.65.65,0,1,1,1.3,0V47.58c16,8.49,31,8.5,45.74,0V25.75a.65.65,0,0,1,1.3,0V48a.65.65,0,0,1-.32.56A45.78,45.78,0,0,1,40.45,55.18Z"/><path class="cls-2" d="M39.55,37.51a.64.64,0,0,1-.27-.06L.38,19.35a.65.65,0,0,1,0-1.18L39.28.06a.64.64,0,0,1,.55,0L78.73,18.17a.65.65,0,0,1,0,1.18L39.83,37.45A.64.64,0,0,1,39.55,37.51ZM2.19,18.76,39.55,36.14,76.92,18.76,39.55,1.37Z"/><path class="cls-2" d="M71.56,22.62h-.07L42.84,19.41A.65.65,0,1,1,43,18.11l28.64,3.21a.65.65,0,0,1-.07,1.3Z"/><path class="cls-2" d="M71.56,41a.65.65,0,0,1-.65-.65V22a.65.65,0,0,1,1.3,0V40.32A.65.65,0,0,1,71.56,41Z"/><path class="cls-2" d="M39.55,22.77a4,4,0,1,1,4-4A4,4,0,0,1,39.55,22.77Zm0-6.72a2.71,2.71,0,1,0,2.71,2.71A2.71,2.71,0,0,0,39.55,16.05Z"/><path class="cls-2" d="M71.63,46.13a3.1,3.1,0,1,1,3.1-3.1A3.11,3.11,0,0,1,71.63,46.13Zm0-4.9a1.8,1.8,0,1,0,1.8,1.8A1.8,1.8,0,0,0,71.63,41.23Z"/><path class="cls-2" d="M71.65,51a.65.65,0,0,1-.65-.64l0-3.13a.65.65,0,0,1,.64-.66h0a.65.65,0,0,1,.65.64l0,3.13a.65.65,0,0,1-.64.66Z"/><path class="cls-2" d="M76.81,48.82a.65.65,0,0,1-.46-.19l-2.23-2.19a.65.65,0,1,1,.91-.93l2.23,2.19a.65.65,0,0,1-.46,1.11Z"/><path class="cls-2" d="M66.44,48.93a.65.65,0,0,1-.46-1.1l2.18-2.23a.65.65,0,0,1,.93.91l-2.18,2.23A.65.65,0,0,1,66.44,48.93Z"/><path class="cls-2" d="M31,49l-.15,0a57.73,57.73,0,0,1-13.92-5.42.65.65,0,0,1,.62-1.14,56.35,56.35,0,0,0,13.6,5.3A.65.65,0,0,1,31,49Z"/><path class="cls-2" d="M39.34,50.18h0a36.4,36.4,0,0,1-4.48-.44.65.65,0,0,1,.2-1.28,35.32,35.32,0,0,0,4.32.42.65.65,0,0,1,0,1.3Z"/></g></g></g></svg>