<svg xmlns="http://www.w3.org/2000/svg" viewBox="0 0 79.11 52.52"><defs><style>.cls-1{fill:#b9eeff;}.cls-2{fill:#1078ff;}.cls-3{fill:#50d5ff;}.cls-4{fill:#5cd8ff;}</style></defs><title>Asset 1</title><g id="Layer_2" data-name="Layer 2"><g id="_102" data-name="102"><g id="_Group_" data-name="&lt;Group&gt;"><path class="cls-1" d="M68.78,26.59l-3.41,2.47a.62.62,0,0,0-.22.68l1.31,4-3.41-2.47a.62.62,0,0,0-.72,0l-3.41,2.47,1.31-4a.62.62,0,0,0-.22-.68L56.6,26.59h4.21a.62.62,0,0,0,.59-.43l1.3-4,1.31,4a.61.61,0,0,0,.58.43Z"/><path class="cls-2" d="M66.48,34.4h0a.65.65,0,0,1-.38-.12L62.67,31.8l-3.37,2.47a.65.65,0,0,1-1-.73l1.31-4-3.4-2.42a.65.65,0,0,1,.38-1.18h4.21l1.27-4a.65.65,0,0,1,.62-.45h0a.65.65,0,0,1,.62.45l1.31,4,4.17,0a.65.65,0,0,1,.38,1.18l-3.41,2.47L67,33.4a.65.65,0,0,1-.55,1ZM58.6,27.24l1.78,1.29a1.27,1.27,0,0,1,.46,1.4L60.16,32,62,30.75a1.29,1.29,0,0,1,1.48,0L65.22,32l-.69-2.1A1.27,1.27,0,0,1,65,28.53l1.79-1.29h-2.2a1.25,1.25,0,0,1-1.2-.89l-.68-2.09L62,26.36a1.27,1.27,0,0,1-1.2.88Z"/><path class="cls-3" d="M74,45.26c.32.8-.09,1.34-.65.84L69,42.64l-.87,4.95c-.08.68-.8.46-1.14-.33l-3.83-9v-.06a9.78,9.78,0,0,0,6.69-3.12l.08.08Z"/><path class="cls-2" d="M67.81,48.65a1.67,1.67,0,0,1-1.39-1.13l-3.83-9a.64.64,0,0,1-.05-.26.71.71,0,0,1,.62-.71,9.09,9.09,0,0,0,6.24-2.92.65.65,0,0,1,.47-.21.68.68,0,0,1,.47.19l.08.08a.65.65,0,0,1,.14.21L74.63,45a1.6,1.6,0,0,1,0,1.5,1,1,0,0,1-.8.43,1.26,1.26,0,0,1-.84-.36l-3.46-2.75L68.8,47.7A1,1,0,0,1,67.81,48.65Zm-3.7-9.83L67.61,47l.78-4.46a.65.65,0,0,1,1-.4l3.88,3.08-3.64-9A10.35,10.35,0,0,1,64.11,38.81Z"/><path class="cls-1" d="M78.46,4V48.53a3.5,3.5,0,0,1-3.64,3.34H4.29A3.51,3.51,0,0,1,.65,48.53V4A3.51,3.51,0,0,1,4.29.65H74.82A3.51,3.51,0,0,1,78.46,4ZM73.37,46.1c.57.5,1,0,.65-.84L70,35.2l-.08-.08A9.82,9.82,0,1,0,56.44,36l-.47.22-3.63,9c-.31.8.09,1.34.65.84l4.35-3.45.87,4.95c.07.68.79.46,1.14-.33l3.83-9,3.83,9c.34.79,1.07,1,1.14.33L69,42.64Z"/><path class="cls-2" d="M74.82,52.52H4.29a4.15,4.15,0,0,1-4.29-4V4A4.15,4.15,0,0,1,4.29,0H74.82a4.15,4.15,0,0,1,4.29,4V48.53A4.15,4.15,0,0,1,74.82,52.52ZM4.29,1.3A2.86,2.86,0,0,0,1.3,4V48.53a2.86,2.86,0,0,0,3,2.69H74.82a2.86,2.86,0,0,0,3-2.69V4a2.86,2.86,0,0,0-3-2.69ZM67.81,48.65a1.67,1.67,0,0,1-1.39-1.13L63.19,40,60,47.51a1.69,1.69,0,0,1-1.4,1.13,1,1,0,0,1-1-1l-.67-3.83L53.4,46.6a1.23,1.23,0,0,1-.81.33,1,1,0,0,1-.8-.43A1.61,1.61,0,0,1,51.74,45l3.63-9,0,0a10.47,10.47,0,1,1,15.27-.73l4,9.79a1.6,1.6,0,0,1,0,1.5,1,1,0,0,1-.8.43h0a1.26,1.26,0,0,1-.84-.36l-3.46-2.75L68.8,47.7A1,1,0,0,1,67.81,48.65Zm-4.62-11h0a.65.65,0,0,1,.6.39L67.61,47l.78-4.46a.65.65,0,0,1,1-.4l3.88,3.08L69.4,35.57a.65.65,0,0,1,0-.89,9.17,9.17,0,1,0-12.54.83.65.65,0,0,1-.13,1.09l-.24.12L53,45.28l3.91-3.15a.65.65,0,0,1,1,.4L58.78,47l3.82-8.93A.65.65,0,0,1,63.19,37.66Z"/><path class="cls-4" d="M62.69,18.6a9.83,9.83,0,0,1,.5,19.64h-.5a9.83,9.83,0,0,1,0-19.65Zm2.68,10.46,3.41-2.47H64.58a.61.61,0,0,1-.58-.43l-1.31-4-1.3,4a.62.62,0,0,1-.59.43H56.6L60,29.06a.62.62,0,0,1,.22.68l-1.31,4,3.41-2.47a.62.62,0,0,1,.72,0l3.41,2.47-1.31-4A.62.62,0,0,1,65.38,29.06Z"/><path class="cls-2" d="M62.69,38.91a10.48,10.48,0,1,1,7.66-3.34,10.38,10.38,0,0,1-7.13,3.33Zm0-19.65a9.18,9.18,0,1,0,0,18.35h.42a9.18,9.18,0,0,0-.46-18.34ZM66.46,34.4a.65.65,0,0,1-.38-.12l-3.39-2.46-3.39,2.46a.65.65,0,0,1-1-.73l1.31-4-3.4-2.42a.65.65,0,0,1,.38-1.18h4.21l1.27-4a.65.65,0,0,1,.62-.45h0a.65.65,0,0,1,.62.45l1.31,4,4.17,0a.65.65,0,0,1,.38,1.18l-3.41,2.47,1.32,4a.65.65,0,0,1-.62.85ZM58.6,27.24l1.78,1.29a1.27,1.27,0,0,1,.46,1.4L60.16,32,62,30.75a1.29,1.29,0,0,1,1.48,0L65.22,32l-.69-2.1A1.27,1.27,0,0,1,65,28.53l1.79-1.29h-2.2a1.25,1.25,0,0,1-1.2-.89l-.68-2.09L62,26.36a1.27,1.27,0,0,1-1.2.88Z"/><path class="cls-3" d="M63.19,38.25v.06l-3.83,9c-.35.79-1.07,1-1.14.33l-.87-4.95L53,46.1c-.57.5-1,0-.65-.84l3.63-9,.47-.22a9.82,9.82,0,0,0,6.25,2.25Z"/><path class="cls-2" d="M58.56,48.65a1,1,0,0,1-1-1l-.67-3.83L53.4,46.6a1.23,1.23,0,0,1-.81.33,1,1,0,0,1-.8-.43A1.61,1.61,0,0,1,51.74,45l3.63-9a.65.65,0,0,1,.32-.34l.47-.22a.65.65,0,0,1,.69.08,9.22,9.22,0,0,0,5.87,2.1h.42a.65.65,0,0,1,.69.65,1,1,0,0,1-.05.32l-3.83,9A1.69,1.69,0,0,1,58.56,48.65ZM57.35,42a.65.65,0,0,1,.64.54L58.78,47l3.46-8.08a10.52,10.52,0,0,1-5.79-2.07L53,45.28l3.91-3.15A.65.65,0,0,1,57.35,42Z"/><path class="cls-2" d="M67.81,48.65a1.66,1.66,0,0,1-1.39-1.13l-3.83-9a.65.65,0,1,1,1.2-.51L67.61,47l.78-4.46a.65.65,0,0,1,1-.4l3.88,3.08-4-9.77a.65.65,0,1,1,1.2-.49L74.63,45a1.42,1.42,0,0,1-.29,1.75,1.09,1.09,0,0,1-1.39-.18l-3.46-2.75L68.8,47.7a1,1,0,0,1-.84.93Z"/><path class="cls-2" d="M62.69,38.91a10.48,10.48,0,1,1,7.66-3.34,10.38,10.38,0,0,1-7.13,3.33Zm0-19.65a9.18,9.18,0,1,0,0,18.35h.42a9.18,9.18,0,0,0-.46-18.34Z"/><path class="cls-2" d="M66.48,34.4h0a.65.65,0,0,1-.38-.12L62.67,31.8l-3.37,2.47a.65.65,0,0,1-1-.73l1.31-4-3.4-2.42a.65.65,0,0,1,.38-1.18h4.21l1.27-4a.65.65,0,0,1,.62-.45h0a.65.65,0,0,1,.62.45l1.31,4,4.17,0a.65.65,0,0,1,.38,1.18l-3.41,2.47L67,33.4a.65.65,0,0,1-.55,1ZM58.6,27.24l1.78,1.29a1.27,1.27,0,0,1,.46,1.4L60.16,32,62,30.75a1.29,1.29,0,0,1,1.48,0L65.22,32l-.69-2.1A1.27,1.27,0,0,1,65,28.53l1.79-1.29h-2.2a1.25,1.25,0,0,1-1.2-.89l-.68-2.09L62,26.36a1.27,1.27,0,0,1-1.2.88Z"/><path class="cls-2" d="M74.82,52.52H4.29a4.15,4.15,0,0,1-4.29-4V4A4.15,4.15,0,0,1,4.29,0H74.82a4.15,4.15,0,0,1,4.29,4V48.53A4.15,4.15,0,0,1,74.82,52.52ZM4.29,1.3A2.86,2.86,0,0,0,1.3,4V48.53a2.86,2.86,0,0,0,3,2.69H74.82a2.86,2.86,0,0,0,3-2.69V4a2.86,2.86,0,0,0-3-2.69Z"/><path class="cls-2" d="M58.56,48.65H58.4a1,1,0,0,1-.83-1l-.67-3.83L53.4,46.6a1.07,1.07,0,0,1-1.36.16,1.43,1.43,0,0,1-.3-1.75l3.63-9a.65.65,0,0,1,1.21.49l-3.52,8.74,3.89-3.08a.65.65,0,0,1,1,.4L58.78,47l3.82-8.93a.65.65,0,1,1,1.2.51l-3.83,9A1.68,1.68,0,0,1,58.56,48.65Z"/><path class="cls-2" d="M69.2,12.43H59.89a.65.65,0,0,1,0-1.3H69.2a.65.65,0,0,1,0,1.3Z"/><path class="cls-2" d="M51.2,12.43H46.77a.65.65,0,0,1,0-1.3H51.2a.65.65,0,0,1,0,1.3Z"/><path class="cls-2" d="M36.43,12.43H5.4a.65.65,0,1,1,0-1.3h31a.65.65,0,0,1,0,1.3Z"/><path class="cls-2" d="M42.37,21.26H8.06a.65.65,0,0,1,0-1.3H42.37a.65.65,0,0,1,0,1.3Z"/><path class="cls-2" d="M45.35,28.65H36.63a.65.65,0,0,1,0-1.3h8.73a.65.65,0,0,1,0,1.3Z"/><path class="cls-2" d="M32.54,28.65H8.06a.65.65,0,0,1,0-1.3H32.54a.65.65,0,0,1,0,1.3Z"/><path class="cls-2" d="M45.35,36H19a.65.65,0,0,1,0-1.3H45.35a.65.65,0,0,1,0,1.3Z"/><path class="cls-2" d="M14.37,36H8.06a.65.65,0,0,1,0-1.3h6.31a.65.65,0,1,1,0,1.3Z"/><path class="cls-2" d="M45.35,43.41H29.06a.65.65,0,0,1,0-1.3H45.35a.65.65,0,0,1,0,1.3Z"/><path class="cls-2" d="M24.64,43.41H8.06a.65.65,0,0,1,0-1.3H24.64a.65.65,0,1,1,0,1.3Z"/></g></g></g></svg>