<svg xmlns="http://www.w3.org/2000/svg" viewBox="0 0 53.62 60.72"><defs><style>.cls-1{fill:#fdc00f;}.cls-2{fill:#16b6c6;}.cls-3{fill:#fff;opacity:0.3;}</style></defs><title>Asset 6</title><g id="Layer_2" data-name="Layer 2"><g id="Layer_1-2" data-name="Layer 1"><path class="cls-1" d="M26.81,60.72c-6.31,0-9.72-15.64-9.72-30.36S20.5,0,26.81,0s9.72,15.64,9.72,30.36S33.13,60.72,26.81,60.72ZM26.81,2c-3.65,0-7.72,11.65-7.72,28.36s4.07,28.36,7.72,28.36,7.72-11.65,7.72-28.36S30.46,2,26.81,2Z"/><path class="cls-1" d="M47.44,47.88c-6,0-15.78-3.48-25.49-9.09A77.13,77.13,0,0,1,5,26C.65,21.39-.91,17.65.52,15.18c.89-1.55,2.8-2.33,5.66-2.33,6,0,15.78,3.48,25.49,9.1A77.11,77.11,0,0,1,48.6,34.72c4.37,4.61,5.93,8.36,4.51,10.83C52.21,47.09,50.31,47.88,47.44,47.88Zm-41.27-33c-1.44,0-3.29.23-3.93,1.33-.9,1.55.68,4.71,4.22,8.45A75.1,75.1,0,0,0,23,37c9.43,5.44,18.82,8.83,24.49,8.83,1.44,0,3.29-.23,3.93-1.33.9-1.55-.68-4.71-4.22-8.45A75.08,75.08,0,0,0,30.67,23.68C21.24,18.23,11.85,14.85,6.18,14.85Z"/><path class="cls-1" d="M6.18,47.88c-2.86,0-4.77-.78-5.66-2.33C-2.64,40.07,9.2,29.3,22,21.94c9.72-5.61,19.49-9.1,25.49-9.1,2.86,0,4.77.78,5.66,2.33C54.53,17.65,53,21.4,48.6,26A77.12,77.12,0,0,1,31.67,38.78C22,44.39,12.18,47.88,6.18,47.88Zm41.27-33c-5.68,0-15.06,3.38-24.49,8.83C8.48,32,.42,41.38,2.25,44.55c.64,1.1,2.49,1.33,3.93,1.33,5.68,0,15.06-3.38,24.5-8.83A75.07,75.07,0,0,0,47.15,24.63c3.54-3.74,5.12-6.9,4.22-8.45C50.74,15.08,48.89,14.85,47.45,14.85Z"/><circle class="cls-2" cx="26.81" cy="30.36" r="6.29"/><circle class="cls-3" cx="25.73" cy="29.41" r="4.08"/><circle class="cls-2" cx="8" cy="13.95" r="2.95"/><circle class="cls-2" cx="19.6" cy="46.88" r="2.95"/><circle class="cls-2" cx="38.74" cy="15.46" r="2.95"/><circle class="cls-3" cx="38.27" cy="14.89" r="2.01"/><circle class="cls-3" cx="7.59" cy="13.45" r="2.01"/><circle class="cls-3" cx="19.03" cy="46.47" r="2.01"/></g></g></svg>