<svg xmlns="http://www.w3.org/2000/svg" viewBox="0 0 45.62 56.44"><defs><style>.cls-1{fill:#bd4917;}.cls-2{fill:#fc611f;}.cls-3{fill:#16b6c6;}.cls-4{fill:#184f78;}.cls-5{fill:#fff;}.cls-5,.cls-6{opacity:0.3;}</style></defs><title>Asset 1</title><g id="Layer_2" data-name="Layer 2"><g id="Layer_1-2" data-name="Layer 1"><path class="cls-1" d="M41.33,38.53l-1.39-1.39A22.25,22.25,0,0,1,8.48,5.67L7.09,4.29A24.21,24.21,0,0,0,21.76,45.5v7.17h4.9V45.5A24,24,0,0,0,41.33,38.53Z"/><path class="cls-1" d="M31.15,52.67H17.28a3.77,3.77,0,0,0-3.77,3.77H34.92A3.77,3.77,0,0,0,31.15,52.67Z"/><path class="cls-2" d="M28.87,50.13H19.55A2.53,2.53,0,0,0,17,52.67H31.41A2.53,2.53,0,0,0,28.87,50.13Z"/><path class="cls-2" d="M43.08,37.74a2.52,2.52,0,0,0-.92.18L7.71,3.46a2.51,2.51,0,0,0,.18-.92A2.56,2.56,0,1,0,6.27,4.9L40.72,39.35a2.54,2.54,0,1,0,2.36-1.62Z"/><circle class="cls-3" cx="24.21" cy="21.41" r="20.6" transform="translate(-8.05 23.39) rotate(-45)"/><path class="cls-4" d="M12.8,9.34h0s0,0,.05,0h0v0h0Z"/><path class="cls-4" d="M13,9.67h0l0,0V9.63l0,0h0Z"/><path class="cls-4" d="M12.1,10.18h0l0,0h0s0,0,0,0v0h0s0,0,0-.09h0l0,0h0v0a.32.32,0,0,1,0,.06v0h0v0h0l0,0,.06,0h.1l0,0,0,0h0c.05,0,.06,0,.09,0h0v0l0,0,0,0h0v0h0v0l0,0h0v0l0,0h0V9.73h.14l0,0h0v0l0,0h0s0-.05,0-.08h0v0h0v0h0l0,0h0V9.53s0,0-.06,0h0l0,0H12.7v.06h0l0,0,0,0H12.5v0h0V9.54h.07v0h0s0,0,0,0l0,0h0v0h0s0,0,0-.06,0-.06,0-.09v0h-.09s0,0-.08.06,0,0-.08,0h0v0h0l0,0h0v.07h0s0,0-.07,0h0s0,0,0,.06l0,0h-.06v0l0,0h.16v0H12.3s0,0,0,0h-.11v.07l0,0h0v0h-.12v.09h0v0l0,0H12l0,0,0,0h0v0h0v0h0v0l0,0,0,0,0,0h0s0,0,.06,0l0,0H12v0s0,0,.06,0Zm.32-.54h0v0h0s0,0,0,0h0Z"/><path class="cls-4" d="M14.86,16.4l0,0h0v-.11l0-.08,0,0,0,0v0L14.75,16h0l-.1,0,0,0h0v0l0-.07h0l-.07,0h0l0,0,0,0h0l0,0v-.05h-.05c-.11,0-.11,0-.18,0L14,15.78l0,0,0,0,0,0h0l-.08,0h-.08l0,0,0,0h0v0s0,0,0-.15v-.14l0,0,0,0c-.12-.11-.17.15-.27.2l0,0v-.06h0v-.14h0l0,0h0l0,0V15h0v0h0v0l0-.07h-.08v0h0v0h0l0,0v0l0,0h0v.12h0l0,0h0v0h0l0,.09v.06h0v0l0,0v0h0v.05l0,.08h-.08v.07l0,0h.1V16l0,.05h0v-.21h0v-.05h0v.14h0l0,0,0,0V16h0v0s0-.09,0-.13v0h0a.36.36,0,0,1,0,.12v.08h0v0l0,.05h0l0-.06h0V16h0l0,.12v0h0l0,0a.1.1,0,0,0,0,0h0v-.13h0V16l0,.05v.08h0v.08l0,0h0l0,0h0v0l0,0h0v-.07h0v0h0v0l0,.07v0h0l0,0,0,0,0,0,0,0h0v.11s0,0,.08.11h0l0,0c0,.05,0,.05-.1.09h-.05l0,.07v.07h0l0,0v.08h0s0,0,.05.09h0v-.09l0,0v.17h0l0,0v.14l0,0h.08l0-.08h0c.06.06.07.05.09,0h0l0,0v-.06l0,0h0v0c0,.1,0,.1-.11.18l0,0v.37h0v.09l0,0h0s0,0,.09,0v0h0v-.12l0,0v0h.09l.07,0v-.2h0v-.07h0l0,0h0l0-.12v0l0,0h.05l0,0,0,0h0l0,0h0l0,0,0,0,0,0,0,0h0l0-.06v-.09h0v-.05h0v0h-.06l-.08,0v-.07Z"/><path class="cls-4" d="M15.19,8V8h0v0h0l.06,0,0,0h0v0h0v0h0l0,0h0l0,.05h.06l0,0h0l0,0h0l0,0,.08,0h.06l0,0V8.24h0v0h0l.06,0h0l0,0h0l.06,0h0l0,0H16l0,0V8h0s0,0,.05-.05h.05v0l0,0h0s-.08,0-.11,0h-.41l0,0h0v0l0,0h0v0h0v0l0,0,0,0h0l0,0,0,0,0,0h0v0h0v0h0l0,0h0v0h0v0h0V7.36h0v0h0V7.22l0,0v0s0,0,0,0l0,0v0l0,0,0,0h0l0,0h-.08l0,0h-.07v0h0v.14h0v0l0,0v0H15v0h0v0h0l0,0,0,0h0v0h0v0h0l0,0h.09l0,0h0l0,0V8h0Z"/><polygon class="cls-4" points="12.96 10.23 12.96 10.26 12.96 10.26 12.98 10.31 13.01 10.32 13.02 10.32 13.02 10.32 13.02 10.32 13.02 10.28 13.02 10.27 12.99 10.23 12.98 10.22 12.96 10.22 12.96 10.23"/><path class="cls-4" d="M8.46,12.38v.06s0,.05-.07,0h0v.1h0v0l0,0a1.29,1.29,0,0,0-.22.33l.1,0v.05l0,.06L8.11,13v0l0,0s0,0-.2.17h0a.18.18,0,0,0-.05.08h0l0,0v0l0,0,0,0,0,.07v0l0,.06v0h.07v0H7.69v.08h0v.11l0,0v0l0,0v0h0v0h0v0h.05l0,0v0h0l0,0h0l0,0,0-.06v.09h0l0,0v0l0-.06v0h0v0H8l0-.06,0,0v0h0l0,0h0v0h0v0l0,0h0l0,0h0v.09h0V14h0v0l0,0,0,0h0a.24.24,0,0,0,0,.07l0,0a.22.22,0,0,0,0,.13l0,0h0v0c0,.11,0,.12,0,.14l0,0,0-.08v.1a.21.21,0,0,1,0,.07l0,0v.07s0,0,0,0l0-.08h0v.18h0l0,.06h0v.07h.09v0l0,0v-.14h0v.11h0v0h0v.07h.05v0h0v.08h0v0H8.28v0l0-.05h0v0h0V15h0a.32.32,0,0,0,0,.07h0v0l0,0H8.18v.14h0v.12s0,0,.07.11h0l.06-.11h0l0,0,0,0v0h0v0H8.32v0h0l0,0h0l0,0h0v0h0v.36h0v.06H8.26v.07c0,.17,0,.17-.05.18v.06h0l0,.06V16h0v.19h.07l0,0v0h0v.18h0v.13h0v0h0v.07h0v0h0v.3h0l0,0v0h0a.24.24,0,0,0,0,.11h0v.11h0v0h0v.14l0,0h0v.07h0v.09h0l0,.08h0v0l0,.08v.08l0,0v-.06h0v0l0,0v-.09h0l0,0h.05v0l0,.06v.07h.08v0h0v0l0,0H9v0l0-.07a.42.42,0,0,0,0-.18V17.6l0-.07V17a2,2,0,0,1,.12-.46,1.57,1.57,0,0,0,0-.22s0-.06,0-.21h.06V16l0-.08v-.07h0l0,0,0,0h.05v0h0v0a.24.24,0,0,0,0-.1c0-.06,0-.06.06-.09h0l0,0,0-.07v0h0l0,0h0a.32.32,0,0,0,0-.16,1.18,1.18,0,0,1,0-.14l0-.05h0v-.08a.25.25,0,0,1,.06-.15h0l0-.05,0,0,0,0v0h0l0,0v.06h0l0,0,0,0,.07-.08h0l0,0a.91.91,0,0,1,.19-.24l0,0h0a.5.5,0,0,0,0-.1l0-.11c0-.09.15-.35.15-.35l0-.06v0h0l0,0h0a.21.21,0,0,0-.11,0h-.08l-.06.09h0a.5.5,0,0,1,.08-.13h0a.14.14,0,0,0,0-.1h0v-.08h0l0,0v0h0l0,.05h.09v-.07h.09v0c0-.05,0-.1,0-.15s-.05-.1-.1-.13-.17,0-.19-.08v-.05l0,0h0v0h0l0,0,0,0v0l0,0h0l0,0a.09.09,0,0,0,0,.1l0,0h.15a.4.4,0,0,0,0-.21v0h-.12v0h.1v0h0v0h0l0,0h0v-.12h0a.24.24,0,0,0,.1-.22H10.5v0h0v0a.16.16,0,0,0,0-.09v0a.28.28,0,0,0,0-.08v-.05h0l0,0h0V12l0,0,0,0,0,0h0l0,0v0l0,.06h0c0-.05,0-.07,0-.14h0l0,0V11.8l0,0h0l0,0v0h-.06l.07,0h0v0h-.11v0h0v0h0v0h0v0a.37.37,0,0,0,0-.14v0h0l0,0v-.08h0v0h0l0,0h0l0,0h0a.12.12,0,0,1,0-.05h0l0,0h0l0,0h0v-.08h0v0h0v0h0v0h0v0h0v0h0v0h0v0h0v0h0l0,0v-.11h-.06l0,0,0,0h0c-.1.07-.1.07-.13.12V11h0l0-.06h0v0h0v0h0l0,0h0l0,0h0v0l0,0h0l0,0v0h0v0h0v-.06h0l0,0h0l0,0h0l0,.06,0,0h0v0h0l0,0v0h0v0h0l0,0v0h0a.16.16,0,0,0,0-.07v0h-.05l0,0H10L10,11,9.9,11h0l-.08.05a.19.19,0,0,0,0,.08v0h0l0,0a.08.08,0,0,1,0,0h0v0l0,0h0v-.07h0l0,0h0l0,0-.07.08,0,0H9.51l0,0h0a.16.16,0,0,0,0,.06h0v0h0v.07h0v0h0l0,0h0l0,.06h0l0,0h0l0,.06v0l0,0h0v0h0v0a.17.17,0,0,0,0,.08h0l0,0h0v0H9v0H9v0H9l0,0h0V12l0,0,0,0h0v0h0v0h0l0,0h0l0,.06v.11h0V12a.14.14,0,0,0-.08,0,.25.25,0,0,1-.1.08s-.08.09-.12.13A.11.11,0,0,0,8.46,12.38Zm-.65,1.23h0Z"/><path class="cls-4" d="M16,8.75h.14v0l0,0v0h0l0,0h0l-.07,0h-.06l0,0h0v0l0,0h0l0,0h0Z"/><path class="cls-4" d="M12.71,9.19h0v0l0,0h0v0h0Z"/><path class="cls-4" d="M15,6.69s.08-.07.07-.08h0s0,0-.08,0S15,6.7,15,6.69Z"/><path class="cls-4" d="M13.41,8.3h0v0h.06l0,0h0v0h0s0,0,.05,0h.2s0,0,0,0h0V8h-.09V8h0V8h-.16l0,0h0l0,0h0l0,0h-.12v.06h0Z"/><path class="cls-4" d="M13.5,17.68l0-.05h0v0h0l0,0h0l0-.05v0l0,0v-.07h0a.12.12,0,0,0,0-.13h0l0,0,0,0h.09v0l0,0,0,0v-.07l0-.07,0,0v0h0l0,0,0,0,0-.06,0-.06h0v0h0v-.09h0v0l0-.07,0,0h0l0,0-.05,0h-.06v0h0v.06h0l0,0h0s0,0-.05,0h0l0,.07h0l0,0h0v.22h0v0l0,0h0v0a.61.61,0,0,0,0,.09v0h0l0,0h0l0,0h0v0l0,0h.07v.09h0v0h.1v.11h0l0,.06v0h0v.18a0,0,0,0,0,.06,0h0v.08h.07v0l0,0v0Zm-.2-.55,0,0h0l0,0h0Z"/><path class="cls-4" d="M14.79,6.57s.07,0,0-.06h0a.08.08,0,0,0-.08,0S14.77,6.58,14.79,6.57Z"/><path class="cls-4" d="M13.82,8h0l0,0h0s0,0,0,0H14v0l0,0H14l0,0s0,0,0,0h0v0a.06.06,0,0,0,0,0h0l0,0h.06v0h0v0h0V7.45h0v0h0v0l0,0h0v0h0l0,0h0l0,0h0s-.06,0-.1.06v.05h0s0,0,0,0H14s0,0,0,0v0h-.06s0,0,0,0h-.1a.1.1,0,0,1,0,0h0v0l0,0h0v0s0,0,0,.05h0v0h0v0h0v0h0l0,0Z"/><path class="cls-4" d="M12.91,9.31h0v0h0l0,0V9.17h0v0h0s0,0,0,.06h0Z"/><polygon class="cls-4" points="13.71 7.79 13.67 7.79 13.69 7.82 13.73 7.82 13.71 7.79"/><path class="cls-4" d="M12.89,9l0,0h0V8.87h0l0,0v0l0,0h0V9h0l0,0Z"/><path class="cls-4" d="M14,7.44H14v0h0s0,0,0,0l0,.06h0s0,0,0,0Z"/><polygon class="cls-4" points="10.47 11.43 10.49 11.44 10.5 11.4 10.47 11.38 10.47 11.43"/><path class="cls-4" d="M16.38,25.7v0l0,0v0h0v-.07l0-.06h0v.1h0l0,0a.16.16,0,0,0,.08.12h.1Z"/><path class="cls-4" d="M5.95,14.9v0a.31.31,0,0,0,0-.07.07.07,0,0,0,0,0H6l0,.07h0v0h0v0h0Z"/><path class="cls-4" d="M16.54,25.67h0l0,0h0l0-.05-.08-.09v0a.59.59,0,0,1,0,.11l0,.07h0Z"/><path class="cls-4" d="M10.85,15.18l0,0h0v0l0,.07h0l0,0v0l0,0v0h0l0,0v0h0l0,0h.15l0,0h0s0,0,.06,0h0v-.07s0,0,0-.06h0V15h0a.33.33,0,0,0,.06-.09l0,0v0h0s0,0,0-.11v0h0l0,0,0,0,0-.05v-.09h0l0,0a.37.37,0,0,0,0-.2h0l-.06,0h-.1v0h0l0-.06h0V14h0l0,0a.62.62,0,0,1-.06.11h0l0,0v0h0l0,0h0v.11h0v.09h-.08v.06h0v0h0v0s0,.07,0,.1l0,0h-.1l0,.08,0,0h0v0h0v0h0v.15h0l0,0,0,0h0v0h0v0l-.07-.07h0l0,0h0v0h0l0,0h0l0,0v0h0v.07h0v.09h0V15h0s0,0,.06,0l0,0v0l0,0v0l0,0h0v.09h0l0,.07h0l0,0h0v0h0l0,.06h0l0,0,0,0,0,0h0v0h0v.1h0v.06Z"/><path class="cls-4" d="M11.54,12.55v0h0v0h0v.05h0v.07l0,0h0v0h0l0,0v-.05Z"/><polygon class="cls-4" points="10.49 11.49 10.47 11.48 10.47 11.51 10.48 11.52 10.49 11.49"/><path class="cls-4" d="M15.41,24.33l0-.1h0l0,0,0,0h0v0s0,0,.09,0h0Z"/><path class="cls-4" d="M6.32,14.93h0l0,0,0-.06,0-.05v-.1h0l-.06,0h0l0,0v.05h0v0h0v.06s0,0,0,0h0Z"/><path class="cls-4" d="M6.92,13.9h0a.28.28,0,0,1,.1-.1l0,0,0,0a.57.57,0,0,1,0,.07H7l0-.07s0,0-.08.16h0l0,.07h0l0,.05-.05.06v0l0,.06v0l0,0v-.06h0l0,0v-.06h0s0,0-.06,0h0l0,.06,0,.1v.06l0,.05h0l0,0h0l0,.06c-.13.33-.13.33-.12.4l0,0,0-.07v.06h0a.92.92,0,0,0,.07-.11h0v0l0,.07h0v0h0l.07,0h0l0,0h0l.06-.06h0l0,0,0-.08a.28.28,0,0,0,0,.1h0l.06,0L7,14.7c.08-.05.08-.15.13-.22v-.08h0s0,0-.06-.05H7c-.06,0-.06,0-.12.08h0l0,0,0,0h0l0,0,0,0v-.09l0-.09h.09a.13.13,0,0,1,0,.05h0a.51.51,0,0,0,.07-.13v0h0l0,.06,0,0h0a.32.32,0,0,1,.07-.1l0,0v0H7a.21.21,0,0,0,.06-.07h0a1,1,0,0,0,0,.13h0l0,0,0,0,0,0h0s.06,0,.07-.07a1.43,1.43,0,0,0,.08-.22l0,0v0a.28.28,0,0,0,.12-.2h0l.09,0,0-.09.07-.15v-.05l0-.05,0-.09.05,0h0l.05-.08.06,0L7.95,13,8,12.91l.12-.15.11-.12a.41.41,0,0,0,.09-.17h0v0h0l.14-.08.08-.12v0s0,0,0,0h0v0h0l0,.06h0v0l-.07,0h0s0,0-.07,0l0,0-.06,0,0,0,0,0H8l-.22.12-.1.09,0,.06,0,.1v-.05h0l0,0h0l-.05.06h0l0,0h0l-.06.07c0,.11,0,.21-.07.32h0l0,.06,0,0h0l0-.06v0h0l0,0a.48.48,0,0,0,0-.08l0,0v-.15h0l-.06,0,0,0L7,13.22a.38.38,0,0,0-.06.07l0,0,0,0,0,.13,0,.12v.07l0,0h0l0,.07v.14h0A.12.12,0,0,1,6.92,13.9Zm.46-.72.07-.06h0l0,.07v.07h0v-.07l0,0Z"/><path class="cls-4" d="M7.35,12.89a1,1,0,0,0-.14.14l0,0v.15h0l0,0,.06-.32Z"/><path class="cls-4" d="M16.66,24.89l0,.08,0,.11h0v.08a.45.45,0,0,0,0,.12s0,0,.07.06h0v-.12a.72.72,0,0,0-.07-.19v0h0v-.2h0l0,0Z"/><path class="cls-4" d="M13.77,16.43l0,0,0,0V16.3l0,0h0l0,.09c0,.06,0,.06,0,.07h0Z"/><path class="cls-4" d="M10.61,12.32v0h0l0,0h0v-.09h-.07l0,0v0h0v0s0,0,0,0Z"/><path class="cls-4" d="M12.56,14.71h0v0h0l0,0h0v0l0,0v0a.14.14,0,0,0,0-.07l0,0v.07h0l0,0h0s0,0,0,.08h0l0,0,.07.06v0Z"/><path class="cls-4" d="M12.95,15.71h0v0h0a.18.18,0,0,0,.05.08l0,0v0l0,0h0v-.13h0l0,0v-.34l0-.06h0v.19h0l0,0h0v0Z"/><polygon class="cls-4" points="12.18 16.35 12.22 16.37 12.22 16.32 12.19 16.3 12.18 16.35"/><polygon class="cls-4" points="10.47 11.57 10.48 11.53 10.46 11.51 10.46 11.55 10.47 11.57"/><path class="cls-4" d="M10.42,11.6h0v.06h0v0h0l0-.05v0l0,0Z"/><polygon class="cls-4" points="10.5 11.7 10.5 11.7 10.5 11.71 10.51 11.74 10.52 11.74 10.53 11.73 10.54 11.71 10.54 11.68 10.53 11.64 10.52 11.63 10.5 11.67 10.5 11.7"/><path class="cls-4" d="M13.35,14.57v-.08h0v-.08l-.06-.08h0v.08h0l0,0h0v.06h0v0h0v0h0l0,0h0v0h0v.08h0v0Z"/><polygon class="cls-4" points="10.4 11.49 10.39 11.5 10.39 11.54 10.39 11.55 10.39 11.56 10.4 11.56 10.4 11.55 10.41 11.55 10.42 11.54 10.43 11.52 10.43 11.52 10.42 11.49 10.41 11.48 10.4 11.49"/><path class="cls-4" d="M15.1,24.13l0,0h0l0,0L15,24h0v.09h0l0,.07c0,.1,0,.1,0,.11h0l0,0S15.14,24.19,15.1,24.13Z"/><path class="cls-4" d="M7,18.36H7v-.05H7v-.07s0-.07,0-.1,0,0-.05-.15c0,.11,0,.23,0,.34Z"/><path class="cls-4" d="M27.84,41.46h0l.18,0h-.21Z"/><path class="cls-4" d="M6.8,31.3v0l0-.09,0-.07a3.69,3.69,0,0,0-.36-.79l0-.07h0c-.18-.35-.18-.35-.37-1.64a3.08,3.08,0,0,1-.51-.06v0a3,3,0,0,0,.49,0A.45.45,0,0,0,6,28.41c0-.15,0-.15.08-.23l0-.1V28h0a.26.26,0,0,0-.06-.25l0,0H6v-.05h0v-.06l0-.06,0,0v-.07l0,0,0,0H6l0,0v0H6v-.06h0v0l0,0v0h0V27l0,0v-.31a.44.44,0,0,1,0-.15h0v.17l0,.12,0,.07,0,.09,0,.06v0H6v0a1.26,1.26,0,0,0,0,.14l0,.05H6V27c0-.05,0-.11,0-.16a.89.89,0,0,0,0-.15l0-.06v0l0-.07,0,0,0,0v.11H6a1,1,0,0,0,0-.12v-.4a.64.64,0,0,0,0-.13V26H6l.05,0,0,0h0l0,0h0l0,0h0v-.09h0l0,0h0v0l.05,0c.07,0,.1,0,.09-.14v0h0v.06h0l0,0v0h0v0l0,0v0h0a.26.26,0,0,0,0-.1v0h0v-.17l0-.06v.14l0,0h0v0l0-.06h0v0l0,0h0l0,0v0h0v0l0-.05v-.07a.62.62,0,0,1,0-.16.28.28,0,0,0,0-.13h0l0,0,0,0h0l0,0a.4.4,0,0,0,0-.13V24.6h0v.16l0,0,0-.08V24.6l0,0,0,0,0,0h0l.06,0,0,0v-.12l0,0,0-.09v.07h0v-.07a.38.38,0,0,1,0-.08l0,0,0,0,0-.05V24l0,.05v0l0,0h0l.06-.07h0v.11H6.85a.26.26,0,0,0-.05.12v.08h0l0,0h0v.09c0,.06,0,.12,0,.18l0,.07,0,0,.06,0,0-.07,0-.05,0-.08v-.28H7l0,0H7v.07H7v-.14h.06l0,0,.06-.07A.32.32,0,0,0,7.28,24a.46.46,0,0,0,0-.13h0l0,0,0,0,0,0h0l0-.05v-.07l0-.07v0H7.33v-.12h0v0l0-.06,0,0v.07a.71.71,0,0,0,0,.14v.27l0,.06h0v0l0,0v0h0v.11H7l0-.06h0l0,0h0V23.7l0-.07v-.11l0,0h0v-.28h0l0,0h0l0,0v.05h0v0l0,0H6.61v0h0l0-.06h0l0,0,.05,0,0,0v0l0,0,0,0,0,0h0v-.05s0-.08,0-.11a.23.23,0,0,0,0-.1.2.2,0,0,0-.12,0h0c-.32.31-.32.34-.49,1v0h0l0-.06h0c0-.08,0-.17.07-.25v0l0-.09h0a.48.48,0,0,0,.05-.18.74.74,0,0,1,0-.12l0,0h0l0,0h0l0,0,0,0,0,0h0v-.29c.09-.2.46-.27.5-.28l0,.06,0,0v-.08h0l0,0h.1a.43.43,0,0,0,0-.1V22A25.7,25.7,0,0,1,7,18.86H7l-.07.22,0,.11,0,.1,0,.07h0v.08l-.06.1,0,.08v-.06l0,0h0v-.07l0,0,0,0h0v-.17a.78.78,0,0,0,0-.15h0v-.22h0a.51.51,0,0,0,0-.12V18.7h0v0l0,0,0,.05h0v0l0,0H6.48l0-.06v-.08l0,0h0v-.07l0,0v0h0v0h0v-.05h0l0,0,0,0-.06.05h0l-.05,0h0a.16.16,0,0,0-.08.05v0a1,1,0,0,0,0,.13v.05a.3.3,0,0,0,0,.13H6A1.2,1.2,0,0,0,6,19v.08H6v.06a1.49,1.49,0,0,0,0,.17h0a1.45,1.45,0,0,0-.09.21v0l0,0c-.06.12-.06.12,0,.39a1.71,1.71,0,0,1-.21,1,.44.44,0,0,1-.08.11l-.05,0a.27.27,0,0,0,0,.11.45.45,0,0,0,0,.16v.31a1,1,0,0,0,0,.14V22a.58.58,0,0,0,0,.14s0,.1,0,.15v0a.65.65,0,0,0,0-.12v0h0l0,.09h0v.05l0,0h0v-.17l0-.06,0,0h0V22l0-.07v-.08h0v-.24a1.07,1.07,0,0,0,0-.14v-.2a.78.78,0,0,0,0-.16c0-.06,0-.06-.15-.06h0l0,0v-.13l0,0,0,0L5,20.82H5v-.1l0-.06v-.11h0l-.06-.11h0l-.06,0h0l0,0h0v-.11s0,0,0-.07v-.06h0v-.31H4.72v0h0v-.3l0-.11,0-.12v0l0-.08,0-.06v-.13l0,0,0,0,0,0v0l0,0H5v-.07H5v0l0,0v0l0,0h0l0,0v-.06h0l0,0v-.06l0,0v0l0,0v0a.44.44,0,0,0,0-.12h0l-.06-.05v-.07h0v.05h0v0h0v0h0v-.05l0-.11,0-.07v0h0l.05,0h0l0,0,0-.08,0,0v0l.06-.11,0-.06v0h0v0h0l0,0h0v0l.05-.09v0h0v0h0v0l0,.1v0l0,.07v0l0,.06,0,.05,0,.05,0,.06V18h0l0,0h0l0,.08v.09h0a.2.2,0,0,1,.09,0h0v.17h0a.4.4,0,0,0,.07-.1l0,0,.06-.1a.65.65,0,0,0,0-.1v0h0l0,.05h0v.08h.05v0l0,0L6,18.15l0,0v0H6V18H6l0,0,0,0h0l0,0v-.21h0v0h0v0h0v-.06s0-.09,0-.13v.17h0v-.07l0-.08v0h0v-.1h0v0l0,0h0v.14l0,0h0v0l0,0v-.11H6v-.09H6v0H6v-.06H6v-.07h0v-.09h0a.33.33,0,0,0,0-.1h0A.21.21,0,0,0,6.21,17l0,0v0a.37.37,0,0,0,0-.14v-.07h0v-.06h0l0,0,0,0,0,0,0-.05,0-.09a.49.49,0,0,0,0-.12h0v0h0v-.06l0,0v0l0,0h0v.08l0,0v-.07h0v0h0v-.08h0l0-.05h0a.83.83,0,0,0,0-.17V16h0l0,.06v.06h0l0,0h0v.07h0l0,0h0v0H6.68l0,0,0,.09v0l0,0v0l0,0h0v.12h0v0l0,0v.05h0l0,0a.44.44,0,0,0,0,.12h0l0,0v-.17h0v0h0v.06h0v0h0v.06a.78.78,0,0,1,0,.14v0h0l0,0v.09h0l0,0h0a1.85,1.85,0,0,0-.12.21s0,.11,0,.16h0v.07h0v0h0l0,0,0,.05,0,0h0l0,0h0v0h0l0,.06v0h0l0,0,0,0a.39.39,0,0,0,0,.19v0l0,.05.06,0a.4.4,0,0,0,0-.08h0v-.1h0v0h0v-.14h0v0h0v.08h0v.09h0v0a.32.32,0,0,0,0,.1v0h0v0a.27.27,0,0,0,0,.08v.1l0,.06.05,0v0h0l0,.06v0l0,0h.11l.05,0a2.79,2.79,0,0,0,0-.33l0-.06h0l0-.06a.43.43,0,0,1,0,0h0l0,0a22.62,22.62,0,0,1,.1-2.7H7l0,0v0A.54.54,0,0,0,7,15s0,0,0-.05l0,0,0,0,0,0h0l0,0h0l0,0,0,.07v.12h0v.08h0l0,0,0,0,.05,0v0l0,0H7l0,0h0l-.06.11v0h0l0,0,0,.08v0l0,0h0v0h0l0-.06h0l0-.08V15h0V15c-.07,0-.07,0-.17.12h0l-.07.11,0,0,0,0,0,.05h0v.12h0l0,.05v.1l0,0v0h0l0,0v0h0v-.18l0,0,0-.05h0v-.05l0-.06h0l.06-.12,0,0v0h0l0-.05V15c-.19,0-.32.34-.32.34v0a.83.83,0,0,0-.07.15l0,.1h0a.77.77,0,0,0,0,.11v.11h0v0h0l0,0,0,0,0,0h0v0h0l-.05,0v0l0,0,0,.06v0a.16.16,0,0,0,0,.13h0l0,0h0v0h0v.11h.08l0,0h0l0,0v0h0v0l0,0v0h0l0,0h0l0,0h0v0l0,0a.39.39,0,0,0,0,.19v0h0l0,.05h0a1,1,0,0,0-.15.3l0-.08v0H6l0,0v0l0,.08h0v0h0v0l0,0h0v0h0v0h0v-.15h0v-.15h0v-.27H6v-.08l0,0-.06.12,0,.13v.08h0a.32.32,0,0,1,0-.07c0-.19,0-.19.06-.22v0l0,0v0a.49.49,0,0,0,0-.11v0h0v0l0,0h0v0h0v0h0l0-.05v0h0V16h0a.4.4,0,0,0,0-.21v0H6v0L6,15.62l0,0v-.12h.08l0,0,0,0,0,0,0-.08.06-.08h0l0,0,0,0v-.05h0l0,0-.06,0H6.27l-.08,0a.46.46,0,0,0,0,.13v0h0v.07l0,.09h0l0,0v0l0,.07H6l0,.08-.07.16h0l0,.06h0v.06h0v0h0v0l0,0v0h0l0,.06v0c0,.05,0,.05,0,.05l0,0,0,.06,0,0v0s0,.08,0,.12v0h0l0,0h0v.06h0l0,0h0v0h0l0,.05v.08h0v0h0l0,0,0,0,0,0,0,.06h0l0,0v.14h0l0,0h0v0h0l0-.06,0-.07h0l0-.07v0l0,0,0,0,0,0v0h.07v0l0,0h0l0,0v-.12h0l0,0h0v-.11h0l0,0,0,0v-.06h0v0h0l0,0v.09h0l0,.1h0l0,.06v.06h0v.07l0,0h0v.13h0V17h-.1l-.06,0,0,0s0,0,0,0v0h0v0h0l0-.05v0h0v-.05h0l0,0v-.07h0v0l0,0,0,0H5l0,0,0,0a.26.26,0,0,0,0,.09v0a.19.19,0,0,0,0,.09l0,0v0h0v.1l0,.08v.07h0v0h0v-.14h0v0h0v0h0v0h0l0-.06h0L4.73,17h0l0,0,0-.05,0,0,0,0h0v0h0v-.06l0-.07v0a.7.7,0,0,0,0-.12h0a.19.19,0,0,1,0-.09v0h0v0a.89.89,0,0,0,0-.12h0l0,0h0l0,0h0v0h0l0-.06,0,0v0h0l0,0-.06.13,0,0h0v0l0-.05,0-.16,0-.05v0h0V16l0,.08-.07.07h0v0l0,0v-.05l0,0v0l0,0h0v0l0,0h0v.06h0v0h0v0h0a20.67,20.67,0,0,0,1,13.44h0v0h0l0,0,0,0,0,0h0l0,.06,0,0,0,0h0v-.06h0l0,0h0v0h0l0,0,0-.05,0,0v0l0,0,0,0v.06l0,0a.67.67,0,0,0-.08-.19l0,0v0h0v0h0v0l0,0h0V29.5h0v0h0v0h0v0h0v-.09h0l0,.07,0,0v0l0,0,0,0h0l0,0,0,0,.05,0,0,.08,0,.1.05,0h0l.08.06,0,.06,0,.07,0,0,.06.07h0v0h0c.06.14.1.28.16.42h0v-.06h0l0,.06,0,.08a.9.9,0,0,0,.14.23v0h0v0l0,.06v0h0l0,.06a.87.87,0,0,0,.1.16h0l.1.19.07.07Z"/><path class="cls-4" d="M28.89,41.21h0l-.49.09h-.06l-.19,0,.1,0,.08,0H28.2l-.13,0h-.2l-.11,0h-.08l-.16,0,.28-.06.05,0a.5.5,0,0,0-.24,0l-.15,0h0l-.32,0h.05l.13,0,.12-.08,0,0h-.17a1,1,0,0,0-.26,0c-.13,0-.26,0-.39,0h-.09l-.45.06h.1l.18,0c.13,0,.15,0,.21-.06h0a.18.18,0,0,0,.1-.05l-.12,0-.08,0-.09,0L26,41h0a.25.25,0,0,1-.11,0l0,0h-.1v0h.12l0,0H26l0,0-.11,0h0l-.12,0-.1,0a.91.91,0,0,1-.17-.06c0-.05,0-.05-.25-.12l-.34,0-.09,0-.08,0h-.06c-.09,0-.09,0-.12,0l0,0h0l-.06,0c0-.09,0-.09-.05-.12h0v0h.16v0a.24.24,0,0,0-.12,0v0h0v0l0,0v0l0,0h0l.27-.16s0,0-.1,0,0-.13-.22-.18l-.05,0h0c0-.07,0-.08-.1-.12s-.09,0-.1-.08,0,0,0,0l-.66-.32L23.13,39c-.17-.08-.35-.13-.52-.21l0,0-.07,0c-.11,0-.11,0-.14-.08v0s0,0,0-.14-.2-.19-.28-.3l-.46.25h0l.46-.26c-.07-.14-.07-.31-.16-.44a1.55,1.55,0,0,0-.33-.34s-.69-.44-1-.38l0,0-.05,0-.12,0h0l0,0h-.08l-.07,0h0c-.36,0-.7-.18-1.06-.07-.05,0-.09.1-.14.14h0c-.15,0-.17,0-.19.05s-.36-.07-.35.1h-.08v.1l0,0-.05-.06h-.08v0l-.06-.05H18l-.1-.05h0v.05l0,.06h0l-.06,0c-.05,0-.46,0-.58,0h0c-.09,0-.09,0,0,.29l0,.09v0l.07.1c-.13-.1-.13-.1-.12-.15v0h0s0,0-.07-.13l-.06-.07,0,0c-.09-.11-.1-.12-.31,0l0,0,0,0c-.1,0-.11,0-.14,0h0l0,0,0,0-.12-.12L16.24,37l-.09-.05a1.25,1.25,0,0,1-.51-.22l-.08-.06-.21-.14a.33.33,0,0,0-.17,0h0l-.06,0a3.58,3.58,0,0,0-.49-.17h-.09l-.12,0h0a.72.72,0,0,0-.2,0l0,0H14l0,.06h-.14l-.12,0h-.09l0,0a.46.46,0,0,0-.14-.06H13.4l0,.08A.89.89,0,0,0,13,36l-.13-.06h-.07l-.07,0-.09,0,0,0,0,0h-.09l0,0v0l-.05-.08h0l-.05,0,0,0h-.12l0,0-.05,0v0h0l0,0-.06,0h0v.05l0,0,0,0,0,0,0,0,0,0h0l0,0h.07v0h0l0,0,0,0-.05,0h0l-.1,0h0l-.08,0h0l0,0h0l0,0,0,0v.12h-.17l0,0,0,0,0,0,0,0H11.2l0,0-.05,0H11l0,0,0,0h0l0,0h0l0,0,0,0h0l-.05,0h-.19l0,0-.05-.06,0,0,0,0,0,0h0v0h0a.64.64,0,0,0,.09.12l.05,0,0,0h0v0h0v.06h0l0,0,0,0h0l.07.09,0,0h0v0l-.08-.08,0,0,0,0,0,0h0v0h0v0l0-.06h0l0,0-.06-.06-.09-.06,0,0h0l0,.11v0h0v0s0,.09,0,.13h-.07l0,0h0l0,0,0,0h0l0,0,0,0h0v.09l0,.07.14.17.08.08,0,0h0v0l0,0a.38.38,0,0,1,.07.13v0l.1.09h0l.09.09h0l0,0,0,0-.1-.08-.05,0-.08-.06-.07,0,0,0L10.12,36l-.06,0h0l0,0h0l0,0,0,0h0v0H9.91l0,0h0l0,0,0,0,0,0,0,0-.11-.09-.12-.11-.07-.06,0,0-.11-.11-.06-.06,0,0-.06-.08L9,35.13l0,0v0l0,0,0,0,0,0,0,0-.06-.07-.13-.16,0,0v0h0v-.06l-.09-.12-.1-.13-.06-.07,0,0,0,0h0l0,0h0L8,34,8,34H8l0,0V34l0,0h0c.32.41.65.82,1,1.22l.09.08v0l0,0,0,0,0,0,0,0,0,0h0l.21.22,0,0,0,0,0,0,0,0h0l-.11-.13,0,0,.07.07.16.12.06.05,0,0,.21.19h0l0,0,0,0,.06,0,0,0L10,36.21l0,0h0l.11.07h0v0l0,0,0,0h0l0,0,0,0,.07,0h0l0,0,0,0h0l0,0,0,0,.08.05h0l0,0,0,0-.07-.07-.15-.12h0l-.06-.08,0,0,0,0v0l.07,0,.05,0,.05,0,0,0,0,0,.06.06.07.06,0,0,.07.05.06,0,.06,0,.18.15,0,0h0l.11.1,0,0h0l0,0h0l0,0,.31.27,0,0,0,0,0,0h-.05l0,0,0,0,.06,0,0,0,.08,0h0l0,0,0,0,0,0,0,.05,0,0,0,0v0h0l.15.13h0l.06,0,.1.07h0l0,0h0l0,0,.06,0,.06,0,0,0,0,0,0,0,0,0h0l0,0,.05,0h0l.16.12,0,0,.06,0,0,0,0,0h0l.06,0h0l0,0h0l.06,0,0,0,0,0h0l-.05,0h0l.07,0h0l.1.08,0,0h0l0,0h0l.06,0,.16.11.14.08h0l0,0,.14.08h0l.06,0,.06,0,0,0c.23.12.48.22.71.33l.48.21.09,0c.37.16.49.21.57.24l.05,0h0l.06,0,.05,0,.06,0,.06,0,.5.18.09,0,.08,0,0,0a3,3,0,0,0,.46.15l.2.06.07,0,.28.06.12,0,.18,0,.32.05.12,0,.07,0,.16,0h.14l.08,0h.06l.28.07.17,0h0l.15,0,.08,0,.21,0h0l.09,0,.36.08h.13l.12,0h.09l.37.07h.21l.17,0h0l.36.05.14,0h3.12l.3,0h1.28l.14,0h0l.15,0h.23l-.09,0-.27,0h.06l.1,0,.12,0h.19l.11,0c.5-.11,1.15-.25,1.64-.38l.61-.18-.32.09A6.66,6.66,0,0,1,28.89,41.21Z"/><path class="cls-4" d="M6.94,17.87v.07s0,0,0,0,0,0,0,0v.09l0,0h0l0-.08h0v-.11s0,0,0,0V17.7h0v.08h0V17.7a.31.31,0,0,0,0-.2h0v0h0v0h0v-.14c0-.05,0-.06,0-.07h0l0,0,0,0v-.09a.22.22,0,0,0,0-.07l0,0H7l0-.05h0v-.17h0l0,0h0V17a.48.48,0,0,0,0,.16v0l0,0h0l0,0h0v.07h0l0-.06a.15.15,0,0,0,0-.07h0V17h0v0h0l0,0v0h0s0,0,0-.08h0v0h0v-.13h0v-.06l0-.06v0h0v0h0v0s0,0,0-.05h0a.24.24,0,0,1,0-.08v0h0v0c0-.05,0-.05,0-.06l0,0h0l0-.07v0h0v0h0s0,0,0-.08h0v0s0,0,0,0l0,0h0a.2.2,0,0,1,0-.06v0l0,0H7.29v0h0v-.12h0l0,0h0v0l0-.06h0v0s0,0-.06,0h0V15.4a.12.12,0,0,0,0-.06H7.12v.15h0v-.34s0,0,0,0a21.29,21.29,0,0,0-.1,2.7v0Z"/><path class="cls-4" d="M18.14,3h.18a0,0,0,0,1,0,0l.05-.05h0l0,0h0l0,0h0l0,0H18.2s0,0-.05,0Z"/><path class="cls-4" d="M7.41,21.9h0v-.07h0v0h0v-.05h0v-.08h.06l0,0v0h0l0,0v0l0-.06h0l0,0,0,0v-.16l0-.05v-.28h0s0,0-.06-.1l0,0h0v-.08l0,0h0s0,0-.05.06l0,.06,0,0,0,0h0v0h0l0-.09h0l0,0,0-.05v-.09l0,0h0v-.06h0l0-.05,0,.07h0l0,0v0l0,0h0l0,0v0h0l0,0h0v0l0,0v.09h0s0-.05,0-.15v-.08h0l0,0h0v0l0-.06,0,0h0a1.43,1.43,0,0,0,0-.29h0l0,0v0h0v-.06h0v-.13l0,0v0a.21.21,0,0,1,0-.08.37.37,0,0,0,0-.12h0l0-.06,0-.1V19l0,0H7v-.25H7v0l0,.11v0A25,25,0,0,0,7.38,22Zm-.1-1,0,0v0h0l0,0,0,0h0c0,.05,0,.06,0,.08s0,0,0,.06V21l0,0h0Z"/><polygon class="cls-4" points="17.64 2.87 17.59 2.88 17.52 2.9 17.58 2.89 17.64 2.87"/><path class="cls-4" d="M17.7,3h.08l.06,0h0v0h0l0,0h0l0,0h-.13l0,0h-.06l0,0h0l0,0h0Z"/><polygon class="cls-4" points="17.43 3.11 17.48 3.1 17.5 3.1 17.49 3.09 17.48 3.08 17.48 3.07 17.47 3.07 17.46 3.07 17.41 3.08 17.36 3.11 17.36 3.11 17.42 3.11 17.43 3.11"/><path class="cls-4" d="M17.66,3.41l-.06,0h0l0,0h.06l0,0h0l0,0h0Z"/><path class="cls-4" d="M17.47,3.41h.06l.06,0h0l.06,0,0,0h.07l0,0h0l0,0,.07,0,0,0h0l0,0s0,0,0,0h-.25l0,0h0l0,0h0l0,0h0l.07,0h0l0,0h-.07a.09.09,0,0,0,0,0h0l.05,0h.06l0,0,0,0h0v0h-.08Z"/><path class="cls-4" d="M30.31,40.83h0Z"/><path class="cls-4" d="M44.71,19.7v-.19c0-.07,0-.15,0-.22v-.22s0-.08,0-.12l.07.9Z"/><polygon class="cls-4" points="30.35 40.82 30.37 40.81 30.38 40.81 30.34 40.82 30.35 40.82"/><path class="cls-4" d="M44.56,18.31h0l0-.13v.13Z"/><path class="cls-4" d="M44.57,18.38V18.3h0l0,.13Z"/><path class="cls-4" d="M42.46,11.84v0l0,.05,0,0h0a0,0,0,0,0,0,0h0v0h0l0,0h0l0,0h0l0,0v0l0,0,0,.08v0l0,0h0v0a.22.22,0,0,1,0,.07.16.16,0,0,0,0,.07l0,0-.07-.09h0v0h-.06v0l0,0,0,0h-.05v0h0l0,.08v0l0,.07h0l0,0,0,0v0h0l0,0h0l0,0a.36.36,0,0,0,.07.09h0v-.06h0v0h0l0,.07,0,0h0v0h0l0,0h0l0,.06s0,0,0,0h0l0-.06v0h0a.17.17,0,0,0,0,0h0v-.08h0l0,0,0,0,0,0h0V12.5h0a.15.15,0,0,0,0,0h0v0l-.15-.3h0v0l0,0V12l-.08-.17h0Z"/><path class="cls-4" d="M44.53,18.14v0h0v.11h0v.14h0v-.07h0v-.17h0v.09h0v-.13h0l0-.14v-.14l0-.18v-.25l0-.11V17l0-.18c.08.45.17.91.24,1.34Z"/><path class="cls-4" d="M44.58,18.47v.17l0,.18v.12h0l0-.23,0-.29v0Z"/><path class="cls-4" d="M38.62,23.58h0l-.08-.09v0l-.05,0v.14c0,.05,0,.05.1.2v.07l0,.09,0,0v0h0c-.06,0-.07,0-.09,0v0l0,0h0l0,0h-.05v0a.15.15,0,0,0,.09.13h0l0,.05v.09l0,0h.06v0l0,.06,0,0h0c0,.05,0,.06,0,.17v.06h0v.26h0l-.05.05h0v0l0,0,0,.07v0h0v0h0v.11l0,0-.05,0h0l0,0v.06h.1l0,0v.12s0,.09,0,.14v.1l0,.08h0l.06.07c0,.09,0,.1.09.1h.05v0l0,.06h.07l0,0,0,.08,0,0v.26l0,.13,0,.08,0,.1v0c0,.07,0,.07.07.16v0l0,0a.2.2,0,0,0,.1.08l0,.05h0c0,.06,0,.06,0,.14l0,0v0l0,0h0l0,0h0l0,0,.06,0h0l.05,0h0c.09,0,.12,0,.17-.15v-.09l0,0,0,0h0a.56.56,0,0,0,.06-.19v-.23a.17.17,0,0,0,0-.15l0-.05v-.12l0,0c-.11-.15,0-.34-.1-.5a6.16,6.16,0,0,1-.19-.85c0-.29-.13-.37-.16-.39h0v-.14h0v-.16h0v0l0,0v0l0,0,0,0,0,0,0-.06v0h.06l0,0h.05v-.15a.41.41,0,0,0,0-.09l-.41-.44v-.06A.13.13,0,0,0,38.62,23.58Z"/><path class="cls-4" d="M30.31,40.83l-.2.06Z"/><path class="cls-4" d="M18.05,3.23h0l0,0h.12l0,0h0l-.07,0Z"/><path class="cls-4" d="M33.69,16.08l0,0,0,0,0,0,0,0h0l0,0,0,0s.05,0,.09,0l0-.05,0,0,0,0,0,0v-.06l0-.05,0,0h0A.14.14,0,0,0,33.69,16.08Z"/><path class="cls-4" d="M39.12,8.3,39,8.2l0-.05,0,0A.91.91,0,0,0,38.9,8h0v0l0-.05-.06,0,0,0h0l0-.06,0,0,0,0h0v0h0V7.57l-.06-.1,0-.06v0l-.05-.08-.06-.08,0,0a.65.65,0,0,0-.13-.13L38.16,7,38,6.85a1,1,0,0,0-.18-.13.79.79,0,0,1-.19-.14l-.17-.12-.06,0-.13-.08-.06,0-.09,0c-.14-.06-.3-.06-.44-.11a.58.58,0,0,1-.2-.1l-.07,0h0c-.16,0-.16,0-.24-.06l-.07-.05L36,5.86l-.07,0h0l0-.06,0,0c-.07-.08-.17-.12-.24-.21h0l-.07-.08,0,0,0,0h0l0,0,0-.05,0,0a.14.14,0,0,1,.07,0l0-.09h0v0l0,0,.06.05.07,0,.06,0,.07,0h0l0,0,0,0c0-.09,0-.09-.19-.19l0,0,0,0,0,0,0-.05V5l0-.05v0l0,0,0,0h0v0h.07l0,0,0,0-.15-.12h0l.05,0,0,0,.08,0h0l-.06,0-.05,0-.11-.11h0l0-.05,0,0-.05,0,0,0,0,0h0l0,0,0,0,0,0h0l-.11-.08,0,0,0-.06-.1-.1-.15-.1h0l0,0,0,0-.12-.08,0,0-.06,0-.05,0,0,0,0,0-.05,0H34l-.07,0-.05,0h0l0,0-.05,0,0,0,0,0,0,0,0,0,0,0-.08,0-.06,0-.07,0,0,0h0l0,0,0,0L33.18,3l-.07,0h0l-.06,0-.08,0,0,0-.05,0h0l-.19-.09-.06,0s0,0-.07,0h0l0,0,0,0h-.1l0,0,0,0h0l-.06,0-.06,0,0,0v0l0,0,0,0-.11,0h0A.42.42,0,0,0,32,2.57h-.12l-.06,0h-.07l-.16,0H31.4c-.13,0-.13,0-.2,0l-.07,0h-.07a1.81,1.81,0,0,1-.39-.19l-.05,0h-.08l-.08-.05,0,0,0,0h0l0,0h0l-.06,0h-.19v0h0a.25.25,0,0,1-.09,0h0a.66.66,0,0,0,.22.1l0,0h-.17l-.17,0h0l0,0,0,0h-.16l-.1,0-.05,0h0v0l0,0h0l-.06,0-.11,0h0l0,0v0l0,0h0l-.25-.09h0V2h.1l.15,0h.13a.22.22,0,0,0,.1,0h0l.09,0h0l0,0h.06l-.13-.07,0,0h0l-.06,0,0,0,0,0,0,0-.07-.06,0,0h.22l.09,0h.05l.05,0,.1,0H30l.05,0h.08l0,0,0,0h0l0,0h.1l.07,0h0l0,0h0l.06,0h.06l.11,0h.12L30.8,2h0l.06,0L31,2l.09,0h0l0,0h0l-.06,0h0l0,0L31,2h0l0,0h0l-.92-.3h-.5l-.12,0h-.15l0,0h0l-.05,0,0,0-.1,0L29,1.5h-.06a1.16,1.16,0,0,0-.29,0l-.21,0h0l-.08,0h0l-.14,0h.06l0,0h0l-.07,0h0A20.82,20.82,0,0,0,25.72.87h-.85l-.48.08-.09,0-.13,0h.11l.09,0,0,0h.11a2.14,2.14,0,0,0,.27,0h-.17l-.07,0h-.07l-.07,0-.08,0h0l-.06,0h.06v0h.23l0,0h-.3a.4.4,0,0,0-.2,0h.1l.09,0h0a.15.15,0,0,0-.09,0h0l.09,0h0l0,0v0h-.28l-.17,0h-1l-.11,0h0l-.07,0h0v0h-.18l0,0h0a.17.17,0,0,0,.17,0l0,0h0l-.39,0h-.07a20.67,20.67,0,0,0-3.06.54v.06h0l.05,0h0l0,0,0,0h0l.09-.05,0,0,0,0h0l-.09.07,0,0h-.06l-.07,0h0l0,0h0l0,0h0l.07,0h.05c0,.08,0,.08,0,.14v0l.06,0h0a.22.22,0,0,1-.08.07A.47.47,0,0,0,19,2v.07l.06,0v0h0L19,2.22l-.06,0v0l0,0h-.11l0,0-.09.12,0,0h-.05l0,0h0v0h0l0,0v0h0a.45.45,0,0,1-.08.16v0l0,0h0v0h0v0h0l0,0,0,0h.06l0,0h0l.1,0h0l0,0h0l0,0h0l-.07,0h0l0,0h0l0,.07h0l-.21.15h0l.17,0H19l0,0,0,0-.21.13,0,0-.11,0h0l-.09,0,0,0h-.14a1.82,1.82,0,0,0-.17.11l0,0h.06l0,0h0l0,0,0,0h0v0H18l.05,0,0,0,.07,0,0,0h0l0,0v0l-.05.09h0v0l0,0h0L18,4h-.06l0,0,0,0s0,0,0,.06l0,0v.12h0l-.07,0,0,0,0,0,0,0h.07l0,0-.06,0h0v0h-.09l-.08.07h.07l0,0h0v0h.09l0,0h0v0h0v0h0l0,0v0l0,0h-.13v0h0l0,0h-.13v0h-.3l0,0,0,0-.06,0,0,0,0,0-.06,0H17l0,0h0l-.08.05h0v0l0,0,0,.05-.05.06h.05l0,0v0h-.09a.22.22,0,0,0-.09.09h-.05l-.08,0V5h0l0,0,0,0h0l0,.05v0h.21v0h0v0h0l0,0h.07l0,0h0l0,0h-.09v0h0l0,0h0l0,0h0l0,0c.89,0,.89.05,0,0h0v0h0c0,.09,0,.1,0,.1h0l0,.05,0,0c0,.05,0,.05,0,.05l0,0h0l0,0v0h0l0,0h0V6c-.1.13-.1.15-.1.23l.08,0,0,0,0,0h.12l.09,0,0,0v0l0,0,.06,0h0l0,0h0V6h0l0,0L17,6.17,17,6.23l0,0h0l0,0,0,0h0v0l0,0v0h0l-.06,0v0h0v0l.09.06h0l0,0H17v0h0l0,.07,0,0h0l.05,0h0l.09,0,0,0h0l0-.05.06,0h0l-.05,0,0,.06,0,0v0l-.06,0h-.08l0,0h-.14l-.12,0,0,0h0v0h.19v.09l0,0h.06l.05,0,0,0h0l.09,0,0,0h.11l.05,0h.32V6.54h0V6.47l0,0h0l0,0v0l0,.09h0v0h.17c.07,0,.07,0,.08,0h0l.09,0h0l.09,0h.05l0,.06,0,0,0,0h0l0,0,0,0,0,0v0l0,0,0,0L18.1,7l.05-.12h0v0l-.05,0h0l0,0L18,6.68l-.07,0h-.1l0,0h0a.69.69,0,0,1-.21.09h-.34l0,0H17l-.11,0,0,0h-.09l0,0-.1,0c-.17,0-.17,0-.26.07l0,0h-.2l0,.07,0,0h.06l0,0,.07,0h0l.09,0,0,0h0l0,0,0,.07,0,0h.06l.05,0h.14l0,0h0v0l0,0h0v0h0l.1,0v0l.05,0V7.1h.09l.08,0h0l0,0V7h.07l.08,0-.15.06h0l-.1,0v0l-.08,0v0a.37.37,0,0,1-.12.09l-.12,0,0,0-.1.07,0,0v0h0a.39.39,0,0,1-.11.1h0v0l0,0h-.11l0,0h0l0,0-.07,0v0h0l0,0h.06l.15-.08h.06l0,0h0l.09,0,0,0,0,0h0v0h0v0h.06v0h-.05v0h-.16v0l0,0h0V8l0,0V8h0V8l0,0,0,0,0,0v0h0l0,0,0,0h0l0,.05h0l-.06,0h0V8.2l-.06,0v.13l0,.06h0v0h-.07v.08h0l0,.11v0l0,0,0,0,0,0v.08l0,0,0,0,.06,0h0V9h0l0,0h0l0,0h-.12l0,0h0V9h0V9h0l0,0v0h-.27l0,0-.05.09v0h-.06l0,0h.05l0,0h0l.16.11h0v0l.2-.06,0,0a.4.4,0,0,0,.11.08h0a.48.48,0,0,0-.22.09h0v.25l0,.07h0v0h.24v.07h0l0,0-.06,0h-.05l0,0,0,0H16v0l0,0v0h0v0h0l.19,0h.05v0h.08v.05l0,0-.06,0-.09,0h-.09l0,0,0,0H16l-.09,0h-.12l-.05-.08h-.17l0,0v0l0,0h-.16l0,0h0l.09-.06,0,0h.07l.11-.06,0,0h0l.2-.13.05-.08L16,9.68v0l0-.13,0-.05-.11,0h0c-.09,0-.1,0-.1,0l0,0h-.13v0h-.09l0,0,0,0h-.08a1.24,1.24,0,0,0-.31.1l0,0,0,0,0,0,0,0h0V9.9h-.08l0,0v0l0,0h-.13v.05l0,.07h0l0,.06v0l0,0h0V10h0v0l0,0h0l-.07,0,0,0h0l-.13,0h0v0l0,.07h0l0-.06h0v0h-.06l0,.06h0v0l0,0,0,0v0h0l0,0h0v0a1.26,1.26,0,0,1,0,.18l0-.1v-.06l0,0h0v.05h-.06v0l0,0,0,0,0,0h0v0h0v0l0,0h0v0l0,.06,0,0h0l.1,0h0l0,0h0l0,0v0h0v0a.63.63,0,0,1,0,.09v0l0,0,0,0h0v0l0,0h0V11h0l0,0,0,0v0h0l-.06,0h0v0l0,.08h.05v0h0l-.06,0h0v.07l0,0,0,0h0l0,0,0,0v.11h0l0,0h0v0l0,.06s0,.07,0,.1l0,.09,0,.07h0l0,.05h0l0-.15v-.11l0,.06,0,0,0,0h0l0,.08v.09h0v.11l0,.06,0,0v0h0v0l0,0,0,0v.08l0,0v.06h0v0l0,0,0,0v0h0v0h0a.53.53,0,0,0,0,.19h0l0,0h0v0l0,.08h-.09v0l0,.06h0v0h-.08v0l.06.08h0v0h-.08v0l0,0,0,0-.06,0h0v.08h0v.12h0v0l.09.11,0,0,0,.07v0h0a.39.39,0,0,0,.1.08h0v0l0,.06H14v0l0,0v0l0,0h0l0,.06h0V14h0v0l.08.14h.28v0a.64.64,0,0,1,.06-.12l0,0v-.37h0v-.06l0-.08h.09l0,0a.38.38,0,0,0,.1.06h0a.41.41,0,0,0,.13.1l0,0,0,0,.06,0h0l.09,0,.14,0,0,0h0V14h0v.05l0,.06h0l0,0h0v0h0v0l0,0v0h0l0,.06.06,0v0l0,0h0l0,0h0v0h0l0,.09,0,0h.09v-.22h-.08a.73.73,0,0,1,0-.15h.09l.07-.05h0v0l0,0,0,0,0,0v0h0v0h0l0,0,0,0,.09-.07v-.08h0l0-.1-.07-.12,0-.07h0a.4.4,0,0,0,0,.11l-.15-.18,0,0,0,0-.1-.12h0l0-.06a1.38,1.38,0,0,1,0-.17h0l0-.05a.57.57,0,0,1-.06-.1v0l0,0h0a.27.27,0,0,0-.11,0h-.07l0,0,0,0-.06.08h-.06l-.07-.05h0L15,12.45h0l0,0,0-.06h0l0,0h0v0h0v-.09l0-.05h0v-.17l0-.06v-.21l0-.07v0l0,0-.06,0h0v0a1.17,1.17,0,0,1,0-.21.27.27,0,0,1,.1-.11h0l0,0v0h0l.07,0h0v0l0,0h0v.21h0v.25h0v0l0,0,0,.07v.08h.09l0,0,0,0,.07,0,0,0,0,0,0,0v0l.05,0h0a.45.45,0,0,0,.1.07l.06,0h0l0,0,0,0,.08,0,0,0,.12-.07,0,0h0l0,0,0-.05v0l0,0,0,0,0,0v0l0,0,0,0,0,0,0-.08,0,0h0l0,0h.08l.08,0,0,0,0,.09v0l0,0v.13l0,0,0,0,0,0,0,0h-.08l-.08,0h0V12l0,0h0l0,.1v.07h0v0l.06.06h-.05v.08h0a.3.3,0,0,1,0,.11v.05l.07,0h0l0,0h0v-.14l0,0h0l-.06-.1h.2v0h0l0,0,0,0,.06.05.08,0,0,.06,0,.06h0l-.07,0h-.08a.52.52,0,0,0-.18,0s0,.12,0,.17h0l0,0,0,0v0a.63.63,0,0,0,.19.19l.1.08,0,.06-.06.14,0,.09,0,.06v.06h0l-.06,0h0l-.05,0h-.07l0,0,0,0c-.08.14,0,.34-.17.46l0,0,0,0,0,.08h0v0H16l-.06,0h-.1v.08l0,0h0l0,.06v.1h0v.09h-.06v-.09h0l-.07,0h0l-.06.08-.12,0h0l-.06,0,0,0,0,0c0-.07,0-.16-.05-.23v0l0,0,0,0,0,0,0,0,0,0v0a.39.39,0,0,0-.06-.12l0,0h-.05l0,.09v.06l0,.09h0l0,.06v.06c0,.13,0,.13.15.27l.05.08v0l.14.12v0l0,0,0,0v0h0l0,0h0v0h.11v0h0v.1h0l0,0,0,0h0l-.07.06v.15h0l-.06,0,0,0h0l-.05.08v.18h0l0,.13,0,.07v.26l0,0v.05l0,.07v.11l0,0,0,0v0h0v.06l0,.06,0,0,0,.14a2.26,2.26,0,0,0-.08.24l0,.06h0v0l0,0,0,0-.05,0,0,0,0,0h0v0h-.16v0h0a.39.39,0,0,0,.14.11l.05.08,0,0v0l0,0h0l0,0,0,0v0h0l-.09,0-.06.09-.09.11h0l0,.07,0,0h.08l0,.06,0,0h.08l0,0,0,0L15,18h.11v0h0v0l.05,0h.07l0,0,.06.07h.2a1.09,1.09,0,0,0,.11.17l.08.16,0,.09,0,0a.87.87,0,0,1,.13.3h0l0,.13-.06,0h-.08v.06l0,0h0a1.55,1.55,0,0,1-.27.21l0,0,0,0-.05,0-.07,0,0,0,0,0h0l0,0-.1,0h0l0,.06v.1s0,0,0,0l0,0h0a.44.44,0,0,0,0,.12.26.26,0,0,0,.12.09h0l.06.14a1.18,1.18,0,0,0,.13.19l.07.08,0,0a1.52,1.52,0,0,1,.11.24l0,.12,0,.09,0,.13,0,.09.08.13h0l.08,0h.08l.06.13a2.21,2.21,0,0,0,.14.25v0l0,0h0v0l0,0v0l0,0h0l0,0h0l0-.07v-.1h0a.34.34,0,0,1,.22,0l0,0c.07,0,.07,0,.26.1h0l0-.08v-.18l0-.05v0l0,0h0l.07-.08a.51.51,0,0,1,.13-.12A.6.6,0,0,0,17.2,21l0,0V20.8a.6.6,0,0,1,0-.13l.09-.11h0v-.06l0,0-.05-.09V20.2l0-.09V20l0,0h-.13l0,0L17,19.87c0-.43,0-.43-.07-.51l0,0a.61.61,0,0,1,0-.12A1,1,0,0,0,17,19v0c0-.07,0-.16,0-.22s0-.07,0-.09L17,18.62l-.05-.06,0-.05,0-.08v0a1.12,1.12,0,0,1,0-.16v0l0,0,0,0,.17-.1.06,0,.05,0,.06,0,0-.07h0l0-.11h0l0,0h0V17.7l0-.08v-.25l0-.11,0,0h.08l.05,0,.07,0,0,0,.06,0,0,0,0,0,.08,0h.05l0,0v0l0,0h0v.05H18l0,0v0l0-.06h.1l0,0h0l0,0h0l0,0,0,0,0,0v0l0,0h.07l0,0h0l0,0,.06,0h.14l.07,0,0,0h.13l0,0,.07,0h0l.08,0v0l0,0h0l.06-.07.07,0,0,0h.14l0,0h.07l.08,0h0l0,0,0,0,0,0h.05l0,0h0v0h0v.05l0,0,0,0v.06h0l0,.09h0l0,0-.05.14h0l0,0,0,0h0l0,0h-.09l0,0,0,.1h-.05v0h0v0l0,.08h0l.08,0h.09v0h0l.1,0h.1l.07,0h0l.06,0,.08,0h0l.05,0,0-.06h0l0-.09h0L20,18,20,18l0-.07v-.08h.13v0l0,0v-.09h0v0l0,0,0,0,0-.05v0h0l0,0v-.06l-.07-.11-.05,0-.06,0h-.15v0h0L19.58,17h0v0h.1l0,0,0,0v0h0A.27.27,0,0,0,20,17h0c-.06-.11-.07-.13-.24-.16h-.3l-.07,0a.53.53,0,0,1-.2,0h0v-.07l0,0H19l0,0-.06,0v0h-.26l-.1,0h0l-.09,0,0,0-.05,0c-.12,0-.25,0-.37,0h0l0,0,0,0h0v0l0-.06-.05,0h0l0,0v0l0,0a.81.81,0,0,0,0-.12v0h.05l0,0,.15,0,0,0,0,0,.06,0h0l0-.08,0,0,.07,0,.06,0v0h0l0,0h0l0,0,.09,0,0,0,0,0,0,0h0l0,0h.14l.05,0h0a.35.35,0,0,0,.12,0h.05l0,0,0,0,0,0,0-.05a.31.31,0,0,1,.22-.11l.21,0h.1a.21.21,0,0,0,.14,0l0,0v.05l0,.06h0l0,0,0,0,.06.06,0,0,.08.06h.16v0a.31.31,0,0,0,.19,0h.13l.18,0,.05,0s.08,0,.11,0h0v0l0,0,0,0h0l0,0,.06,0,0,0,0,0,0,0v-.05h0l.06,0,.09,0,0,0,0,0h.09l0,0,0,0-.13-.06-.06,0h.17v-.08l-.06,0-.05,0H21l-.07,0h0l-.17,0h-.11l-.07,0-.07-.07v0h.16l0,0,0,0v0l0-.13v-.19h0l.1-.06a.22.22,0,0,0,.09-.1l.09.05.06,0,0,0h0l0,.09,0,0h0l0,.05,0,0,.13.08h0v.07l0,0h.09l.06,0v-.08h0l-.07-.11h0l0,.05.07,0,.05,0,0,0v.08h0v.05l0,0,0,0h0l0,.06.08.06,0,0,0,0h0v0l0-.05,0,0h.13v0h0l.06,0h0l0,0,0,0H21.8v0s0,.06.07.07h0V16L22,16l0,0h0l0,0v0l0,.07h0v.07l0,.08,0,0v0a.74.74,0,0,0,0-.21v0h0l0,0v0l0,0h0v0a.34.34,0,0,0,0,.1h0v0l0-.07h0l0,0h0l0,0v.13l.09.06h0l0-.11,0-.08v0l0,0,0,0V15.9h.1l0-.07h0l.06.05,0,0,.07,0h.09l0,0,0,0,0,0v-.14l-.07-.09,0,0v0h0l0,0,0,0,0,0h0l.09,0,.14,0h.15l.09-.06a.35.35,0,0,0,.07-.1l0,0h0l0,0v0l0-.07,0-.06v-.1h0l.06,0h.05l.06,0h0V14.6h0l.07,0,0,0h0v.09l.05,0h0l0,0,0,0h0l0,0H24l.07,0,0,.05a.27.27,0,0,0,.15,0h0a.56.56,0,0,0,.08.17l.07.08,0,0,0,0h0l.08.12,0,0,0,0,.06.07.06.07,0,0,.06.08,0,.06,0,.07v.17l0,0,0,0,0,0v0l0,0h0v.07l0,0,0,0h0l-.07,0h-.16v0l0,0-.06,0h0l-.06,0,0,0v0l0,0,0,.07,0,.09h0v.19l0,.07,0,0H24l0,0,0,0a.7.7,0,0,1-.16.07l0,0-.06,0,0,0h0l0,0-.14.1-.06,0,0,0-.06.09h0l-.11,0-.1,0h0l0,.06,0,0h0l-.09,0,0,0,0,0,0,0-.06,0-.08-.08-.06,0-.09.05h0a.51.51,0,0,0-.16.11l0,0v0l0,0,0,.16v0h0a.72.72,0,0,0,0,.14.51.51,0,0,0,.14.17l.08.05,0,0,0,0,.08.18a.45.45,0,0,1-.06.19l0,0-.08,0h-.18c-.34.11-.39.15-.49.24s-.38-.16-.59,0h-.06a.4.4,0,0,0-.17.1c-.07.08-.07.08-.47.25l-.11,0,0-.05v0c-.32.3-.33.3,0,0l-.11.05,0,.05v0h0c-.09,0-.09,0-.13-.14v-.07l0-.12v-.06c0-.05-.06-.09-.09-.14s0,0-.08-.07a.36.36,0,0,0-.17,0l0,0a.26.26,0,0,1,0-.12h0s0,0,0-.13l0-.07h0l0,.06,0,.1h0l-.07,0,0,0c-.08,0-.1,0-.15.1l0,.1,0,.08-.11.17h0l0,0h-.08l0,.05v0l0,0,0,0h-.09v0h0v.15h0c0,.06,0,.06-.07.08h0v.15h-.09v0a.64.64,0,0,0-.24.2s0,0-.09.12l0,.05,0,.06,0,0h0l0,.05a1.36,1.36,0,0,0-.16.24c-.06.15-.06.15,0,.23h0l0,0,0,0,0,0h0v.28a.3.3,0,0,1,0,.09h0a.28.28,0,0,1-.16.16l0-.05h0l0,.06v0h0l0,0s0,0-.07.09h0s0,0-.1.08H17l-.14-.06c-.08-.05-.15.08-.15.1v0a1.56,1.56,0,0,1,.09.26.92.92,0,0,1,.05.21v.32l0,.07v0l0,0a1.22,1.22,0,0,0-.06.4,3.17,3.17,0,0,1,.09.36.52.52,0,0,0,.08.21l0,.05a.93.93,0,0,0,.16.16l0,0,0,.15,0,.16,0,.07,0,.08v0a.62.62,0,0,1,0,.13c0,.11,0,.22,0,.32l0,.1-.12.2h0v.08a.64.64,0,0,0,0,.21l0,.08a.38.38,0,0,1,0,.21.37.37,0,0,0,0,.16,1.12,1.12,0,0,0,.07.2l0,.09,0,.08,0,.09,0,0,0,0v.13s0,.11,0,.16l0,.06v.07l.05.1,0,.06,0,.08v0a1.79,1.79,0,0,0,.1.2l0,0a.48.48,0,0,0,0,.21l.06.13v0l.1.15.09.07h0v-.06l0,0h.13l0,0L18,28l0,.08,0,.1h0l0,.07,0,0,0,0,.13.07,0,0a.85.85,0,0,1,.25.28l0,0,.09.18,0,.11.05.11.06.08a.68.68,0,0,1,.15.37c0,.14,0,.18.22.23h0l.12.11,0,0v0l.12.1.07,0,0,.07,0,.07.1.07,0,0h0l.06,0,.07,0h0l.09-.08,0,0h0l.08,0h0a.5.5,0,0,0,.19.08h.09l0,0h0l.09.05h.21l0,0h0l.08,0,0,0,.08.07.13,0,0,0,.09.08.06.05.07,0h.21l.06,0,.06,0,.06,0,.07,0,.05,0,.09,0,.11,0h.17l.12,0,0,0h.07l0,0a4.09,4.09,0,0,1,.58,0,.87.87,0,0,0,.32,0,.24.24,0,0,0,.13-.06,1,1,0,0,0,.12-.3l0-.1a1.08,1.08,0,0,1,.09-.16l.06-.07.24-.25h0l.26-.1.09,0,.11,0,0-.11v-.11a.3.3,0,0,1,.1-.12l0,0v-.06a.73.73,0,0,1,0-.16,1,1,0,0,1,.09-.24h.06l0,0v-.16l0,0a2,2,0,0,1,.12-.23h0l.15-.16,0,0,0,0,0,0,.08-.06,0,0,.06,0h.09a1.24,1.24,0,0,1,.32.06c.13.05.23.16.38.16l.1,0,0,0,0,0,0,0v-.08h.12l0-.06L27,28l0,0,0-.06.06,0h0l.1,0,.09,0h.13v-.06h0l0,0a.56.56,0,0,0,.17.1l.07,0,.07.08c.17.2.17.2.21.3l0,.08v.05l0,.07h.09l.09.08,0,0,0,0h0v.08l0,.05,0,0a.32.32,0,0,1,0,.18h0l0,0,0,0,.2.08.08,0a.87.87,0,0,0,.42.11h.46l.36.08.25.07.06,0v.08l0,0h.22l0,0,.09,0,.21.09.22.06.09.05.08.06v0l0,.07v0a1.3,1.3,0,0,0,.19.15l.07,0h.05l.06,0,.05,0h0l.07,0,0,0,0,0,0,0,0,0,0,0a.75.75,0,0,1,.08.16c0,.08,0,.17,0,.25l0,.08v0c0,.09.08.15.11.23l.05,0,.06.07,0,0,.06.14,0,.08,0,0,0,0,.09.06,0,.05a1.1,1.1,0,0,0,.14.13l0,0h0s0,0,.09.08.05,0,.32.06l.09,0h0a.58.58,0,0,0,.2.07h.06l.1,0a.33.33,0,0,0,.18.06h.09l.3.07.07,0v0a.17.17,0,0,0,.06.08c.09.07.15.18.28.19h0l0,0,0,0,0,0L35,33H35l0,0,0,0,.07,0h0l.26,0h0a.7.7,0,0,1,.38.08h0l.32.06.09,0,0,0,0,0,0,.06,0,0,0,0h0v0h.21v0l0,0,0,0v-.06h.07l.06,0h.06c.06,0,.11-.07.12-.17v0h0l0,0h0l0-.07,0,0,0-.07V33l.07-.09h0l.09-.06,0,0v0h0l.07,0a.33.33,0,0,0,.05-.1v0h0l.06,0,0,0v0l0,0h0l.05,0,0,0a2,2,0,0,0,.18-.6c0-.11,0-.22.05-.32s0-.1,0-.5v0c0-.27,0-.54,0-.81s0-.12-.08-.18l0,0,0,0h0a.44.44,0,0,1,0-.31l.08-.17,0-.09,0,0a.35.35,0,0,0,0-.16C38,29,38,29,38,29l-.07,0v0c0-.15,0-.17-.16-.3v0l0,0,0,0,0,0,0,0,0-.05h0a.13.13,0,0,0-.11,0c-.05,0-.07,0-.13-.11l0,0h0c.07,0,.07,0,.08-.12v-.22l0-.08h0v0l0-.06c0-.07,0-.15,0-.22a.5.5,0,0,1,0-.22l0,0a.33.33,0,0,0,0-.18v-.06l0-.09,0,0,0-.08,0-.11,0-.07v0l0-.11v0c0-.12,0-.24,0-.37s-.05-.14-.08-.21a.65.65,0,0,0,0-.07l0,0h0s-.06,0-.17-.18l0,0,0,0a2.09,2.09,0,0,0-.24-.3l-.06-.07,0,0,0-.07c-.24.28-.24.28,0,0V25l0-.11h-.18a.33.33,0,0,1-.21-.06l-.06-.08a.46.46,0,0,0-.15-.06l-.07,0v-.07l0-.07v0l-.06,0h0v-.05l0-.08v-.08l-.06,0h-.23l-.06,0,0,0a1.3,1.3,0,0,1-.08-.18c-.06-.16-.06-.17-.1-.31l0-.07,0-.07v0l-.07-.18,0-.06-.07-.2,0,0,0,0a.33.33,0,0,1,0-.18h0v-.06l0-.09,0-.09v-.18l0-.1,0-.12v0a1.71,1.71,0,0,1,0-.19c0-.07,0-.17,0-.24s0-.14-.05-.43c0-.06,0-.15,0-.21a4.69,4.69,0,0,0,0-1.16c-.05-.28-.16-.55-.23-.82a.8.8,0,0,0-.15-.36,1.3,1.3,0,0,1-.13-.26,1.19,1.19,0,0,0-.16-.36l0-.09c-.06-.12-.18-.21-.17-.36l-.1-.15a.78.78,0,0,1-.13-.14v-.07l0-.06h0v0H33.8l0,0-.06-.05-.06,0,0,0v0l0-.07-.06,0H33.4l-.05,0v.15l0,.05a1.09,1.09,0,0,1-.07.16v.1h0s0,.1-.06.12l-.08,0,0,0v.13l-.11.15v0L33,18v.24l0,0a.3.3,0,0,0-.13.15.44.44,0,0,1-.11.32c-.14.06-.14.06-.37,0l0,0h-.09v0l0,.06,0,0,0,0h0a.42.42,0,0,1,0-.19v-.07A.32.32,0,0,0,32,18.5l-.08,0-.08,0h-.09l-.06,0h-.2a1,1,0,0,1-.38,0c-.09,0-.09,0-.31.07l-.23,0h0c-.46,0-.79-.45-1.27-.37a.29.29,0,0,1-.28-.07l-.06,0a4.22,4.22,0,0,1-.45-.31l0,0a.65.65,0,0,0-.16-.08c-.29-.1-.29-.1-.35-.1h-.37l-.09-.05-.1-.1h0v0h0v-.05h-.06c-.15,0-.15,0-.41-.07a2.66,2.66,0,0,1-.39-.11l-.11,0-.11,0-.11,0-.1,0L26,17l-.06,0-.08,0a.81.81,0,0,0-.2-.05l-.35-.06-.06,0-.1,0-.08-.06h0l.1,0h.14l.09,0,.11.06.27,0h.12l.06,0v0l-.25-.32h0l-.06-.06.11.09,0,0a.67.67,0,0,0,.16.17l0-.06.07,0h.07l.21,0,.7.13h0l.16,0,0,0,0,0,.1,0,.08,0a.45.45,0,0,0,.17,0h0a1.23,1.23,0,0,1,.68.14.83.83,0,0,0,.25.17l0,.05,0,0c.12.06.12.06.32.06h.27l.22,0a1.07,1.07,0,0,1,.37.12l.11,0h0a.5.5,0,0,0,.33,0h.08l0,0,.09,0a.84.84,0,0,1,.26.08,3.35,3.35,0,0,0,.32.26l.18.08c.11,0,.2.11.3.15s.24.19.3.21h.06v0l0,0h0l.09-.16,0-.11V18c0-.06,0-.13,0-.19v0h0a.74.74,0,0,0,.13-.29l0-.06,0-.09c0-.05,0-.13,0-.18h0a.4.4,0,0,0,0-.38l0-.11,0-.06,0,0,0-.07v-.07l0-.07,0,0a1.15,1.15,0,0,0,.07-.39v0l0,0-.19-.17,0-.09a2.22,2.22,0,0,1,0-.3l0-.12,0-.1,0,0,0,0,0,0,0-.08a.44.44,0,0,0-.12-.19c0-.41,0-.41-.12-.52a1.55,1.55,0,0,1,.08-.24l-.15-.14a.71.71,0,0,1-.15-.11,1.23,1.23,0,0,1-.15-.2h.12l0-.06a1.76,1.76,0,0,1-.18-.36l-.15-.22,0-.06,0-.07h-.06l0,0,0,0v0a1.28,1.28,0,0,1-.34-.06l-.11,0a2.51,2.51,0,0,1-.27.22.79.79,0,0,1-.31,0,1.44,1.44,0,0,1-.47-.23H30l0,.11v0l0,.08c.06.24.15.46.22.69l0,0-.08.08-.08.13,0,.07V14H30l-.05,0h-.18l0,0v-.07l-.12-.07-.11,0v-.09h-.08l-.12,0,0,.19.08.08,0,0h-.29l0,0,0-.06a.45.45,0,0,0-.13-.05h0l0,0-.15,0h-.21a.8.8,0,0,0-.19,0h-.24a1.93,1.93,0,0,1-.34-.12l-.06-.1h0v-.06l-.06-.08v0h0l.09-.11h0l0-.12H28l.06,0h.09v0l.07,0,.12,0c.24,0,.24,0,.34,0l.12,0,.07,0v0l.05,0a.73.73,0,0,1,.21,0h.08l0,0,.06,0,.05,0h0l.11,0,0,0,0,0,.08-.05.05,0h0v-.08l0-.08V12.7h0l.06,0,.08,0v-.08l-.11-.15h0v0h0l.15,0,.07,0,.26.1.16,0,.09-.05,0-.08,0-.08h.06l.11-.1a1.35,1.35,0,0,1,.17-.18l.05,0L31,12a.42.42,0,0,0,.13-.18v-.07a.75.75,0,0,1,.08-.19l0,0,0,0v-.14l0,0c.1-.07.1-.07.18-.3h0a.35.35,0,0,1,.07-.12l0,0,.05,0,.08,0,0,0,0,0,.08,0a.31.31,0,0,0,.21.08l.1,0h0l.13-.07h.11a.54.54,0,0,0,.27,0l0,0v-.07a1,1,0,0,1,0-.13l.06,0,0,.25,0,0,0,0V11l.06,0,.05,0h.62l0,0V10.8a.33.33,0,0,0,0-.12c-.07-.13-.08-.16-.2-.19h-.05l0,0-.07-.06h0l.1,0h0c.12.05.12.05.16.09l0,.05h0c.14,0,.14,0,.25.11s.06.08.31.18h0a.52.52,0,0,0,.23.13c.15.07.59.33.59.33a.53.53,0,0,0,.3.12h0c.15,0,.72.31.73.31l.22.14c.22.14.49.16.7.3s.56.32.56.32a.84.84,0,0,0,.23.09h.06l0,0c0-.15,0-.15-.14-.33l0,0a.35.35,0,0,1,0-.13.7.7,0,0,1,0-.1l0,0h0v0l-.06,0,0,0h0l0-.05,0-.06,0-.05,0,0v0h0v-.07a.37.37,0,0,0-.07-.11l0,0-.06-.07c-.06-.07-.09-.08-.16-.09-.24-.14-.32-.42-.53-.58l0,0-.46-.3a.37.37,0,0,1-.14-.14l0-.07h0a.31.31,0,0,0-.07-.14l0-.06,0,0,0,0V9.9a.6.6,0,0,0-.13-.19l0,0h0l0,0a.6.6,0,0,1-.06-.2.61.61,0,0,0-.08-.12.37.37,0,0,1-.06-.12c0-.1,0-.1-.14-.23l-.07-.1-.05-.09-.07-.1,0-.07,0-.07a.33.33,0,0,0,0-.1A1,1,0,0,0,35,8.32a.4.4,0,0,0-.18-.15l-.06,0c-.1-.07-.1-.08-.1-.14V7.9a.56.56,0,0,0-.11-.12l0,0a.42.42,0,0,0,.15.07h0l0-.06-.12-.09h0l.07,0,0,0v0l0-.08,0,0h.06l0,0-.07-.05-.05,0,.06,0,0,0h.07v0l0,0,0,0,0,0,0-.06h0l.06,0h0l-.1-.1,0,0h.1a2,2,0,0,0,.35.14h.06l.18.05a.26.26,0,0,0,.13,0l0,0,.06,0h0l0-.07h.07l0,0a.34.34,0,0,0,.14.09l0,0,0,0,0,0h0l0-.05V7.53l.05,0,.07,0,.18.07.07,0,0,0,0,0,.08.06.17.14.13.11,0,0h0A.19.19,0,0,1,36.88,8V8h.08l0,0-.15-.13V7.71l-.07-.13a.58.58,0,0,0-.16-.16l.2.09.07,0v0h0l0,0,0,0,.18.09,0,0,.23.16.09.06h0l.13.07.26.14h0l.05,0,0,0c.07.07.16.11.23.17l0,0,.05,0,.09.08,0,0,0,.06.17.14.07.06,0,0,.15.17a3.14,3.14,0,0,0,.35.35l0,0v0l0-.05,0-.05,0-.06h0a.15.15,0,0,0,.09,0l.18.17,0,0,0-.06,0,0h0l0,0,0,0,.09.06,0,0,.08.05h0l0,0,0,0,.06,0,.09.1.06.06h0l.09.07h0l.18.17,0,0,.45.32h0l.1,0h0l.09,0h0l0,0,0,0h0v-.05h0v0l0,0,0,0-.25-.23-.12-.08a1.15,1.15,0,0,1-.23-.25l0,0-.13-.16,0-.06,0,0C40,9.46,40,9.46,40,9.44l-.06,0-.14-.1-.05,0h-.08l-.11-.06,0,0v.08h0l-.05,0h0c-.1-.07-.18-.16-.27-.24h0l0,0h0l0,0,0-.05,0,0h0l0,0v0h0l-.07,0-.12-.11-.08-.08a1.05,1.05,0,0,1-.15-.17l-.05-.06,0,0L38,8.1l0,0,0,0-.09-.07,0,0,0-.05,0,0,0-.1v0h0l.13.08.06.05,0,0h0V7.8h.09l0,0,0,0,0,0h0l.19.11h0l0,0,0,0,0,0,.06,0,0,0L38.51,8,38.6,8h0V8h0l0,0,.1.08,0-.07,0,0h.08l0,0h0l0,0,.28.29a.18.18,0,0,0,.09,0h0Z"/><polygon class="cls-4" points="16.43 5.47 16.41 5.46 16.37 5.47 16.39 5.48 16.43 5.47"/><polygon class="cls-4" points="16.09 5.88 16.07 5.86 16.02 5.88 16.05 5.89 16.09 5.88"/><path class="cls-4" d="M15.95,5.39H16a.19.19,0,0,1,.11,0h.06l0,0h0v0h0l0,0h0v0h0v0h-.07l-.07,0H16l0,0,0,0H15.9l0,0h0v0A.16.16,0,0,0,15.95,5.39Z"/><path class="cls-4" d="M18.1,3.08l.07,0h0l-.08,0h0Z"/><polygon class="cls-4" points="15.96 5.69 15.93 5.67 15.89 5.69 15.92 5.7 15.96 5.69"/><path class="cls-4" d="M16,5.83h0l0,0s0,0,0,0S16,5.84,16,5.83Z"/><path class="cls-4" d="M16.31,6.16h0a.07.07,0,0,0-.08,0s0,0,.06,0S16.33,6.17,16.31,6.16Z"/><path class="cls-4" d="M16.27,5.49s0,0,0,0,0-.05,0-.06h0S16.29,5.45,16.27,5.49Z"/><polygon class="cls-4" points="16.43 5.42 16.39 5.44 16.41 5.46 16.45 5.44 16.43 5.42"/><path class="cls-4" d="M16.46,5.41s0,0,0,0h0a.07.07,0,0,0-.06,0S16.44,5.41,16.46,5.41Z"/><path class="cls-4" d="M16.54,6.45h0a.06.06,0,0,0-.07,0s0,0,0,0S16.57,6.46,16.54,6.45Z"/><path class="cls-4" d="M15.11,6.06s.08-.06.06-.08h0a.08.08,0,0,0-.08,0S15.11,6.06,15.11,6.06Z"/><polygon class="cls-4" points="16.41 5.51 16.39 5.49 16.35 5.5 16.37 5.52 16.41 5.51"/><path class="cls-4" d="M15.65,6.26s.06,0,.09,0,0,0,0,0h0S15.67,6.25,15.65,6.26Z"/><path class="cls-4" d="M16.27,5.07s0,0,0,0h0a0,0,0,0,0,0,0S16.26,5.08,16.27,5.07Z"/><path class="cls-4" d="M16.63,6.09s.07-.06,0-.07h0s0,0-.06,0S16.63,6.09,16.63,6.09Z"/><path class="cls-4" d="M16.53,6.65s.05-.05,0-.06h0s0,0-.06,0S16.53,6.65,16.53,6.65Z"/><polygon class="cls-4" points="16.59 6.13 16.63 6.11 16.62 6.09 16.58 6.11 16.59 6.13"/><polygon class="cls-4" points="16.61 4.91 16.59 4.9 16.55 4.91 16.57 4.93 16.61 4.91"/><path class="cls-4" d="M16.32,5h0l0-.07h0Z"/><polygon class="cls-4" points="16.09 6.25 16.14 6.23 16.12 6.21 16.06 6.22 16.09 6.25"/><polygon class="cls-4" points="16.45 6.51 16.4 6.53 16.42 6.56 16.47 6.54 16.45 6.51"/><path class="cls-4" d="M15.24,5.93l.05,0h0v0h.13s0,0,.12-.06h.06l0,0h.08l0,0h.08v0h0v0h0l.12-.1,0,0h0l.06,0h-.06l-.14,0h-.06s0,0-.1.05h0l0,0h0l0,0h0l-.06,0h-.13l-.08.07h0s0,0-.05,0h0s0,0,0,.06h0Z"/><polygon class="cls-4" points="16.38 6.29 16.32 6.32 16.34 6.35 16.39 6.33 16.38 6.29"/><path class="cls-4" d="M16.06,6.17s0,0,0,0,.06,0,0-.06h0A.06.06,0,0,0,16.06,6.17Z"/><path class="cls-4" d="M17.69,30.76h0v-.06h0l-.05,0h-.09l0,0h0Z"/><path class="cls-4" d="M17.4,19.8l0-.07h0l0,0h0v.17h0Z"/><path class="cls-4" d="M31.62,40.34h-.19l0,0h0l.1,0h0l0,0h-.09l0,0h0l.05,0h0l.07,0,.06,0h0l0,0h0l0,0h0l.06,0h0Z"/><path class="cls-4" d="M8.17,32.54h0s0,0,0,.07l0,.06h0s0,0,0-.06v0l0,0h0Z"/><polygon class="cls-4" points="28.19 41.39 28.2 41.39 28.21 41.39 28.27 41.38 28.23 41.38 28.19 41.39"/><path class="cls-4" d="M17.45,19.26h0v0l0,.06v.08l0,.07s0,0,0,0h.16V19.4l0-.07v-.06h-.09Z"/><path class="cls-4" d="M17.67,19.14v0l-.09-.06,0,0h0l0,0h0l0,0,0,0,0,0,.07,0Z"/><polygon class="cls-4" points="16.01 14.01 16.04 13.99 16.04 13.98 16.04 13.95 16.01 13.93 16 13.94 15.99 13.94 15.97 13.93 15.96 13.93 15.92 13.93 15.91 13.92 15.91 13.94 15.93 13.98 15.93 13.99 15.96 14.01 15.97 14.01 16.01 14.01"/><path class="cls-4" d="M20.65,16.92h0v0l.06,0,.07,0h0l-.06-.08h0Z"/><path class="cls-4" d="M15.92,13v0h0l0-.07h0v0h0l0,.05v0h0v0h0v.11h0l0,0h0l0,0h0l0,0,0,0h0l0,0h0v-.13h0l0,0,0,0,0,0,0,0h0Z"/><path class="cls-4" d="M21.35,16.67v0l0,0h-.21l0,0,0,0h0l-.07,0,0,0,0,0h0v0l0,.1s0,.07-.09.11h0v0l0,0h.07l0,0,0,0,0,0h.18l0,0,0,0,.07,0h.06v0l0-.07h0l0,0h.09v0l0,0h.15l-.05,0,0,0,0,0-.05,0-.12-.06h0Z"/><path class="cls-4" d="M18.63,18.64l0,0v0h0l.05,0,0,0s0-.06-.08-.12v0l-.19-.23C18.3,18,18.3,18,18.15,18h0v-.06l0-.05a.65.65,0,0,0-.11-.14l0-.05,0-.05-.06-.06h-.06v.18a.72.72,0,0,0,0,.1l0,0a.19.19,0,0,0,.07.06l0,0,0,0,0,0s0,0,.1,0v.21h0l0,0h0v0a.2.2,0,0,0,.12.18l.06,0,.06,0a.39.39,0,0,1,.14.17C18.45,18.73,18.54,18.79,18.63,18.64Z"/><path class="cls-4" d="M7.2,31.65h0l0,.05,0,0h0l0,0h0v0l0-.07s0,0-.07-.07h0v0l0-.08v0l0-.05,0,0s0-.06-.05-.06,0,0,0,.07v.09l0,.07h0l0,0h0Z"/><polygon class="cls-4" points="11.65 35.03 11.63 34.98 11.62 34.95 11.57 34.92 11.56 34.92 11.56 34.92 11.56 34.94 11.56 34.95 11.57 34.99 11.66 35.05 11.65 35.03"/><path class="cls-4" d="M12,35.34h0l0,0H12s0,0,0,.05,0,0,.09.11l0,0v.07h0a.32.32,0,0,0,.12,0v0a.18.18,0,0,0-.09-.14l0,0h0Z"/><polygon class="cls-4" points="10.73 33.71 10.71 33.69 10.67 33.69 10.65 33.73 10.65 33.75 10.65 33.75 10.65 33.76 10.71 33.86 10.73 33.89 10.78 33.92 10.79 33.92 10.78 33.89 10.76 33.85 10.75 33.8 10.73 33.71"/><path class="cls-4" d="M9.68,33.46h0s0,0,0,0,0-.12,0-.12l-.05-.06h0s0,0,0,0H9.48s0,0,0,.06h0l0,.05.06.09h.08v-.05Z"/><path class="cls-4" d="M10.47,33.53l0,0-.05,0h0l0,.06h0Z"/><path class="cls-4" d="M9.09,33.66h0l0-.05L9,33.5v0H9v0l0,0h0v0h0s0,0,0,0h.06l.05,0,0,0h0v0l0-.05v0h0l0-.05-.11-.11,0,0s-.05,0-.09,0H9l0,0,0,0,0,0L8.87,33h0l0,0H8.67c-.05,0-.05,0-.06,0v0H8.52l0,0h0l0,0s0,.07,0,.08h0l.06.05h.06l0,.05v.08l0,0,0,0,.06.06h0s0,0,0-.07l0,0,0,0h0v0l0,0h0l0,0h0l-.05,0H8.53s0,0,0,.07l0,0,0,0,0,0,.06,0h0s0,0,0-.06l0,0,0,0h0v0h0l0,0,.12.13Z"/><path class="cls-4" d="M7.18,32.39a.7.7,0,0,0-.1-.13h0s0,0,.06.14v0h0S7.2,32.43,7.18,32.39Z"/><path class="cls-4" d="M8.21,33.49l0,0h0l0,0,0,0,.05,0h0s0,0,0,0h.05s0,0,0,0l-.06-.09,0,0h0l0,0,0,0,0,0H8.15s0,0,0,0v0l0,.05Z"/><path class="cls-4" d="M7.27,33.1v0l-.09-.14,0-.06,0,0,0,0,0,0L7,32.66,7,32.52l0-.06,0,0-.08-.13,0,0h0l-.08-.05v0h0q.31.51.66,1l0-.07Z"/><path class="cls-4" d="M7,32.29l0,0H7v0l0-.06v0H7s0,0,0-.1H7l.07,0h0v0l0,0,.08.05,0,0h0l0,0,0,0s0,0,.08,0h.07l.09.1,0,0,0,.06.09.11h.08l0,.06v.07a.24.24,0,0,0,0,.1H8s0,0,.09,0,.09,0,.08,0,0,0,0,0h0s0,0,0,0v0l0,0h0c-.06,0-.11-.09-.18-.11H8v0l0,0s-.06,0-.09,0l-.07-.06-.16-.13a1.42,1.42,0,0,0-.23-.21H7.33l0,0,0,0A.42.42,0,0,0,7.12,32l0,0-.08,0,0,0h0V32h0c-.05.05,0,.11,0,.21h0v0h0v.06H7Z"/><path class="cls-4" d="M11.45,35.29s0,0,0,0h0v.06a.14.14,0,0,0,.11.06l0,0h0v-.06l0,0h0l-.06,0Z"/><path class="cls-4" d="M41.13,10.67h0l0,.06,0,0h0l0,.06h0l0,.06,0,0,0,0,0,0v0l-.06-.11h0v0l0-.07v0h0l0,0Z"/><path class="cls-4" d="M41.73,11.1v.07l0,.07v0l0,0h0l0,0h0v0l0-.09,0-.07h0l0-.07h0l0,0Z"/><path class="cls-4" d="M39.17,10.16h0l0,0h0l0,0h0l.14.11,0,0,0-.06v0l-.1-.07Z"/><polygon class="cls-4" points="38.88 9.94 38.87 9.94 38.88 9.96 38.9 9.98 38.94 10.03 38.95 10.05 38.96 10.08 38.99 10.1 39.01 10.11 39.03 10.11 39.02 10.09 38.93 9.97 38.88 9.94"/><path class="cls-4" d="M40.34,11h0l0,.07.06,0h.09v0L40.37,11Z"/><path class="cls-4" d="M11.15,34.2s-.07-.06-.1-.05h0v0l0,0h0l.08.07h.05v0Z"/><path class="cls-4" d="M40,8.21v0l0,0a.35.35,0,0,1,.06.1h0a.37.37,0,0,0,.07.1l0,0,0,.06,0,0,0,.07,0,0,0,.06,0,.05,0,0,0,0,0,.1,0,0,0,0v0h0l0,0c.07.09.14.2.21.29l0,0,0,.08,0,0h0v.06l0,0,0,0v0l0,0h0l0,0,.1.17h0l0,.06,0,.05,0,.05,0,0,0,0h0l0,0,0,0,0,0,0,0,0,0,0,0,0,0,0,.07h0l0,.05,0,0h0l0,0h0l.05.08h0l0,0v0l0,.05h0l0-.08h0l0,0v0l0,0h0v0l0,0h0l0,0,0,0,0,0v0l0,0,0,0,0,0h0l0,0v0l0,0v0l0,0h0V11h0a.73.73,0,0,0,0-.13v0l0,0v0l0,0h0l0,0v0l0,.06,0,0,0,0v0l0,0v0l0-.06,0,0h0v0h0l0,0h0l0,0v0l0-.05v0l0,0,0,0h0v0h0l0,0v0l0,0h0A20.55,20.55,0,0,0,40,8.16v0Z"/><polygon class="cls-4" points="41.02 11.44 41.02 11.45 41.03 11.46 41.04 11.46 41.04 11.45 41.04 11.44 41.06 11.43 41.05 11.41 41.03 11.39 41.02 11.39 41.02 11.44"/><path class="cls-4" d="M38.57,9.81h0l0,0,0,0h0l0,0-.06-.07h0Z"/><path class="cls-4" d="M38,12.23s0,0,.13.09a1.7,1.7,0,0,1,.21.17l.09.06.08.05,0,0c.06.05.08.06.1,0h0a.46.46,0,0,0,0-.19v0a.59.59,0,0,0-.19-.36l0,0s0,0-.32-.21l-.06,0L38,11.76a2,2,0,0,0-.3-.09c-.09,0-.09,0-.13,0l0,0v0l.06.06h.06l.06.06,0,0v0h0v0a.23.23,0,0,0,.13.05l0,0,0,.09Z"/><path class="cls-4" d="M37.87,9.24s.05,0,.09.05h0l0,0h0l-.05-.06,0,0,0,0,0,0L37.72,9l0,0,0,0,0,0,0,0,0,0-.06,0,0,0h0l0,0v0l.09.09h0l.06.06h0l.19.14a.56.56,0,0,1,.07.09Z"/><path class="cls-4" d="M38.14,9.44h0v0h0l0,0,.06,0h0v0a.15.15,0,0,0,0-.07l-.08,0Z"/><polygon class="cls-4" points="35.66 4.53 35.69 4.54 35.65 4.5 35.62 4.5 35.66 4.53"/><path class="cls-4" d="M36.07,5.55h0s0,0,.13.1l.15.07h.08s0,0,0-.14l0,0,0,0a.72.72,0,0,0-.18-.15l-.06,0,0,0L36,5.25c-.09,0-.11,0-.11,0v0h0s0,.05,0,.07a.11.11,0,0,0,0,.06h0l.09.06.05.06Z"/><path class="cls-4" d="M16.72,6h0s0,0,0,0,0,0,0,0S16.74,6,16.72,6Z"/><path class="cls-4" d="M39.84,8l0,0,.1.1L39.86,8Z"/><polygon class="cls-4" points="16.71 5.91 16.68 5.92 16.69 5.93 16.72 5.92 16.71 5.91"/><path class="cls-4" d="M34.18,3.44l.09.07,0,0h0l0,0,.06,0,.05,0,0,0,0,0,.06,0,.06,0,0,0,.15.08.08,0,0,0h0s.05,0,.07,0h0l.07,0h0l0,0h0l0,0-.09-.06-.06,0,0,0h0l0,0-.19-.12h0l-.06,0h0l-.13-.07-.05,0,0,0,0,0-.11-.06h0l0,0,0,0h-.08v0h0Z"/><path class="cls-4" d="M41.56,12l-.08-.08v0l0,.07h0l0,0v0l.05.1h0l0,0h0l0,0,0,0,0,0,0,0h0s0,0-.08-.14h0L41.6,12h0Z"/><path class="cls-4" d="M40.6,11.1,40.54,11h0l0,0h0l.06.06,0,0Z"/><path class="cls-4" d="M40.88,11.41l.05,0v0l-.11-.14-.07,0,0,0,0,0v0h0l0,0a.28.28,0,0,0,.11.09l0,0Z"/><path class="cls-4" d="M42,12.25h0s0,0,0,0h0c.06.06.06.18.18.19l0-.07v0h0l0,0v0h0l0,0h0v0a.63.63,0,0,0-.09-.18l0-.08a.8.8,0,0,0-.11-.19l0,0,0-.08,0-.06,0,0,0,0h0v0l-.06-.11h0v0l0-.06,0,0,0,0h0l0,0h0v0h0l-.05-.06,0,0h0L41.53,11h0v0h0v0l0,.1v0l0,.06h.07l0,0,0,0,0,0h0l0-.06h0v0h0v0h0v0h0l0,0h0l0,0-.11-.14-.06,0h0l0,0L41.27,11l0,0,0,0h0v0h0l0,0h0l0-.07-.06-.07h0l0,0,0-.05h0l0,.06,0,0H40.9v0h0l0,0-.05-.06h0l0,.06,0,0v0l0,0,0,0h0v0l0,0h0v0h0l0,.06,0,0h0l-.06-.05h0v0l0,0h0l-.05,0H40.2l-.09-.07h0v0l0,0L40,10.25h-.1l-.06,0h0v.05h-.05l0,0h0v0h0v0h-.09v0l0,.08h0a.56.56,0,0,0,.16.12l.06,0,.13.08.09.06h0l.06,0v0l0-.05v0h0l.06,0,.11.08,0,0,0,0,.08.1h0l0,0h0v-.05h0s.07,0,.07,0,.14.14.22.21l0,0,.1.12h0l0,0v0h0l0,0h0v0l0,0,0,0h.05l.06,0,.07.09,0,0h0l0,0h0l0,0,0,0,0,.05,0,0,0,0h.05l0,0,0,0v0l0,0s.11.06.14.11l0,.07,0,0H42Z"/><path class="cls-4" d="M41.29,11.71l0,0h0v0l0,.08h0l0,.05.07.06h0l0,0v0a.3.3,0,0,0,0-.1A.86.86,0,0,0,41.29,11.71Z"/><path class="cls-4" d="M41.07,11.55l0,.07c.05.08.05.08.09.11l0,0,0,0,0-.07h0L41,11.5v0h0Z"/><path class="cls-4" d="M11.34,34.49v0l0-.08,0,0v0l0,0h0l.07.08h0l0,.09s0,0,0,.05h0l0,0,.06,0v0l-.06-.07h0l0-.08Z"/><path class="cls-4" d="M16.11,25.89l0,.06,0,0h.09s.07-.05.06-.07v0h0l-.06,0Z"/><path class="cls-4" d="M13,23.66h0l0,0h0l0,.05,0,0h0l0,0h0v0h0l0,0H13Z"/><path class="cls-4" d="M6.77,14.19h0a.42.42,0,0,0,.07-.13v0l0,0h0l0,.08a.67.67,0,0,0-.05.13v0h0Z"/><path class="cls-4" d="M16.16,25.67a.16.16,0,0,0,0,.08l0,0,.06,0h0v-.11l0,0h0Z"/><path class="cls-4" d="M6.74,13.63l0-.06,0-.07h0s0,0,0,0h0l-.05.1h0a.3.3,0,0,0,0,.09Z"/><path class="cls-4" d="M16.06,25.75v0L16,25.62h0l0,0-.08,0v.06l0,.07,0,0,.07,0h0Z"/><polygon class="cls-4" points="6.66 16.18 6.65 16.2 6.64 16.25 6.64 16.27 6.65 16.28 6.66 16.28 6.67 16.25 6.68 16.22 6.69 16.17 6.69 16.16 6.69 16.14 6.69 16.13 6.68 16.13 6.66 16.17 6.66 16.18"/><path class="cls-4" d="M6.64,16.06l0,0,0,0,0,0v0l0,0v0l0,0v0l0,0h0v.06h0l0-.07h0a.22.22,0,0,0,0-.09.3.3,0,0,1,0-.09l0,0v-.07Z"/><path class="cls-4" d="M12.6,23.54h0s0,0,0,.1l0,0h0v0l0,0h0l0,0h0Z"/><path class="cls-4" d="M12.38,23.83v0c0,.07.06.06.09,0l0,0,0,0h0l0,0h0c0-.05,0-.06,0-.07v0h-.12v.1s0,0-.07,0h0Z"/><path class="cls-4" d="M7.05,18.44h0l0,0s0-.05,0-.08v-.06H7v0s0,0,0,.05H7l0,0H7v0c0,.07,0,.07,0,.07Z"/><path class="cls-4" d="M6.11,14.88h.07l0-.07s0,0,0,0l.09-.21,0-.07a.61.61,0,0,0,0-.09h0l0,.05a.12.12,0,0,0,0,0h0a.4.4,0,0,0-.07.07l0,.11s0,0,0-.07h0s0,0-.06.14h0s0-.06,0-.1,0-.09,0-.13h0a.88.88,0,0,0-.09.16h0v0s0,.05,0,.06v.06h0l0,0,0,0v0a.73.73,0,0,0,0,.11h0Z"/><path class="cls-4" d="M5.28,16.69h0v0h0l0,.06h0v0h0l0,0h0v-.09Z"/><path class="cls-4" d="M5.48,15.17h0l0,0v0l0-.05h0s0,0,0,0l0-.06h0v0l0,0,0,0,0,0h0s0,0,0,.06h0l0,0h0v0h0v0h0l0,0h0l0,0v0h0v0H6v0l0-.06v-.09H6l0,0,0,0h0v-.05h0v0l0-.05a.29.29,0,0,0,0-.08v0H6l0,0h0l0,0v.13h0l0,0h0v.05h0l0,0,0,0h0v0h0v0a.42.42,0,0,0,0-.12.1.1,0,0,0,0,0l0,0h0v-.08h0l0,0,0,0v0l0,0h0l0-.06v0h0v.06h0l0,0h0l0,0h0l0,0h0v0h0l0,0h0a.26.26,0,0,1,0,.07h0v0h0l0,0,0,0v0l0,0v0h0v0h0l0,0v0h0l0,.08h0v0l0,0v0l0,0v0h0v.06h0l0-.05h0l0,0v0h0a.26.26,0,0,0-.06.12v0h0l0,0v0l0,0h0l0,0,0,0,0,0v0h0v0l0,0h0v0h0l0-.05v0h0l0,0h0l0,0a.48.48,0,0,0,0,.11h0v0h0l0,0,0,.07h0l0,0V15h0v0h0s0,0,0,0,0-.07.07-.1l0,0,0,0,0,.06,0,.08v0h0v0l0,0v.06h0s0,0,0,0H5.5v.11s0,0,0,0h0Zm.23-.65h0Zm0,0h0v0h0S5.66,14.57,5.68,14.56Z"/><path class="cls-4" d="M5.36,16.7l0-.07h0v0h0l0,.06h0v0l0,.07h0Z"/><path class="cls-4" d="M4.83,16.27h0l0,.05v0l0,0v.12c0,.05,0,.06,0,.08h0l0,0h0v.07l0,.07v.14h0s.05,0,.08,0h0s0,0,.07-.05H5l0,0v0H5a.07.07,0,0,0,0,0h0l0,0h0l0-.07h0a.1.1,0,0,1,0,.09v0h0l0,0h0v0h0v0s0,0,0,0h0l0,0,0,0v0h0l0,0,0,0h0l0-.07v-.07h0v0l0-.06v.05h0v.05h0s0,0,.08-.18v0h0v-.14h0V16h0l0,0h0v-.1l0-.06,0-.12h0a.42.42,0,0,1,0-.13v0h0l0,0,0-.06,0,0,0,0h0v0a.07.07,0,0,0,0-.07h0l0,0v0h0v.13h0v-.06h0l0,0h0v0h0v.1l0,.05,0,.09v0a1.1,1.1,0,0,0,0,.16.25.25,0,0,1,0,.09h0v0l0-.08,0-.06,0-.06a.23.23,0,0,0,0-.09v0a.35.35,0,0,0,0-.05s0,0,0,0h0v.1h0v0l0,0h0v0h0l0,0h0v0a.76.76,0,0,0,0-.1h0l0,0,0,0h0v-.11h0l0-.06h0s0,0,0-.06h0v0c0-.06,0-.06,0-.07s0,0,0,0h0V15h0l0,0,0,0c-.06,0-.06,0-.08,0a.54.54,0,0,0-.06.15h0l0,.07H5a.2.2,0,0,0-.06.12h0s0,0-.05.12v0l0,0a.63.63,0,0,0-.07.13l0,0v0h0v0a.29.29,0,0,1,0,.09l0,.06v0l0,.05v0h0s0-.06.07-.1h0v0h0c.07-.07.08-.17.13-.24H5l0,0v0h0l0,0h0l0,0v0l0,.06H5l0,0,0,0,0,.06v0H5v0h0v0h0l0,0h0v.06a.24.24,0,0,0,0,.14h0s0,0,.06-.05H5a.13.13,0,0,0,0,0H5v0H5v0h-.1s0,0-.06.06h0Zm.28-.7h0ZM4.95,16h0Zm.34.53h0l0,0v0Z"/><path class="cls-4" d="M6.57,14.06h0v.09h.08l0-.08h0s0,0,0,0h0l0-.07h0l0,0v0s0-.09,0-.13h0a.11.11,0,0,0-.06.06h0S6.6,13.93,6.57,14.06Z"/><polygon class="cls-4" points="5.52 16.16 5.52 16.17 5.51 16.19 5.5 16.23 5.5 16.24 5.51 16.24 5.52 16.23 5.54 16.2 5.54 16.2 5.55 16.19 5.55 16.15 5.54 16.13 5.54 16.13 5.52 16.16"/><path class="cls-4" d="M6.41,14s0,0,0,0a.06.06,0,0,0,0,0h0l0-.07h0v0l0-.11a.35.35,0,0,0,0-.08v-.07l0,0s0-.07,0-.07h0l0,.06,0,.14,0,0a.8.8,0,0,1,0,.08h0a.31.31,0,0,0,0,.09h0Z"/><path class="cls-4" d="M5.94,14.33H6l0,0H6a.25.25,0,0,0,.05-.11h0l0,0h0v0h0s0,0,0,0l0,0v-.13h0v0l0,0,0,0v0h0s0,0,0,0v0h0l0,0H6v0H6l0,0H6l0,.06v.07Z"/><path class="cls-4" d="M6.48,16.49v0h0l0,0v.09h0s0-.05,0-.1h0v0h0v0Z"/><path class="cls-4" d="M6.2,14.35l0-.08v0s0-.08,0-.12h0a.73.73,0,0,0-.07.19v0h0v0Z"/><path class="cls-4" d="M11,34v0l-.06-.07h0v0h0l0,0,0,0,0,.07,0,0v0A.1.1,0,0,0,11,34Z"/><path class="cls-4" d="M5.79,14.52h0l0,0h0s0,0,0,0h0l0,.05h0v0h0Z"/><path class="cls-4" d="M6.93,22.65l0,0,0,0h.13l0,0a.24.24,0,0,0,0,0,.19.19,0,0,0,0-.1l0,0-.06,0H7a.07.07,0,0,0-.07,0H6.83l0,0v0l0,0,0,0,0,0Z"/><polygon class="cls-4" points="16.97 30.11 16.95 30.11 16.92 30.11 16.91 30.14 16.91 30.14 16.88 30.15 16.85 30.14 16.89 30.18 16.98 30.25 17.01 30.27 17.05 30.27 17.07 30.21 17.07 30.19 17.05 30.15 16.97 30.11"/><path class="cls-4" d="M7.79,23.18l0,0h0v-.14h0Z"/><path class="cls-4" d="M6.51,16.88h.08a.35.35,0,0,0,.09-.18v0a.47.47,0,0,0,0-.09c0-.05,0-.05,0-.09h0l-.05,0s0,0,0,.1l0,0,0,.07A.4.4,0,0,0,6.51,16.88Z"/><path class="cls-4" d="M17.29,30.24a.1.1,0,0,0,0-.06h0l-.09.06h0l0,0,0,0h0Z"/><path class="cls-4" d="M7.77,21.55l0-.06v0l0,0H7.74l0,.06,0,0a.68.68,0,0,0-.07.23v0l0,0,0,.06,0,.12v.36h0v.07h0v0h0v.09h0v.07h0l0,0v0s0,.13,0,.12h0l0,.1,0,.06V23s0,0,0,.06h0l0,0,0,0,0,0,0,0h.1l0,0,0,0,0,0h0v0h0v.08h0v.12h0v0l0,.05h0l0,0h0v-.16l0,0,0,0H8v-.12H8v.33h0v0l0-.05v0h0v.1h0v.07h0v0h0l0-.07h0V23h0v-.25h0v0h0l0,0v.09h0v-.18h0v.12h0v-.17h0v-.13h0s0,0,0,.05h0v.16H8v0l0-.05v-.09H8v0c0-.15,0-.18,0-.23H8v0l0,0H8s0,0,0,.14H8v0h0l0,0h0s0,0,0,.09l0,.05h0v-.07l0,0h0V22.1h0V22H7.76v0l0,0,0,0h0V22l0-.09h0v-.12l0-.09,0-.11v0h0l0,0Z"/><path class="cls-4" d="M6,15.33v-.07l0-.05v-.06l0-.07v0H6l0,0H6l0,0v0H6v-.07H6v0a.6.6,0,0,1-.06.1h0l0,0h0v0l0,0v.08h0v0h0v0h0l0,0h0v0h0v-.06h0l0,0,0,0h0v.16h0v0h0v0h0v.16h0v0h0l0,.06v0h0l0,0h0l0-.06v-.05h0v.1h0l0,0,0,0v0h0l0,0,0,0,0,0v0h0l0,0,0,0v0c0-.08,0-.08,0-.09H6l0,0v0H6V15.4H6l0,0,0,0H6Zm-.33.59h0Z"/><polygon class="cls-4" points="10.11 33.25 10.07 33.25 10.06 33.29 10.14 33.37 10.17 33.38 10.16 33.3 10.11 33.25"/><path class="cls-4" d="M7.15,23.1h0s0,0,0,.12v.12h0v-.26h0Z"/><path class="cls-4" d="M7.08,23.84l0,0h0v-.14h0l0,0v-.08h0l0,0h0l0,0h0l-.07,0H7l0,0h0v-.1l0,0,0,0v0s0,0,0,.1v.08l0,.05,0,0H7l0,0,0,0Z"/><path class="cls-4" d="M7.65,28.63a.44.44,0,0,0,0,.11h0s0,.08,0,.12a1.1,1.1,0,0,0,0,.11l0,0,0,0a.38.38,0,0,0,0-.11v-.13h0l0-.09v-.07h0A.36.36,0,0,0,7.65,28.63Z"/><path class="cls-4" d="M17.78,30.61h.11l0-.09,0,0-.08,0h-.13l0,0h0l0,0,0,0h0Z"/><polygon class="cls-4" points="6.23 17.95 6.23 17.92 6.21 17.89 6.2 17.89 6.19 17.9 6.17 17.93 6.17 17.94 6.17 17.95 6.17 17.96 6.19 18 6.19 17.99 6.21 17.98 6.23 17.95"/><path class="cls-4" d="M6.24,18v0s0,0,0,0v0h0v.09l0,0h0V18Z"/><polygon class="cls-4" points="6.37 18.33 6.39 18.3 6.39 18.27 6.38 18.26 6.37 18.23 6.36 18.23 6.35 18.25 6.34 18.26 6.33 18.28 6.34 18.3 6.35 18.35 6.36 18.34 6.37 18.33"/><path class="cls-4" d="M6.15,18.09h0a.09.09,0,0,0,0,0h0v.09l0,0h0a.06.06,0,0,0,0,0Z"/><path class="cls-4" d="M5.81,18.34h0l0,0v0h0l0,0v0h0v0l0,0s0,0,0,.1v0h0l0,0h0l0,0a.41.41,0,0,0,.09-.21C5.84,18.35,5.83,18.34,5.81,18.34Z"/><path class="cls-4" d="M17.56,30h0l0-.06-.07,0,0,0V30h0S17.54,30,17.56,30Z"/><path class="cls-4" d="M17.74,30.19h0v0l-.07-.08h-.07v0h0a.27.27,0,0,0,.06.07s0,0,.05,0Z"/><path class="cls-4" d="M17.72,30.23h0l0,0h0c0,.06,0,.08,0,.1l0,0c.09.1.09.1.12.1v0l0-.05,0,0,0,0h0v-.06Z"/><path class="cls-4" d="M5.3,21.92h0v-.14l0-.07H5.25a.21.21,0,0,0,0,.11v0h0v0Z"/><polygon class="cls-4" points="6.71 18.86 6.68 18.92 6.68 18.96 6.71 19 6.73 18.95 6.74 18.93 6.76 18.85 6.75 18.78 6.73 18.78 6.71 18.86"/><path class="cls-4" d="M5.9,18.57a.44.44,0,0,0,0,.19.18.18,0,0,0,0,.12l0-.06v-.07l0-.11,0-.07v0l0,0h0l0,0Z"/><path class="cls-5" d="M3.75,19.08a25.08,25.08,0,0,0,2.82,3.38,24.94,24.94,0,0,0,35.27,0,25.06,25.06,0,0,0,2.82-3.38,20.59,20.59,0,0,0-40.92,0Z"/><path class="cls-6" d="M19.44,53.24a25.4,25.4,0,0,0,4.77.43A25.13,25.13,0,0,0,29,53.24a13.19,13.19,0,0,0,2.17-.57H17.28A13.29,13.29,0,0,0,19.44,53.24Z"/><circle class="cls-5" cx="43.13" cy="40.32" r="1.79"/><circle class="cls-5" cx="5.4" cy="2.6" r="1.79"/></g></g></svg>