<svg xmlns="http://www.w3.org/2000/svg" viewBox="0 0 115.19 67.57"><defs><style>.cls-1{fill:#272525;}</style></defs><title>Asset 9</title><g id="Layer_2" data-name="Layer 2"><g id="Layer_1-2" data-name="Layer 1"><g id="_Group_" data-name="&lt;Group&gt;"><path id="_Compound_Path_" data-name="&lt;Compound Path&gt;" class="cls-1" d="M2,0H1.85L1.58,0h0l-.05,0L1.41.1A2,2,0,0,0,.92.31l0,0a2.05,2.05,0,0,0-.4.36l0,0v0L.38.82l0,0a2,2,0,0,0-.17.29v.08l0,.09a1.79,1.79,0,0,0-.06.18h0s0,0,0,.06a2,2,0,0,0,0,.27s0,0,0,0S0,1.93,0,2a2,2,0,0,0,0,.28V2.3l0,.08,0,.1s0,.09,0,.13v0a2.07,2.07,0,0,0,.13.31l0,0h0V3L37.11,66.57a2,2,0,0,0,1.55,1h.18a2,2,0,0,0,1.53-.71L61.65,41.62,84.9,50.44l.12,0a2,2,0,0,0,.71.13A2,2,0,0,0,87.61,48L85.42,17.13,114,4.38a2,2,0,0,0-.8-3.83L2,0ZM64.39,38.38l1.73-2.06L71.47,30,80.8,44.61ZM103.9,4.51,83.06,13.8,26.32,4.12ZM81.44,17.59l1.65,23.17L73.38,25.53c0-.06-.08-.1-.12-.15a1.89,1.89,0,0,0-.14-.17L73,25.1,72.88,25l-.12-.09a1.89,1.89,0,0,0-.25-.12l-.14-.07h0L24.74,7.91ZM68.3,27.53,39.14,62.11,6.45,5.69Z"/></g></g></g></svg>