<svg xmlns="http://www.w3.org/2000/svg" viewBox="0 0 80.18 108.77"><defs><style>.cls-1{fill:#ffffff;}</style></defs><title>Asset 14</title><g id="Layer_2" data-name="Layer 2"><g id="Layer_1-2" data-name="Layer 1"><g id="_Group_" data-name="&lt;Group&gt;"><path id="_Compound_Path_" data-name="&lt;Compound Path&gt;" class="cls-1" d="M0,12V96.8a12.27,12.27,0,0,0,12.51,12H67.68c6.9,0,12.51-4.95,12.51-11V21a10.55,10.55,0,0,0-4.82-8.7V12A12.26,12.26,0,0,0,62.86,0H12.51A12.27,12.27,0,0,0,0,12Zm4,0a8.27,8.27,0,0,1,8.51-8H62.86a8.27,8.27,0,0,1,8.51,8v1.45a2,2,0,0,0,1,1.75A6.8,6.8,0,0,1,76.18,21V97.75c0,3.88-3.82,7-8.51,7H12.51A8.27,8.27,0,0,1,4,96.8Z"/><path id="_Compound_Path_2" data-name="&lt;Compound Path&gt;" class="cls-1" d="M13.73,18a2,2,0,0,0,1.27.46h9.82V51.88a2,2,0,0,0,3.38,1.45l8.28-7.91,8.69,7.94a2,2,0,0,0,3.35-1.48V18.41H68a2,2,0,0,0,1.84-1.21c.16-.37,1.5-3.68-.06-6.64C69.08,9.29,67.62,7.65,64.43,7A2,2,0,0,0,64,7H15a2.07,2.07,0,0,0-.35,0c-.41.07-4.06.8-4.83,3.73C9,14,12.55,17,13.73,18Zm1.48-7H63.83a3.35,3.35,0,0,1,2.38,1.44,3.37,3.37,0,0,1,.24,2H46.52a2,2,0,0,0-2,2V47.34L37.8,41.21a2,2,0,0,0-2.73,0l-6.25,6V16.41a2,2,0,0,0-2-2H15.73c-2.08-1.84-2-2.66-2-2.67A2.84,2.84,0,0,1,15.2,11Z"/><path id="_Compound_Path_3" data-name="&lt;Compound Path&gt;" class="cls-1" d="M32.41,33.23,31.94,36A1,1,0,0,0,33.39,37l2.46-1.29L38.31,37A1,1,0,0,0,39.76,36l-.47-2.74,2-1.94a1,1,0,0,0-.55-1.71L38,29.19,36.75,26.7a1,1,0,0,0-1.79,0l-1.23,2.49-2.75.4a1,1,0,0,0-.55,1.71Zm2.12-2.14a1,1,0,0,0,.75-.55l.57-1.14.56,1.14a1,1,0,0,0,.75.55l1.26.18-.91.89a1,1,0,0,0-.29.88l.22,1.26-1.13-.59a1,1,0,0,0-.93,0l-1.13.59.22-1.26a1,1,0,0,0-.29-.89l-.91-.89Z"/></g></g></g></svg>