<svg xmlns="http://www.w3.org/2000/svg" viewBox="0 0 79.23 84.67"><defs><style>.cls-1{fill:#272525;}</style></defs><title>Asset 6</title><g id="Layer_2" data-name="Layer 2"><g id="Layer_1-2" data-name="Layer 1"><g id="_Group_" data-name="&lt;Group&gt;"><path id="_Compound_Path_" data-name="&lt;Compound Path&gt;" class="cls-1" d="M8.31,36.62A14.85,14.85,0,0,0,18.81,62h0a14.86,14.86,0,0,0,13.87-9.55H46.55A14.87,14.87,0,0,0,60.42,62h0A14.86,14.86,0,1,0,53.64,33.9a19.39,19.39,0,0,0-3.13-3.72,2,2,0,0,0-2.59-.11c-.08.06-8.26,6.16-16.07.58l-4.12-6.37a14.85,14.85,0,0,0,11.5,5.46h0A14.87,14.87,0,0,0,39.24,0,14.84,14.84,0,0,0,26,21.56l-5-7.67a5.06,5.06,0,0,0-8.5,5.5l8.44,13A14.59,14.59,0,0,0,8.31,36.62ZM31.57,7.21A10.84,10.84,0,1,1,46.9,22.54,10.84,10.84,0,1,1,31.57,7.21ZM52.74,39.45A10.85,10.85,0,1,1,60.42,58h0a10.85,10.85,0,0,1-7.68-18.53ZM15.26,17.61a1.79,1.79,0,0,1,.53-2.48,1.84,1.84,0,0,1,2.48.53l9.7,15h0l2.49,3.86.16.15a17,17,0,0,0,2.1,1.1,16.16,16.16,0,0,0,1.82.65c6.19,1.81,11.86-.75,14.33-2.17a16.06,16.06,0,0,1,1.48,2c-.14.13-.29.25-.43.39a14.77,14.77,0,0,0-4.36,10.51c0,.43,0,.85.07,1.27h-12c0-.43.06-.85.06-1.29a14.88,14.88,0,0,0-7.78-13.06l-.21-.33ZM29.68,47.12A10.88,10.88,0,0,1,18.82,58h0A10.86,10.86,0,1,1,29.68,47.12Z"/><path id="_Compound_Path_2" data-name="&lt;Compound Path&gt;" class="cls-1" d="M.58,84.07a2,2,0,0,0,1.42.6H35.63a2,2,0,0,0,2-1.93c0-.53.34-13.06-7.55-20.28a2,2,0,0,0-2.57-.12c-.36.27-8.82,6.55-16.84,0a2,2,0,0,0-2.57,0c-.32.28-7.91,7-8.1,20.25A2,2,0,0,0,.58,84.07ZM9.64,66.55c7.07,4.67,14.64,2.46,18.82,0,3.95,4.49,4.88,11,5.1,14.16H4.1A24.73,24.73,0,0,1,9.64,66.55Z"/><path id="_Compound_Path_3" data-name="&lt;Compound Path&gt;" class="cls-1" d="M69.12,62.33c-.36.27-8.82,6.55-16.84,0a2,2,0,0,0-2.58,0c-.32.28-7.91,7-8.1,20.25a2,2,0,0,0,2,2H77.23a2,2,0,0,0,2-1.93c0-.53.34-13.06-7.55-20.28A2,2,0,0,0,69.12,62.33Zm6.05,18.33H45.7a24.73,24.73,0,0,1,5.55-14.12c7.06,4.67,14.64,2.46,18.82,0C74,71,74.95,77.47,75.17,80.66Z"/></g></g></g></svg>