<svg xmlns="http://www.w3.org/2000/svg" viewBox="0 0 107.9 87.37"><defs><style>.cls-1{fill:#ffffff;}</style></defs><title>Asset 5</title><g id="Layer_2" data-name="Layer 2"><g id="Layer_1-2" data-name="Layer 1"><g id="_Group_" data-name="&lt;Group&gt;"><path id="_Compound_Path_" data-name="&lt;Compound Path&gt;" class="cls-1" d="M59.8,0H1.71A1.83,1.83,0,0,0,0,1.88V72.72A1.83,1.83,0,0,0,1.71,74.6H44.62V85.39c0,1.3,1.5,2.5,2.58,1.62l3.63-3,2.67-2.18c.23-.18.56-.39.84-.59a3.16,3.16,0,0,1,.46.36,33.23,33.23,0,0,0,2.57,2.11l4,3.24a1.28,1.28,0,0,0,1.93-.17,1.76,1.76,0,0,0,.65-1.45V74.6h42.29a1.51,1.51,0,0,0,1.16-.5l.06-.06,0,0a1.82,1.82,0,0,0,.46-1.28V1.88A1.83,1.83,0,0,0,106.19,0H59.8ZM44.62,70.85H3.42V3.75H44.62ZM60.48,81.65l-5.33-4.37a1.53,1.53,0,0,0-1.73,0L48,81.67V3.75H60.48ZM63.9,3.75h40.57v67.1H63.9Z"/><path id="_Path_" data-name="&lt;Path&gt;" class="cls-1" d="M11.21,21.36h24.2c1.47,0,1.47-2.5,0-2.5H11.21C9.74,18.86,9.74,21.36,11.21,21.36Z"/><path id="_Path_2" data-name="&lt;Path&gt;" class="cls-1" d="M11.21,31.87h24.2c1.47,0,1.47-2.5,0-2.5H11.21C9.74,29.37,9.74,31.87,11.21,31.87Z"/><path id="_Path_3" data-name="&lt;Path&gt;" class="cls-1" d="M11.21,42.38h24.2c1.47,0,1.47-2.5,0-2.5H11.21C9.74,39.88,9.74,42.38,11.21,42.38Z"/><path id="_Path_4" data-name="&lt;Path&gt;" class="cls-1" d="M11.21,52.9h24.2c1.47,0,1.47-2.5,0-2.5H11.21C9.74,50.4,9.74,52.9,11.21,52.9Z"/><path id="_Path_5" data-name="&lt;Path&gt;" class="cls-1" d="M96.82,18.86H72.62c-1.47,0-1.47,2.5,0,2.5h24.2C98.29,21.36,98.29,18.86,96.82,18.86Z"/><path id="_Path_6" data-name="&lt;Path&gt;" class="cls-1" d="M96.82,29.37H72.62c-1.47,0-1.47,2.5,0,2.5h24.2C98.29,31.87,98.29,29.37,96.82,29.37Z"/><path id="_Path_7" data-name="&lt;Path&gt;" class="cls-1" d="M96.82,39.88H72.62c-1.47,0-1.47,2.5,0,2.5h24.2C98.29,42.38,98.29,39.88,96.82,39.88Z"/><path id="_Path_8" data-name="&lt;Path&gt;" class="cls-1" d="M96.82,50.4H72.62c-1.47,0-1.47,2.5,0,2.5h24.2C98.29,52.9,98.29,50.4,96.82,50.4Z"/></g></g></g></svg>