<svg xmlns="http://www.w3.org/2000/svg" viewBox="0 0 87.65 93.62"><defs><style>.cls-1{fill:#272525;}</style></defs><title>Asset 10</title><g id="Layer_2" data-name="Layer 2"><g id="Layer_1-2" data-name="Layer 1"><g id="_Group_" data-name="&lt;Group&gt;"><path id="_Compound_Path_" data-name="&lt;Compound Path&gt;" class="cls-1" d="M11.3,21.35l-.94.82-.06,0L8.05,24.13l.16.08A28.12,28.12,0,0,0,.15,40.51h0a23,23,0,0,0-.15,3c0,.37,0,.74.06,1.18v.19c0,.21,0,.42.05.63.05.49.13,1,.21,1.45,0,.24.09.48.14.75.12.54.24,1.08.37,1.53l0,.1a41.82,41.82,0,0,0,2.66,6.87c.75,1.57,1.64,3.26,2.71,5.16l1.21,2.18a235.1,235.1,0,0,0,12.75,21l.14.18c4.11,4.65,9.2,9.34,15.74,8.89a16.1,16.1,0,0,0,7.73-2.76,16.13,16.13,0,0,0,7.74,2.76c.31,0,.62,0,.94,0,5.13,0,10.26-2.86,15.25-8.52l.1-.12a112.39,112.39,0,0,0,10.28-17.4c1.12-2.22,2.19-4.31,3.27-6.25s2-3.64,2.7-5.16a41.69,41.69,0,0,0,2.66-6.87l0-.06c.15-.53.27-1.06.38-1.56.06-.25.1-.5.15-.76.08-.48.16-1,.21-1.44,0-.21,0-.42.05-.63l0-.27c0-.37,0-.74.06-1.11a21.93,21.93,0,0,0-.14-3A28.12,28.12,0,0,0,79.44,24.2l.15-.08-2.24-1.9h0l-1-.86-.06,0A22.56,22.56,0,0,0,63.43,17h-.16l-.44,0A23,23,0,0,0,54,18.76a21.89,21.89,0,0,0-2.85,1.42A36.27,36.27,0,0,1,57.84,8.84c.38-.43.76-.86,1.16-1.27l1.23-1.29L59.09,4.91c-1-1.23-1.94-2.31-2.81-3.3L54.85,0l-1.5,1.54a44,44,0,0,0-6.64,8.82h0A16.61,16.61,0,0,0,32.25,2.2H31.09l-.57,1a16.66,16.66,0,0,0-1,14.3,23.22,23.22,0,0,0-4.75-.5l-.43,0h-.17a22.55,22.55,0,0,0-12.86,4.33ZM54.73,5.94l.16.19-.08.09a40.27,40.27,0,0,0-6.1,9.47l-.08-.4A40.58,40.58,0,0,1,54.73,5.94Zm-21.26.31A12.56,12.56,0,0,1,44.3,22.88l-.36,0h-.12a10.11,10.11,0,0,1-3.18-.77c-.64-.25-1.28-.53-1.93-.83l-.9-.39-.48-.21c-.29-.19-.61-.38-.94-.57L36.07,20l-.54-.3a12.08,12.08,0,0,1-1.4-1.89A12.64,12.64,0,0,1,33.47,6.25ZM13.54,24.77l0,0A18.51,18.51,0,0,1,24.32,21h.5a19.08,19.08,0,0,1,7.29,1.44c.44.18.87.4,1.28.61a17.52,17.52,0,0,1,1.89,1.09l.36.19c.48.2,1,.41,1.46.63a17.84,17.84,0,0,0,6.67,1.94h.14a11.08,11.08,0,0,0,1.38-.14l-.1.41,3.56-1.43c.61-.25,1.21-.51,1.8-.78s1-.44,1.48-.64l.36-.19a17.72,17.72,0,0,1,3.17-1.7A19,19,0,0,1,62.84,21h.5a18.53,18.53,0,0,1,10.76,3.68l0,0a2.23,2.23,0,0,0,1.19,1A24.68,24.68,0,0,1,83.53,41a18.2,18.2,0,0,1,.12,2.44c0,.31,0,.61,0,1l0,.21c0,.16,0,.31,0,.47,0,.4-.1.79-.17,1.19,0,.2-.07.39-.12.62-.09.45-.19.89-.34,1.39a37.82,37.82,0,0,1-2.41,6.21c-.69,1.45-1.54,3.07-2.59,4.94s-2.2,4.13-3.34,6.39A109.53,109.53,0,0,1,64.7,82.51c-4.42,5-8.74,7.38-12.87,7.09A12.93,12.93,0,0,1,45,86.79l-1.2-.9-1.2.9a12.89,12.89,0,0,1-6.8,2.81c-3.81.26-7.52-2-12.39-7.47A232.61,232.61,0,0,1,11,61.56L9.74,59.38c-1-1.84-1.87-3.46-2.59-4.95a38,38,0,0,1-2.39-6.14l0-.12c-.13-.45-.23-.9-.33-1.33,0-.21-.08-.41-.12-.63-.07-.39-.13-.78-.18-1.18,0-.15,0-.3,0-.45l0-.3c0-.29,0-.59-.05-.89a19.33,19.33,0,0,1,.12-2.45,24.68,24.68,0,0,1,8.23-15.2A2.22,2.22,0,0,0,13.54,24.77Z"/></g></g></g></svg>