<svg xmlns="http://www.w3.org/2000/svg" viewBox="0 0 80.32 92.28"><defs><style>.cls-1{fill:#272525;}</style></defs><title>Asset 2</title><g id="Layer_2" data-name="Layer 2"><g id="Layer_1-2" data-name="Layer 1"><g id="_Group_" data-name="&lt;Group&gt;"><path id="_Compound_Path_" data-name="&lt;Compound Path&gt;" class="cls-1" d="M7.11,59.69V80a12.31,12.31,0,1,0,24.63,0V14.2h1.2c3.26,0,5.91-3.19,5.91-7.1S36.2,0,32.94,0h-27C2.65,0,0,3.19,0,7.1s2.65,7.1,5.91,7.1h1.2V59.69Zm20.63,0h0V80a8.31,8.31,0,1,1-16.63,0V59.7h0V14.2H27.74ZM5.91,10.2C5,10.2,4,8.93,4,7.1S5,4,5.91,4h27c.91,0,1.91,1.27,1.91,3.1s-1,3.1-1.91,3.1Z"/><path id="_Compound_Path_2" data-name="&lt;Compound Path&gt;" class="cls-1" d="M48.57,80A12.31,12.31,0,0,0,73.2,80V14.2h1.2c3.26,0,5.91-3.19,5.91-7.1S77.66,0,74.4,0h-27c-3.26,0-5.91,3.19-5.91,7.1s2.65,7.1,5.91,7.1h1.2V80ZM69.2,40.48V80a8.31,8.31,0,0,1-16.63,0V14.2H69.2ZM47.37,10.2c-.91,0-1.91-1.27-1.91-3.1s1-3.1,1.91-3.1h27c.91,0,1.91,1.27,1.91,3.1s-1,3.1-1.91,3.1Z"/><path id="_Path_" data-name="&lt;Path&gt;" class="cls-1" d="M26.87,78.18a1.44,1.44,0,0,0-1.32-1.55h0A1.45,1.45,0,0,0,24,78a6.1,6.1,0,0,1-.19,1.1,5.08,5.08,0,0,1-4.08,3.63,6.69,6.69,0,0,1-1.29.18,1.44,1.44,0,0,0,0,2.88C21.18,85.72,26.41,84.1,26.87,78.18Z"/><path id="_Path_2" data-name="&lt;Path&gt;" class="cls-1" d="M59.94,85.74c2.7,0,7.93-1.64,8.39-7.56A1.44,1.44,0,0,0,67,76.63h0A1.45,1.45,0,0,0,65.46,78a5.93,5.93,0,0,1-.19,1.1,5.08,5.08,0,0,1-4.08,3.63,6.68,6.68,0,0,1-1.29.18,1.44,1.44,0,0,0,0,2.88Z"/><g id="_Group_2" data-name="&lt;Group&gt;"><g id="_Group_3" data-name="&lt;Group&gt;"><path id="_Path_3" data-name="&lt;Path&gt;" class="cls-1" d="M10.49,61.56H28.36a1.88,1.88,0,0,0,0-3.75H10.49a1.88,1.88,0,0,0,0,3.75Z"/></g></g><g id="_Group_4" data-name="&lt;Group&gt;"><g id="_Group_5" data-name="&lt;Group&gt;"><path id="_Path_4" data-name="&lt;Path&gt;" class="cls-1" d="M51.12,42.36H70.65a1.88,1.88,0,0,0,0-3.75H51.12a1.88,1.88,0,0,0,0,3.75Z"/></g></g></g></g></g></svg>