<svg xmlns="http://www.w3.org/2000/svg" viewBox="0 0 111.45 98.26"><defs><style>.cls-1{fill:#272525;}</style></defs><title>Asset 12</title><g id="Layer_2" data-name="Layer 2"><g id="Layer_1-2" data-name="Layer 1"><g id="_Group_" data-name="&lt;Group&gt;"><path id="_Compound_Path_" data-name="&lt;Compound Path&gt;" class="cls-1" d="M38.08,79.83A42.84,42.84,0,0,0,67,92.38l1.43,0A43.15,43.15,0,0,0,98.86,79.83a43,43,0,0,0,0-60.78A42.53,42.53,0,0,0,67,6.52a43.6,43.6,0,0,0-7.07.82l-.23.06a6,6,0,0,0-3.94,3.36c-.95,2.35.05,4.87.77,6.23l.15.26.17.28.06.15,0,.05A15,15,0,0,1,36,37.52l-3-1.73v.81a6,6,0,0,0-2.65.34,7.46,7.46,0,0,0-4,4l-.12.41A43,43,0,0,0,38.08,79.83ZM30.17,42.36a3.38,3.38,0,0,1,1.61-1.67,3,3,0,0,1,2.37.37l.39.2.88.45,2.73,1.38-.1-.37A19,19,0,0,0,60.93,16.77l.15-.25-.76-1-.2-.34L60,15.06a3.81,3.81,0,0,1-.56-2.8,2.12,2.12,0,0,1,1.37-1,39.59,39.59,0,0,1,6.3-.71,38.92,38.92,0,0,1,40.3,38.92,39,39,0,1,1-77.28-7.08Z"/><path id="_Compound_Path_2" data-name="&lt;Compound Path&gt;" class="cls-1" d="M44.71,65.55A9,9,0,1,0,40,48.08h0a9,9,0,0,0,2.32,17.78A9.07,9.07,0,0,0,44.71,65.55Zm-5.86-2.63a7,7,0,1,1,5.34.7A7,7,0,0,1,38.85,62.92Z"/><path id="_Compound_Path_3" data-name="&lt;Compound Path&gt;" class="cls-1" d="M52.42,79.67a9,9,0,0,0,5.49,4.21,9,9,0,1,0-6.39-11.07h0A9,9,0,0,0,52.42,79.67Zm1-6.34a7.05,7.05,0,0,1,8.62-5,6.94,6.94,0,0,1,3,1.65,7,7,0,1,1-11.6,3.33Z"/><path id="_Compound_Path_4" data-name="&lt;Compound Path&gt;" class="cls-1" d="M85,60.56a9,9,0,1,0,6.39,2.65A9,9,0,0,0,85,60.56Zm5,14a7,7,0,0,1-10-10h0a7,7,0,0,1,10,10Z"/><path id="_Compound_Path_5" data-name="&lt;Compound Path&gt;" class="cls-1" d="M84.31,48.21A9.06,9.06,0,0,0,93,54.91a9,9,0,0,0,8.73-11.38A9,9,0,0,0,90.7,37.14h0A9.05,9.05,0,0,0,84.31,48.21Zm6.91-9.14a7,7,0,1,1-5,8.63A7.05,7.05,0,0,1,91.22,39.07Z"/><path id="_Compound_Path_6" data-name="&lt;Compound Path&gt;" class="cls-1" d="M72.84,36a9.09,9.09,0,0,0,2.36.31A9.08,9.08,0,1,0,72.84,36ZM68.38,25.43a7,7,0,1,1,.7,5.34A7.05,7.05,0,0,1,68.38,25.43Z"/><path id="_Compound_Path_7" data-name="&lt;Compound Path&gt;" class="cls-1" d="M13.86,1l-.64.77,0,0L13.8.92,12.59,0,11.38.91C10.92,1.26,0,9.62,0,20.33c0,7.21,2.51,10.59,5.81,12.12-.13.74-.25,1.46-.35,2.16a123,123,0,0,0-.93,26.12C6.59,89.88,8.22,97.55,12.44,98l2.22.25v-1c3.24-2.33,4.37-12.08,5.9-36.74a138.74,138.74,0,0,0-.84-26.07l-.26-1.73h0l0-.25c3.27-1.54,5.77-4.91,5.77-12.12C25.17,10,15,1.88,13.86,1Zm2.71,59.28c-.65,10.39-1.81,29.2-3.86,33.15-2.18-4.51-3.58-24.19-4.2-33a118.9,118.9,0,0,1,.9-25.24c.08-.56.17-1.12.27-1.7a24.38,24.38,0,0,0,3,.17h0a24,24,0,0,0,2.85-.16c.07.48.14,1,.21,1.46L16,36.7h0A136.07,136.07,0,0,1,16.57,60.25ZM20.73,22a3.5,3.5,0,0,0,.44-1.54c0,7.8-2.89,9.24-8.59,9.26S4,28.23,4,20.33a12.47,12.47,0,0,1,.25-2.41,4.3,4.3,0,0,0,1.94.53c2.75.09,3.66-2.36,4.26-4,.32-.86.68-1.84,1-1.88.5.25,1.31,2.4,1.84,3.82,1.2,3.19,2.54,6.77,5.12,6.77a3.07,3.07,0,0,0,.63-.07A2.54,2.54,0,0,0,20.73,22Zm-2.39-6.36c.49,1.76,1.23,4.43.68,5.32a.54.54,0,0,1-.4.25c-1.33.27-2.56-3-3.47-5.45-1.07-2.85-1.91-5.11-3.62-5.11h-.09c-1.73.08-2.36,1.79-2.87,3.17-.68,1.84-1.13,2.72-2.32,2.67A2.62,2.62,0,0,1,4.05,15C6.17,9.52,10.92,5.2,12.59,3.79a34.05,34.05,0,0,1,6.15,6.74,1.38,1.38,0,0,0-.62.37C17.27,11.75,17.7,13.28,18.34,15.59Z"/></g></g></g></svg>