<svg xmlns="http://www.w3.org/2000/svg" viewBox="0 0 87.87 111.48"><defs><style>.cls-1{fill:#ffffff;}</style></defs><title>Asset 13</title><g id="Layer_2" data-name="Layer 2"><g id="Layer_1-2" data-name="Layer 1"><g id="_Group_" data-name="&lt;Group&gt;"><path id="_Compound_Path_" data-name="&lt;Compound Path&gt;" class="cls-1" d="M87.87,41.91A38.77,38.77,0,1,0,49.1,80.67,38.83,38.83,0,0,0,87.87,41.91Zm-4,0a35,35,0,0,1-.39,5.23,60.29,60.29,0,0,1-17.42,8.45,38.75,38.75,0,0,0,.86-5.12,50.85,50.85,0,0,0-3.31-22.37,50.75,50.75,0,0,0,14-6.06A34.84,34.84,0,0,1,83.87,41.91ZM64.93,50.26a36.22,36.22,0,0,1-1.07,5.91A50.29,50.29,0,0,1,34.58,54.3L33.85,54a36.42,36.42,0,0,1-.57-3.75c-.79-8,1.06-15.94,3.77-22.82A52.5,52.5,0,0,0,51.7,29.61a47.41,47.41,0,0,0,9.89-1C64.06,35.18,65.67,42.66,64.93,50.26ZM76,19.85l.45.57a48.74,48.74,0,0,1-13.54,5.78A84.71,84.71,0,0,0,52.1,7.28,34.66,34.66,0,0,1,76,19.85ZM49.1,7.14h.35a85.32,85.32,0,0,1,11.4,19.53,48.26,48.26,0,0,1-23-1.07A85.93,85.93,0,0,1,48.76,7.15Zm-3,.14A85.31,85.31,0,0,0,35.83,25,57.06,57.06,0,0,1,23,19,34.63,34.63,0,0,1,46.11,7.28ZM14.34,41.91a34.83,34.83,0,0,1,7.38-21.4,59.08,59.08,0,0,0,13.36,6.34c-2.75,7.06-4.61,15.21-3.79,23.61.09.91.22,1.81.37,2.7A65.78,65.78,0,0,1,14.35,42.39C14.35,42.23,14.34,42.07,14.34,41.91Zm.16,3.25A67.21,67.21,0,0,0,32.14,55.51c1.83,7.81,6.08,14.81,12.72,20.9A34.82,34.82,0,0,1,14.49,45.15ZM49.1,76.67l-.92,0C41.12,70.78,36.5,64,34.41,56.35a54.32,54.32,0,0,0,17.91,3.11,51.76,51.76,0,0,0,10.89-1.17c-2.31,6.84-6.72,13-13.19,18.36Zm4.25-.27A41.38,41.38,0,0,0,65.47,57.75a60.2,60.2,0,0,0,17.46-7.84A34.85,34.85,0,0,1,53.35,76.41Z"/><path id="_Compound_Path_2" data-name="&lt;Compound Path&gt;" class="cls-1" d="M41.61,94.8H30.09a8.34,8.34,0,0,0,0,16.68h38a8.34,8.34,0,1,0,0-16.68H56.6V92.88a7.43,7.43,0,0,0-.66-3.06,71.86,71.86,0,0,0,13.65-3.37,2.5,2.5,0,1,0-1.64-4.72c-8.34,2.9-16.17,4.08-23.27,3.5C23.23,83.48,5.06,63,5,40.53A44.15,44.15,0,0,1,6.18,30a37.82,37.82,0,0,1,7.33-14.87A36.56,36.56,0,0,1,26.67,4.79a2.5,2.5,0,1,0-2-4.57A41.12,41.12,0,0,0,9.63,12,42.86,42.86,0,0,0,1.32,28.86,49.14,49.14,0,0,0,0,40.54C.07,64.79,19.18,86.93,42.19,90a7.45,7.45,0,0,0-.58,2.89Zm2,4a2,2,0,0,0,2-2V92.88a3.48,3.48,0,0,1,1.11-2.54c.51,0,1,0,1.52,0,1,0,2.09,0,3.15-.11a3.48,3.48,0,0,1,1.2,2.62V96.8a2,2,0,0,0,2,2H68.12a4.34,4.34,0,1,1,0,8.68h-38a4.34,4.34,0,0,1,0-8.68Z"/></g></g></g></svg>