<svg xmlns="http://www.w3.org/2000/svg" viewBox="0 0 110.34 104.37"><defs><style>.cls-1{fill:#ffffff;}</style></defs><title>Asset 8</title><g id="Layer_2" data-name="Layer 2"><g id="Layer_1-2" data-name="Layer 1"><g id="_Group_" data-name="&lt;Group&gt;"><path id="_Compound_Path_" data-name="&lt;Compound Path&gt;" class="cls-1" d="M31.13,80.43H43.48a4.33,4.33,0,0,0,4.15-3.16L50.52,66.9h8.6l3.14,10.45a4.34,4.34,0,0,0,4.13,3.08H79.22a4.31,4.31,0,0,0,4.12-5.59L67,22.14a4.29,4.29,0,0,0-4.12-3H47.24a4.29,4.29,0,0,0-4.12,3.05L27,74.87a4.31,4.31,0,0,0,4.12,5.57Zm-.3-4.4,16.11-52.7a.31.31,0,0,1,.3-.22H62.88a.31.31,0,0,1,.3.22L79.51,76a.32.32,0,0,1,0,.28.32.32,0,0,1-.26.14H66.39a.31.31,0,0,1-.3-.22L62.52,64.33a2,2,0,0,0-1.92-1.42H49a2,2,0,0,0-1.93,1.46L43.78,76.2a.31.31,0,0,1-.3.23H31.13a.32.32,0,0,1-.25-.12A.33.33,0,0,1,30.83,76Z"/><path id="_Path_" data-name="&lt;Path&gt;" class="cls-1" d="M52,53.37h5.51a2,2,0,0,0,1.92-2.56L57,42.34l-.34-1.17a2,2,0,0,0-2-1.45,2,2,0,0,0-1.91,1.51c-.12.47-.24.92-.36,1.36l-2.31,8.25A2,2,0,0,0,52,53.37Z"/><path id="_Compound_Path_2" data-name="&lt;Compound Path&gt;" class="cls-1" d="M20.2,92.06a50.39,50.39,0,0,0,17.49,9.11,73.34,73.34,0,0,0,21.47,3.21c13.5,0,25.86-3.74,34.8-10.51a39.75,39.75,0,0,0,11.89-14.42,47.64,47.64,0,0,0,4.48-21c0-2.09-.11-4.26-.32-6.44a58.56,58.56,0,0,0-6.11-21.67,44,44,0,0,0-20.15-19.5,52.39,52.39,0,0,0-8.93-3.36,145.3,145.3,0,0,1,23.63.7A3.64,3.64,0,0,0,99.21.95,163.94,163.94,0,0,0,82.05,0C69.11,0,57.5,1.79,47.54,5.31c-.51.18-1,.37-1.49.55l-.14.05a88.45,88.45,0,0,0-21.49,5.74C14.08,15.92,5.9,21.66.77,28.23A3.64,3.64,0,1,0,6.52,32.7C10.15,28,16.28,23.47,23.65,20a53.85,53.85,0,0,0-7,8.52,56.08,56.08,0,0,0-9.13,31,53.19,53.19,0,0,0,5.14,23.31A28.71,28.71,0,0,0,20.2,92.06ZM9.55,59.46a54.1,54.1,0,0,1,8.8-29.88,52.9,52.9,0,0,1,11-12.09l4.92-4L27.85,16c-.48.18-1,.36-1.41.55-9.39,3.86-17,9.16-21.5,14.94a1.65,1.65,0,0,1-2.31.29,1.64,1.64,0,0,1-.29-2.3c4.92-6.3,12.82-11.82,22.84-16A86.54,86.54,0,0,1,46.3,7.88l.47-.15c.47-.18.95-.36,1.44-.53C58,3.75,69.34,2,82.05,2A161.65,161.65,0,0,1,99,2.94a1.64,1.64,0,0,1-.35,3.26A138.7,138.7,0,0,0,68.1,6.07l-7,.82,7,1.15a53.93,53.93,0,0,1,14.82,4.6,42.07,42.07,0,0,1,19.26,18.63A56.6,56.6,0,0,1,108,52.21c.21,2.12.31,4.22.31,6.24a45.66,45.66,0,0,1-4.28,20.12,37.77,37.77,0,0,1-11.3,13.7c-8.6,6.5-20.53,10.09-33.59,10.1a71.3,71.3,0,0,1-20.88-3.12,49.1,49.1,0,0,1-16.8-8.73,26.7,26.7,0,0,1-7-8.63A51.16,51.16,0,0,1,9.55,59.46Z"/><path id="_Compound_Path_3" data-name="&lt;Compound Path&gt;" class="cls-1" d="M23.59,88a40.51,40.51,0,0,0,9.78,5.92,65.27,65.27,0,0,0,25.77,5.16h0a57.07,57.07,0,0,0,24.66-5.21A35.92,35.92,0,0,0,101.1,77.14a42.41,42.41,0,0,0,4-18.68c0-1.93-.1-3.93-.29-5.93a53.43,53.43,0,0,0-5.54-19.72A38.94,38.94,0,0,0,88.37,19.87c-8.08-6.18-19-9.45-31.48-9.45h0a76.15,76.15,0,0,0-9.53.63l-.24.06a62.74,62.74,0,0,0-9.79,4.8h0A49.62,49.62,0,0,0,16.38,40.47a51.8,51.8,0,0,0-3.55,19,48.4,48.4,0,0,0,4.6,21A23.5,23.5,0,0,0,23.59,88ZM14.83,59.46A49.8,49.8,0,0,1,18.24,41.2,47.66,47.66,0,0,1,38.37,17.62,60.84,60.84,0,0,1,47.73,13a74.73,74.73,0,0,1,9.16-.6c12.07,0,22.54,3.13,30.26,9a37,37,0,0,1,10.3,12.28,51.45,51.45,0,0,1,5.32,19c.19,1.94.28,3.87.28,5.73A40.46,40.46,0,0,1,99.3,76.27,34,34,0,0,1,83,92.07a55.06,55.06,0,0,1-23.79,5h0a63.23,63.23,0,0,1-25-5,38.6,38.6,0,0,1-9.3-5.62,21.56,21.56,0,0,1-5.65-6.91A46.36,46.36,0,0,1,14.83,59.46Z"/></g></g></g></svg>