<svg xmlns="http://www.w3.org/2000/svg" viewBox="0 0 102.53 96.13"><defs><style>.cls-1{fill:#272525;}</style></defs><title>Asset 7</title><g id="Layer_2" data-name="Layer 2"><g id="Layer_1-2" data-name="Layer 1"><g id="_Group_" data-name="&lt;Group&gt;"><path id="_Path_" data-name="&lt;Path&gt;" class="cls-1" d="M17.07,87.7a2.81,2.81,0,0,1-2.81,2.81h-3A2.81,2.81,0,0,1,8.43,87.7V81.45H5.21a5.11,5.11,0,0,1-.78-.08V87.7a6.82,6.82,0,0,0,6.81,6.81h3a6.82,6.82,0,0,0,6.81-6.81V81.45h-4Z"/><path id="_Path_2" data-name="&lt;Path&gt;" class="cls-1" d="M95.63,81.45v7.87a2.81,2.81,0,0,1-2.81,2.81h-3A2.81,2.81,0,0,1,87,89.33V81.45H83v7.87a6.82,6.82,0,0,0,6.81,6.81h3a6.82,6.82,0,0,0,6.81-6.81V80.89a5.14,5.14,0,0,1-2.3.56Z"/><path id="_Compound_Path_" data-name="&lt;Compound Path&gt;" class="cls-1" d="M8.43,68.53V46.77a2.77,2.77,0,0,1,2.65-2.87H93a2.77,2.77,0,0,1,2.65,2.88V68.53h1.7a5.14,5.14,0,0,1,2.3.56V46.77A6.77,6.77,0,0,0,93,39.89H91.3V29.8a6.94,6.94,0,0,0,3,.66c3.31,0,5.9-2.14,5.9-4.87V17.2c0-2.73-2.59-4.87-5.9-4.87a6.94,6.94,0,0,0-3,.66V8c0-4.43-3.06-8-6.81-8H19.57c-3.75,0-6.81,3.61-6.81,8v4.8a7.77,7.77,0,0,0-2.83-.52c-3.49,0-6.23,2.14-6.23,4.87v8.38c0,2.73,2.74,4.87,6.23,4.87a7.77,7.77,0,0,0,2.83-.52v10H11.08a6.77,6.77,0,0,0-6.65,6.88V68.6a5.13,5.13,0,0,1,.78-.08Zm84-51.33c0-.27.72-.87,1.9-.87s1.9.61,1.9.87v8.38c0,.27-.72.87-1.9.87s-1.9-.61-1.9-.87ZM16.76,8c0-2.19,1.29-4,2.81-4H84.49C86,4,87.3,5.85,87.3,8V39.89H16.76Zm-4.6,17.54c0,.2-.79.87-2.23.87s-2.2-.67-2.23-.87V17.2c0-.2.79-.87,2.23-.87s2.19.67,2.23.87Z"/><path id="_Compound_Path_2" data-name="&lt;Compound Path&gt;" class="cls-1" d="M97.33,68.53H5.21a5.13,5.13,0,0,0-.78.08A5.2,5.2,0,0,0,0,73.73v2.51a5.2,5.2,0,0,0,4.43,5.13,5.11,5.11,0,0,0,.78.08H97.33a5.14,5.14,0,0,0,2.3-.56,5.19,5.19,0,0,0,2.91-4.65V73.73a5.19,5.19,0,0,0-2.91-4.65A5.14,5.14,0,0,0,97.33,68.53Zm2.29,7.72a2.29,2.29,0,0,1-2.29,2.29H5.21a2.29,2.29,0,0,1-2.29-2.29V73.73a2.29,2.29,0,0,1,2.29-2.29H97.33a2.29,2.29,0,0,1,2.29,2.29Z"/><path id="_Compound_Path_3" data-name="&lt;Compound Path&gt;" class="cls-1" d="M79.77,9.89H26.3a4.6,4.6,0,0,0-4.6,4.6V30.12a4.61,4.61,0,0,0,4.6,4.6H79.77a4.61,4.61,0,0,0,4.6-4.6V14.49A4.6,4.6,0,0,0,79.77,9.89Zm2.6,20.23a2.6,2.6,0,0,1-2.6,2.6H26.3a2.6,2.6,0,0,1-2.6-2.6V14.49a2.6,2.6,0,0,1,2.6-2.6H79.77a2.6,2.6,0,0,1,2.6,2.6Z"/><path id="_Compound_Path_4" data-name="&lt;Compound Path&gt;" class="cls-1" d="M26.37,50.22A5.67,5.67,0,1,0,32,55.89,5.67,5.67,0,0,0,26.37,50.22Zm0,9.33A3.67,3.67,0,1,1,30,55.89,3.67,3.67,0,0,1,26.37,59.55Z"/><path id="_Compound_Path_5" data-name="&lt;Compound Path&gt;" class="cls-1" d="M79.7,50.22a5.67,5.67,0,1,0,5.67,5.67A5.67,5.67,0,0,0,79.7,50.22Zm0,9.33a3.67,3.67,0,1,1,3.67-3.67A3.67,3.67,0,0,1,79.7,59.55Z"/></g></g></g></svg>