<svg xmlns="http://www.w3.org/2000/svg" viewBox="0 0 92.02 91.94"><defs><style>.cls-1{fill:#272525;}</style></defs><title>Asset 11</title><g id="Layer_2" data-name="Layer 2"><g id="Layer_1-2" data-name="Layer 1"><g id="_Group_" data-name="&lt;Group&gt;"><path id="_Path_" data-name="&lt;Path&gt;" class="cls-1" d="M2.79,89.23a2.74,2.74,0,0,0,2.77,2.71l83.75-1a2.74,2.74,0,1,0-.07-5.48l-83.75,1A2.74,2.74,0,0,0,2.79,89.23Z"/><path id="_Compound_Path_" data-name="&lt;Compound Path&gt;" class="cls-1" d="M38.25,80.31h.06l12.62-.21c2.64,0,4.69-2.6,4.66-5.83l-.42-47.89a6.29,6.29,0,0,0-1.76-4.45,4.22,4.22,0,0,0-3-1.25l-12.62.21c-2.64,0-4.69,2.6-4.66,5.83l.42,47.89A6.28,6.28,0,0,0,35.28,79,4.25,4.25,0,0,0,38.25,80.31Zm-.43-55.43,12.62-.21c.15,0,.71.6.72,1.74l.42,47.89c0,1.19-.58,1.79-.72,1.79l-12.62.21c-.15,0-.72-.59-.73-1.74L37.1,26.67C37.09,25.48,37.68,24.88,37.82,24.88Z"/><path id="_Compound_Path_2" data-name="&lt;Compound Path&gt;" class="cls-1" d="M71.41,80.13h.08l12.61-.29c2.68-.06,4.67-3.17,4.65-7.23L88.33,7.08a8.49,8.49,0,0,0-2.09-6A3.73,3.73,0,0,0,83.52,0L70.91.29c-2.68.06-4.67,3.17-4.65,7.23L66.68,73A8.49,8.49,0,0,0,68.77,79,3.76,3.76,0,0,0,71.41,80.13ZM71.13,4.29,83.46,4a4.77,4.77,0,0,1,.87,3.1l.42,65.53a4.92,4.92,0,0,1-.87,3.21l-12.32.29a4.77,4.77,0,0,1-.87-3.1L70.26,7.5A4.93,4.93,0,0,1,71.13,4.29Z"/><path id="_Compound_Path_3" data-name="&lt;Compound Path&gt;" class="cls-1" d="M20.31,37.4a4.2,4.2,0,0,0-3-1.25l-12.62.21h0C2,36.41,0,39,0,42.19L.29,74.78A6.28,6.28,0,0,0,2,79.23a4.25,4.25,0,0,0,3,1.26h.06l12.62-.21c2.64,0,4.69-2.61,4.66-5.83l-.29-32.58A6.29,6.29,0,0,0,20.31,37.4ZM17.63,76.27,5,76.48c-.15,0-.72-.59-.73-1.74L4,42.16c0-1.19.59-1.79.73-1.8l12.62-.21c.17,0,.71.61.72,1.74l.29,32.59C18.36,75.66,17.77,76.27,17.63,76.27Z"/></g></g></g></svg>