<svg xmlns="http://www.w3.org/2000/svg" viewBox="0 0 60.83 113.3"><defs><style>.cls-1{fill:#272525;}</style></defs><title>Asset 4</title><g id="Layer_2" data-name="Layer 2"><g id="Layer_1-2" data-name="Layer 1"><g id="_Group_" data-name="&lt;Group&gt;"><path id="_Compound_Path_" data-name="&lt;Compound Path&gt;" class="cls-1" d="M5.42,55.5A41.73,41.73,0,0,0,6.68,66.22c1.87,7.6,6.42,18,8,21.53A5.77,5.77,0,0,0,13.63,91,5.85,5.85,0,0,0,15.14,95a5.82,5.82,0,0,0-1.5,3.82,5.89,5.89,0,0,0,1.87,4.33,5.81,5.81,0,0,0-1.35,3.66A6.41,6.41,0,0,0,20.7,113l23.69.31h.09a6.88,6.88,0,0,0,4.79-1.9,5.81,5.81,0,0,0-.07-8.47,5.79,5.79,0,0,0,1.35-3.67,5.85,5.85,0,0,0-1.5-3.95,5.76,5.76,0,0,0,0-7.74c1.66-3.7,6.1-13.88,7.94-21.36A41.7,41.7,0,0,0,58.27,55.5a26.43,26.43,0,0,0-52.85,0Zm41.06,53a2.72,2.72,0,0,1-2,.76L20.75,109a2.43,2.43,0,0,1-2.61-2.16,2.21,2.21,0,0,1,1.79-2,2,2,0,0,0-.19-3.9,2.35,2.35,0,0,1-2.12-2.11,2.19,2.19,0,0,1,1.68-1.94,2,2,0,0,0,0-3.81,2.23,2.23,0,0,1-1.69-2,1.73,1.73,0,0,1,.3-.94H46a1.89,1.89,0,0,1,.59,1.33,2.18,2.18,0,0,1-1.67,1.94,2,2,0,0,0,0,3.82,2.22,2.22,0,0,1,1.69,2,2.19,2.19,0,0,1-1.79,2,2,2,0,0,0,.18,3.91,2.35,2.35,0,0,1,2.12,2.11A1.87,1.87,0,0,1,46.48,108.54ZM31.85,33.07A22.45,22.45,0,0,1,54.27,55.5a38,38,0,0,1-1.15,9.77c-1.77,7.2-6.25,17.45-7.79,20.86h-27c-1.54-3.41-6-13.65-7.79-20.85A38.1,38.1,0,0,1,9.42,55.5,22.45,22.45,0,0,1,31.85,33.07Z"/><path id="_Compound_Path_2" data-name="&lt;Compound Path&gt;" class="cls-1" d="M4.16,9.42A2.33,2.33,0,0,0,0,10.59,2.31,2.31,0,0,0,.5,12.3L12.43,27.45a2.34,2.34,0,0,0,1.83.89h.08a2.33,2.33,0,0,0,1.75-3.77Zm10.3,16.85a.33.33,0,0,1-.2.07.31.31,0,0,1-.27-.13L2.07,11.06A.33.33,0,0,1,2,10.82a.33.33,0,0,1,.13-.22.31.31,0,0,1,.2-.07h0a.35.35,0,0,1,.22.13L14.52,25.8a.33.33,0,0,1,.07.24A.33.33,0,0,1,14.46,26.26Z"/><path id="_Compound_Path_3" data-name="&lt;Compound Path&gt;" class="cls-1" d="M47.37,27.77h0a2.31,2.31,0,0,0,1.29.39h.08a2.33,2.33,0,0,0,1.86-1l9.84-14.79a2.33,2.33,0,1,0-3.88-2.58L46.72,24.54a2.33,2.33,0,0,0,.65,3.23Zm1-2.12,9.84-14.8a.33.33,0,0,1,.46-.09.33.33,0,0,1,.14.21.32.32,0,0,1,0,.25L48.94,26a.33.33,0,0,1-.27.15.36.36,0,0,1-.19-.05.33.33,0,0,1-.09-.46Z"/><path id="_Compound_Path_4" data-name="&lt;Compound Path&gt;" class="cls-1" d="M31.36,24.31h.18a2.34,2.34,0,0,0,2.25-2.23l.83-19.65A2.33,2.33,0,0,0,32.39,0,2.33,2.33,0,0,0,30,2.23l-.83,19.65a2.33,2.33,0,0,0,2.23,2.43ZM31.13,22,32,2.32a.34.34,0,0,1,.11-.23A.35.35,0,0,1,32.3,2a.33.33,0,0,1,.23.11.34.34,0,0,1,.09.24L31.79,22a.34.34,0,0,1-.33.32h0a.33.33,0,0,1-.32-.35Z"/><path id="_Path_" data-name="&lt;Path&gt;" class="cls-1" d="M17.68,51.76h0a2.21,2.21,0,0,0,2.33-2A9.21,9.21,0,0,1,20.28,48a7.74,7.74,0,0,1,6.15-5.6,10.25,10.25,0,0,1,2-.29,2.19,2.19,0,0,0-.1-4.39c-4.11.09-12.05,2.64-12.66,11.66A2.2,2.2,0,0,0,17.68,51.76Z"/></g></g></g></svg>