<svg xmlns="http://www.w3.org/2000/svg" viewBox="0 0 135.74 78.89"><defs><style>.cls-1{fill:#ffffff;}</style></defs><title>Asset 15</title><g id="Layer_2" data-name="Layer 2"><g id="Layer_1-2" data-name="Layer 1"><g id="_Group_" data-name="&lt;Group&gt;"><path id="_Compound_Path_" data-name="&lt;Compound Path&gt;" class="cls-1" d="M18.61,42.64a5.49,5.49,0,0,0-3.22,8.68L13.09,64.89a2,2,0,0,0,2,2.33h9.38a2,2,0,0,0,2-2.27l-2-14.15a5.47,5.47,0,0,0-1.87-7.48V36L35,41.35V72a6.87,6.87,0,0,0,6.86,6.86h56.4A6.87,6.87,0,0,0,105.09,72V39.47L134.53,26.7a2,2,0,0,0-.15-3.73L67.42.11a2,2,0,0,0-1.35,0C43.14,8.81,5.48,22.65,2,22.86A2,2,0,0,0,1.2,26.7l17.41,7.55ZM17.43,63.23,19.49,51a2,2,0,0,0-.69-1.87A1.49,1.49,0,1,1,21.25,48a1.47,1.47,0,0,1-.37,1,2,2,0,0,0-.47,1.59l1.75,12.66ZM101.09,72a2.86,2.86,0,0,1-2.86,2.86H41.83A2.86,2.86,0,0,1,39,72v-29l28.1,12.19a2,2,0,0,0,1.59,0l32.43-14.07Zm-93-46.72C22.55,20.8,57.32,7.72,66.81,4.13l61.39,21L67.87,51.26,28,34l33.64-4.44A12.14,12.14,0,0,0,67.87,31C72.51,31,76,29.15,76,26.7s-3.5-4.29-8.14-4.29c-4,0-7.15,1.38-7.94,3.32l-39,5.15ZM61.73,26.7c0-.94,2.39-2.29,6.14-2.29S74,25.77,74,26.7,71.61,29,67.87,29,61.73,27.64,61.73,26.7Z"/></g></g></g></svg>