<svg xmlns="http://www.w3.org/2000/svg" viewBox="0 0 119.54 68.16"><defs><style>.cls-1{fill:#272525;}</style></defs><title>Asset 3</title><g id="Layer_2" data-name="Layer 2"><g id="Layer_1-2" data-name="Layer 1"><g id="_Group_" data-name="&lt;Group&gt;"><path id="_Compound_Path_" data-name="&lt;Compound Path&gt;" class="cls-1" d="M42.65,46.75a21.47,21.47,0,0,0-.17-2.63,5.32,5.32,0,0,1,9.12-.23A21.32,21.32,0,1,0,94,46.83a21.18,21.18,0,0,0-3.19-11.2l27.9-27.9a3.17,3.17,0,0,0-.27-4.45A3.17,3.17,0,0,0,114,3L86.49,30.57a21.3,21.3,0,0,0-33.44,8,10,10,0,0,0-12,.09A21.43,21.43,0,0,0,27.78,26.42L48.69,5.51a3.17,3.17,0,0,0-.27-4.45A3.55,3.55,0,0,0,46.21,0,2.78,2.78,0,0,0,44,.79L19.25,25.52a21.32,21.32,0,1,0,23.4,21.22ZM115.21,4.19a1.12,1.12,0,0,1,.81-.31,1.88,1.88,0,0,1,1.29.58,1.55,1.55,0,0,1,.27,2.11L89.91,34.24a21.51,21.51,0,0,0-2.2-2.55ZM72.72,28.82a18,18,0,1,1-18,18A18,18,0,0,1,72.72,28.82ZM47.11,38.3a8.4,8.4,0,0,1,5.34,1.92Q52.2,41,52,41.77a7,7,0,0,0-9.92.13c-.13-.54-.27-1.07-.43-1.59A8.41,8.41,0,0,1,47.11,38.3ZM45.15,2A1.11,1.11,0,0,1,46,1.65h.12a1.9,1.9,0,0,1,1.18.57,1.53,1.53,0,0,1,.27,2.11L25.93,25.93a21.32,21.32,0,0,0-4.25-.5ZM21.32,64.75a18,18,0,1,1,18-18A18,18,0,0,1,21.32,64.75Z"/><path id="_Path_" data-name="&lt;Path&gt;" class="cls-1" d="M20.37,32C16,32.08,7.67,34.77,7,44.28a2.31,2.31,0,0,0,2.15,2.46h0a2.33,2.33,0,0,0,2.46-2.15,9.76,9.76,0,0,1,.28-1.77c1-3.82,4.06-5.31,6.48-5.9a10.72,10.72,0,0,1,2.06-.3,2.31,2.31,0,0,0-.1-4.62Z"/><path id="_Path_2" data-name="&lt;Path&gt;" class="cls-1" d="M73.82,32c-4.33.09-12.7,2.78-13.33,12.29a2.31,2.31,0,0,0,2.15,2.46h0a2.33,2.33,0,0,0,2.46-2.15,9.63,9.63,0,0,1,.28-1.77c1-3.82,4.06-5.31,6.48-5.9a10.71,10.71,0,0,1,2.06-.3,2.31,2.31,0,0,0-.1-4.62Z"/></g></g></g></svg>