<svg xmlns="http://www.w3.org/2000/svg" viewBox="0 0 77.23 43.59"><defs><style>.cls-1{fill:#184f78;}.cls-2{opacity:0.3;}.cls-3{fill:#467293;}.cls-4{fill:#fdc00f;}.cls-5{fill:#fed96f;}</style></defs><title>Asset 2</title><g id="Layer_2" data-name="Layer 2"><g id="Layer_1-2" data-name="Layer 1"><path class="cls-1" d="M18.11,16.63V36.48c0,2.27,16,7.11,20.5,7.11s20.5-4.84,20.5-7.11V16.63Z"/><polygon class="cls-2" points="18.11 25.83 38.62 33.57 59.12 25.83 59.12 18.63 18.11 18.63 18.11 25.83"/><polygon class="cls-1" points="38.62 0 0 14.57 38.62 29.15 77.23 14.57 38.62 0"/><polygon class="cls-3" points="38.62 29.15 0 14.57 0 16.57 38.62 31.15 77.23 16.57 77.23 14.57 38.62 29.15"/><path class="cls-4" d="M61.56,32.72H59.84s-3.78,5.34-1.29,10.69h4.31C65.34,38.05,61.56,32.72,61.56,32.72Z"/><path class="cls-5" d="M62.06,42.53a14.44,14.44,0,0,0,.08-1.69,5.59,5.59,0,0,0,0-.95l-.08-1a9,9,0,0,0-.14-1L61.71,37c-.16-.58-.26-1.13-.42-1.57A12.35,12.35,0,0,0,60.78,34a12.8,12.8,0,0,1,.41,1.52c.12.46.19,1,.3,1.59l.1.91a8.57,8.57,0,0,1,.07.94c0,.32,0,.63,0,.94a5.3,5.3,0,0,1,0,.91,13.25,13.25,0,0,1-.19,1.58l-.23,1h.72Z"/><path class="cls-5" d="M60,42.39a13.26,13.26,0,0,1-.19-1.58,5.16,5.16,0,0,1,0-.91c0-.31,0-.63,0-.94a8.59,8.59,0,0,1,.07-.94l.1-.91c.11-.58.18-1.14.3-1.59A12.94,12.94,0,0,1,60.62,34a12.19,12.19,0,0,0-.52,1.47c-.16.45-.26,1-.42,1.57l-.16.91a8.79,8.79,0,0,0-.14,1l-.09,1a5.65,5.65,0,0,0,0,.95,14.34,14.34,0,0,0,.08,1.69l.13.88h.72Z"/><path class="cls-5" d="M63.27,41.75a5.25,5.25,0,0,0,.07-1,6.5,6.5,0,0,0,0-1,9,9,0,0,0-.16-1,11.71,11.71,0,0,0-1.38-3.41A10.39,10.39,0,0,0,60.85,34a10.78,10.78,0,0,1,.81,1.38,11.8,11.8,0,0,1,1.11,3.43,8.28,8.28,0,0,1,.09,1,6,6,0,0,1,0,1,4.39,4.39,0,0,1-.12.86,3.9,3.9,0,0,1-.19.75,5.31,5.31,0,0,1-.43,1v0h.77c.05-.11.09-.22.13-.34s.09-.29.13-.46A4.62,4.62,0,0,0,63.27,41.75Z"/><path class="cls-5" d="M60.7,34l-.35,9.41H61Z"/><path class="cls-5" d="M59.3,43.39a5.27,5.27,0,0,1-.43-1,3.83,3.83,0,0,1-.19-.75,4.34,4.34,0,0,1-.12-.86,5.78,5.78,0,0,1,0-1,8.49,8.49,0,0,1,.09-1,11.81,11.81,0,0,1,1.12-3.43A10.84,10.84,0,0,1,60.54,34a10.45,10.45,0,0,0-.91,1.29,11.71,11.71,0,0,0-1.38,3.41,9.1,9.1,0,0,0-.16,1,6.43,6.43,0,0,0,0,1,5.16,5.16,0,0,0,.07,1,4.71,4.71,0,0,0,.16.86c0,.17.08.31.13.46s.08.22.13.34h.77Z"/><circle class="cls-5" cx="60.7" cy="32.72" r="1.95"/><ellipse class="cls-2" cx="38.62" cy="14.58" rx="6.14" ry="3.64"/><path class="cls-4" d="M44.63,15.31a3.39,3.39,0,0,1-1.3,1.59l0,.1L59.7,21.85V32.72h2V20.36Z"/><ellipse class="cls-1" cx="37.76" cy="14.07" rx="5.28" ry="3.13"/></g></g></svg>